<?xml version="1.0" encoding="utf-8"?>
<!-- Generator: Adobe Illustrator 26.2.1, SVG Export Plug-In . SVG Version: 6.00 Build 0)  -->
<svg version="1.1" id="Layer_1" xmlns="http://www.w3.org/2000/svg" xmlns:xlink="http://www.w3.org/1999/xlink" x="0px" y="0px"
	 viewBox="0 0 500 132.3" style="enable-background:new 0 0 500 132.3;" xml:space="preserve">
<style type="text/css">
	.st0{fill:#040433;}
</style>
<g>
	<path class="st0" d="M241.1,38c-3.3-3.4-7.2-6.1-11.9-8.2c-4.7-2-9.9-3-15.8-3s-11.2,1-16,3c-4.7,2-8.8,4.8-12.1,8.2
		c-3.4,3.5-5.9,7.5-7.6,12c-1.8,4.6-2.6,9.5-2.6,14.6c0,5,0.9,9.7,2.7,14.3c1.8,4.5,4.3,8.5,7.7,11.9c3.4,3.4,7.4,6.1,12,8.1
		c4.7,2,10,3,15.8,3c8.2,0,15.1-1.8,21-5.3c5.9-3.5,10.1-8.1,12.8-13.7l-15.9-4.4c-1.2,3-3.4,5.3-6.7,7.2c-3.3,1.8-6.8,2.7-10.5,2.7
		c-2.4,0-4.7-0.4-6.9-1.2c-2.2-0.9-4.2-2-6-3.6c-1.8-1.6-3.2-3.5-4.3-5.7c-1.1-2.2-1.8-4.7-2.1-7.6h56.1c0.2-0.7,0.3-1.6,0.3-2.8
		c0.1-1.1,0.1-2.2,0.1-3.5c0-4.9-0.9-9.6-2.6-14.1C246.8,45.4,244.4,41.4,241.1,38z M194.3,58.2c0.2-2.7,0.8-5.1,1.8-7.4
		c1.1-2.2,2.4-4.1,4.1-5.7c1.6-1.6,3.6-2.8,5.7-3.7c2.2-0.9,4.5-1.3,7-1.3c5.1,0,9.4,1.6,13,4.9c3.6,3.3,5.6,7.6,6,13.1H194.3z"/>
	<path class="st0" d="M325.8,35.7c-1.6-2.7-3.8-4.9-6.6-6.5c-2.9-1.6-6.6-2.5-11.1-2.5c-6.4,0-12.1,1.3-17.2,3.9
		c-5.1,2.6-8.9,6.2-11.6,10.8V28h-16.8v74H281V58.1c0.7-2.2,1.6-4.3,3-6.1c1.4-1.8,3-3.4,4.7-4.8c1.7-1.3,3.6-2.4,5.5-3.1
		c2-0.7,3.8-1.1,5.7-1.1c3.6,0,6.4,1.3,8.5,4c2,2.7,3,6.9,3,12.8v42.1h18.5V55.2c0-3.5-0.3-7-0.9-10.4
		C328.4,41.4,327.3,38.4,325.8,35.7z"/>
	<path class="st0" d="M389.3,83.7c-2.8,1.6-5.9,2.5-9.2,2.5c-2.6,0-5.1-0.5-7.4-1.6c-2.3-1.1-4.3-2.6-6-4.5c-1.7-2-3.1-4.3-4.1-6.9
		c-1-2.7-1.5-5.7-1.5-8.9s0.5-6.2,1.4-8.9c1-2.7,2.3-5,4-6.8c1.7-1.9,3.7-3.4,6-4.4c2.3-1.1,4.8-1.6,7.5-1.6c3.2,0,6,0.7,8.6,2.2
		c2.6,1.4,4.7,3.5,6.2,6.2l18.1-5.5c-2.8-5.5-7-10-12.6-13.4c-5.6-3.4-12.4-5.1-20.3-5.1c-5.9,0-11.2,1-15.9,3
		c-4.7,2-8.7,4.7-12,8.2c-3.4,3.4-5.9,7.4-7.6,11.9c-1.8,4.5-2.6,9.3-2.6,14.4c0,5,0.9,9.8,2.7,14.3c1.8,4.6,4.3,8.6,7.7,12
		c3.4,3.5,7.4,6.2,12,8.2c4.7,2,10,3,15.9,3c8,0,14.9-1.8,20.6-5.3c5.7-3.5,9.9-8,12.4-13.6l-18.1-5.5C394.1,80,392.1,82,389.3,83.7
		z"/>
	<path class="st0" d="M57.9,30.3v10.5c-2.4-4.1-5.7-7.5-10.1-10.1c-4.3-2.6-9.1-3.9-14.5-3.9c-4.7,0-9.1,1-13,2.9
		c-3.9,2-7.4,4.6-10.3,8C7.2,41.1,5,45.1,3.4,49.6C1.8,54.1,1,59,1,64.3S1.9,74.4,3.6,79c1.7,4.6,4.1,8.5,7.2,12
		c3,3.4,6.7,6.1,10.9,8c4.3,2,8.9,2.9,13.9,2.9s9.8-1.2,14.3-3.6c3.2-1.6,5.9-3.8,8.1-6.5v8.7h18.6V27.8H58L57.9,30.3L57.9,30.3z
		 M57.9,74c-0.7,1.8-1.6,3.4-2.8,4.9c-1.2,1.4-2.6,2.8-4.2,3.9c-1.6,1.1-3.3,2-5.1,2.6s-3.7,0.9-5.4,0.9c-3,0-5.7-0.5-8.1-1.6
		c-2.4-1.1-4.5-2.6-6.3-4.6c-1.8-2-3.2-4.2-4.1-6.8c-1-2.6-1.5-5.4-1.5-8.5c0-2.9,0.5-5.7,1.4-8.3c0.9-2.7,2.2-5.1,3.9-7.2
		c1.6-2.1,3.7-3.7,6-4.9c2.4-1.2,4.9-1.8,7.7-1.8c1.8,0,3.7,0.4,5.6,1.1c1.9,0.7,3.7,1.7,5.4,3c1.7,1.2,3.2,2.7,4.6,4.4
		c1.3,1.7,2.4,3.5,3.1,5.6L57.9,74L57.9,74z"/>
	<path class="st0" d="M147,40.7c-2.8-4.3-6.4-7.8-10.7-10.3c-4.3-2.6-9.3-3.9-15-3.9c-5.1,0-9.7,1-13.9,3c-4.2,2-7.8,4.7-10.8,8.2
		c-3,3.5-5.3,7.5-7,12.1c-1.7,4.6-2.5,9.5-2.5,14.9c0,5.1,0.8,9.8,2.4,14.3c1.6,4.5,3.9,8.4,6.8,11.8c3,3.4,6.4,6.1,10.5,8.1
		s8.5,3,13.5,3c5.1,0,9.8-1.1,14.2-3.4s7.8-5.5,10.3-9.7v6.5c0,3.6-0.6,6.6-1.8,9.3c-1.2,2.6-2.8,4.8-4.9,6.4
		c-2,1.7-4.4,2.9-7.1,3.7c-2.4,0.7-4.9,1.1-7.5,1.2c-7.3-0.3-14.9-3.2-19.7-7.3l-0.5,0.9l-1.1,2l-3.2,5.7l-2.4,4.4
		c0.8,0.6,1.6,1.2,2.4,1.7c3.7,2.4,8.2,4.1,13.1,5.3c3.4,0.9,7.1,1.4,11.2,1.5c0.1,0,0.3,0,0.4,0c5.5-0.1,10.6-0.9,15.3-2.4
		c5-1.6,9.3-3.9,12.9-6.9c3.6-3,6.4-6.6,8.5-10.9c2-4.3,3.1-9.1,3.1-14.6V27.8H147V40.7z M144.7,74.4c-0.7,1.7-1.6,3.3-2.8,4.8
		s-2.6,2.8-4.2,3.9s-3.4,2-5.2,2.7c-1.8,0.7-3.8,1-5.9,1c-2.9,0-5.6-0.6-8-1.7c-2.4-1.1-4.5-2.7-6.4-4.6c-1.8-2-3.2-4.3-4.3-6.9
		c-1.1-2.6-1.5-5.5-1.5-8.4c0-2.9,0.5-5.7,1.3-8.4c0.9-2.7,2.2-5.1,3.9-7.2c1.7-2.1,3.7-3.8,6-5.1c2.4-1.2,4.9-1.9,7.9-1.9
		c3.9,0,7.7,1.3,11.3,3.9c3.6,2.6,6.2,6.1,8,10.4L144.7,74.4L144.7,74.4z"/>
	<path class="st0" d="M477.8,28.2v38.9c0,13.9-5.3,20.2-15.4,20.2c-9.7,0-18-5.6-18-18.3V28.2h-19.1v40.3
		c0,23.3,13.3,33.9,32.2,33.9c8.7,0,14.1-3,19.8-8.7c0,2.8-0.3,5.3-0.9,7.6c-0.3,1.3-0.7,2.5-1.1,3.6c-1.2,2.6-2.8,4.7-4.8,6.4
		c-2,1.6-4.3,2.9-7,3.7c-2.4,0.7-4.9,1.1-7.4,1.1c-7.2-0.3-14.7-3.2-19.5-7.2l-0.5,0.9l-1.1,2l-3.1,5.6l-2.4,4.3
		c0.7,0.6,1.6,1.1,2.4,1.7c3.7,2.3,8.1,4.1,12.9,5.2c3.4,0.9,7,1.3,11,1.5c0.1,0,0.3,0,0.4,0c5.4-0.1,10.5-0.9,15.1-2.3
		c4.9-1.6,9.2-3.8,12.8-6.8c3.5-3,6.4-6.6,8.3-10.8c1.3-2.8,2.2-5.7,2.6-8.9c0.4-3.4,0.4-6.8,0.4-10.7V28.2L477.8,28.2L477.8,28.2z"
		/>
</g>
</svg>
