<?xml version="1.0" encoding="utf-8"?>
<!-- Generator: Adobe Illustrator 26.3.1, SVG Export Plug-In . SVG Version: 6.00 Build 0)  -->
<svg version="1.1" id="Layer_1" xmlns="http://www.w3.org/2000/svg" xmlns:xlink="http://www.w3.org/1999/xlink" x="0px" y="0px"
	 viewBox="0 0 2000 600" style="enable-background:new 0 0 2000 600;" xml:space="preserve">
<style type="text/css">
	.st0{fill:#0000C4;}
	.st1{fill:#FFFFFF;}
	.st2{opacity:0.7;fill:url(#SVGID_1_);enable-background:new    ;}
	.st3{opacity:0.7;fill:url(#SVGID_00000028308154247305958480000014248476118775448749_);enable-background:new    ;}
	.st4{fill:url(#SVGID_00000040539730550267253020000007950080533049296022_);}
	.st5{fill:url(#SVGID_00000165914028856945181130000017499843541435968181_);}
	.st6{fill:url(#SVGID_00000088816307429894788670000017859780608625917330_);}
	.st7{opacity:0.7;fill:url(#SVGID_00000049206627391761585380000009510396132052079546_);enable-background:new    ;}
	.st8{opacity:0.7;fill:url(#SVGID_00000175293238382681215830000007299375744953556890_);enable-background:new    ;}
	.st9{fill:url(#SVGID_00000010303123202226626920000003019603823042423983_);}
	.st10{fill:url(#SVGID_00000144322954795328677070000014813159458135401138_);}
	.st11{fill:url(#SVGID_00000074436709656491171460000009576688441718909315_);}
	.st12{fill:none;stroke:#FFFFFF;stroke-width:2;stroke-miterlimit:10;}
</style>
<rect x="-5" y="-2.1" class="st0" width="2008.4" height="608.4"/>
<path class="st1" d="M382.1,312.8c2.1,4.4,3.1,9.7,3.1,16c0,7.3-1.4,13.7-4.2,19c-2.8,5.3-6.5,9.5-11.3,12.7s-10.2,5.6-16.3,7.1
	c-6.2,1.5-12.6,2.2-19.3,2.2c-10.4,0-20.6-1.5-30.7-4.7c-10.1-3.1-19.2-7.5-27.2-13.2l11.8-23.1c1.2,1.2,3.3,2.7,6.4,4.6
	c3,1.9,6.6,3.8,10.7,5.6c4.1,1.9,8.8,3.5,13.8,4.7c5,1.3,10.2,2,15.6,2c14.8,0,22.1-4.7,22.1-14.1c0-3-0.8-5.5-2.5-7.6
	c-1.7-2.1-4.1-3.8-7.2-5.5c-3.1-1.5-6.9-3-11.3-4.3c-4.4-1.3-9.3-2.7-14.8-4.3c-6.6-1.8-12.3-3.8-17.2-5.9
	c-4.8-2.1-8.9-4.7-12.2-7.6c-3.2-3-5.6-6.3-7.2-10.1c-1.6-3.8-2.4-8.4-2.4-13.7c0-7,1.3-13.2,3.8-18.6c2.6-5.5,6.2-9.9,10.7-13.6
	s9.9-6.4,16-8.2c6.1-1.9,12.6-2.8,19.6-2.8c9.8,0,18.6,1.5,26.8,4.6c8.1,3,15.3,6.6,21.4,10.7l-11.8,21.7c-0.9-0.9-2.6-2.1-4.9-3.7
	c-2.4-1.5-5.3-3-8.8-4.6c-3.4-1.5-7.2-2.8-11.2-3.8c-4-1.1-8.1-1.5-12.3-1.5c-7.3,0-12.9,1.3-16.6,4.1c-3.7,2.7-5.5,6.5-5.5,11.5
	c0,2.9,0.7,5.2,2.1,7.1s3.3,3.5,5.9,4.9c2.6,1.4,5.8,2.7,9.8,3.8c3.9,1.2,8.5,2.4,13.7,3.7c6.7,1.8,12.9,3.8,18.3,5.8
	c5.5,2.1,10.2,4.7,14,7.8C377.1,304.6,380,308.4,382.1,312.8z M506.1,294.6c2.5,6.6,3.7,13.6,3.7,20.9c0,7.6-1.2,14.8-3.4,21.4
	c-2.2,6.7-5.5,12.4-9.5,17.5c-4,4.9-8.9,8.8-14.5,11.6c-5.6,2.8-11.7,4.2-18.4,4.2c-8.2,0-15.5-1.9-21.6-5.5
	c-6.2-3.7-10.9-8.6-14.4-14.9v61c-14.8,0-26.8-12-26.8-26.8V263.3h23.4v18c3.8-6.2,8.9-11,15-14.5c6.2-3.5,13.2-5.3,21.2-5.3
	c7.1,0,13.6,1.4,19.6,4.3c6,2.9,11.2,6.7,15.5,11.6C500.2,282.2,503.6,288,506.1,294.6z M482.4,315.5c0-4.4-0.7-8.5-2.2-12.3
	c-1.4-3.8-3.5-7.1-6.1-9.9c-2.6-2.8-5.6-5-9.2-6.6c-3.6-1.6-7.3-2.4-11.5-2.4c-2.5,0-5.1,0.4-7.8,1.3c-2.7,0.9-5.1,2.1-7.4,3.7
	c-2.2,1.6-4.3,3.5-6.1,5.6c-1.8,2.1-3.1,4.5-4.1,7v24.6c2.4,6,6.1,11,11,14.9c4.9,3.9,10.3,5.9,16,5.9c4,0,7.7-0.9,11.1-2.6
	c3.4-1.7,6.3-4,8.7-7s4.3-6.4,5.6-10.2C481.6,323.7,482.4,319.6,482.4,315.5z M627.4,295.1c2.5,6.5,3.8,13.5,3.8,20.9
	c0,7.2-1.3,14-3.8,20.6c-2.5,6.5-6.2,12.3-10.8,17.3c-4.7,5-10.4,8.9-17.2,11.9c-6.8,3-14.5,4.4-23,4.4s-16.2-1.4-23-4.4
	c-6.8-3-12.6-6.9-17.3-11.9c-4.7-5-8.4-10.7-10.9-17.3c-2.5-6.5-3.8-13.4-3.8-20.6c0-7.3,1.3-14.2,3.8-20.9
	c2.5-6.5,6.2-12.3,10.9-17.3c4.7-5,10.5-8.9,17.3-11.9s14.5-4.4,23-4.4s16.2,1.4,22.9,4.4c6.7,3,12.4,6.9,17.2,11.9
	C621.2,282.8,624.8,288.6,627.4,295.1z M603.8,315.7c0-4.6-0.7-8.8-2.1-12.6c-1.4-3.8-3.3-7.2-5.8-10c-2.5-2.8-5.4-5-8.7-6.5
	c-3.3-1.5-7-2.3-10.8-2.3s-7.5,0.8-10.8,2.4s-6.3,3.8-8.7,6.6c-2.5,2.8-4.4,6.2-5.8,10c-1.4,3.8-2.1,8.1-2.1,12.6
	c0,4.7,0.7,8.9,2.1,12.7c1.4,3.8,3.3,7.1,5.8,9.9c2.5,2.8,5.4,5,8.7,6.5c3.3,1.5,6.9,2.3,10.8,2.3c3.8,0,7.4-0.8,10.8-2.3
	c3.3-1.5,6.3-3.7,8.7-6.5c2.5-2.8,4.4-6.2,5.8-10C603.1,324.7,603.8,320.4,603.8,315.7z M794.8,294.9c7-8.3,10.7-18.9,10.7-29.8v-2
	h-86.7v22.5h52.7l-44.3,52.7c-7,8.3-10.8,18.9-10.8,29.7v2h90.1v-22.5h-55.7L794.8,294.9z M922.1,294.5c2.5,6.5,3.8,13.4,3.8,20.5
	c0,1.7,0,3.4-0.1,5c-0.1,1.6-0.3,3-0.5,4.1l-0.1,0.5h-80.4c0.4,3.7,1.3,7.1,2.9,9.9c1.5,3.1,3.6,5.7,6,8c2.4,2.1,5.3,3.8,8.3,5
	c3.1,1.2,6.4,1.8,9.7,1.8c5.2,0,10.1-1.3,14.7-3.8c4.6-2.5,7.7-5.8,9.3-9.9l0.3-0.5l24.3,6.7l-0.4,0.7c-3.8,8.1-10.2,14.8-18.7,19.9
	c-8.5,5.2-18.7,7.8-30.5,7.8c-8.4,0-16.1-1.4-22.9-4.3s-12.7-6.8-17.5-11.8c-4.8-4.9-8.6-10.7-11.2-17.4c-2.6-6.5-3.9-13.5-3.9-20.8
	c0-7.5,1.3-14.6,3.8-21.2c2.5-6.6,6.3-12.5,11.1-17.5c4.8-5,10.7-9,17.6-12s14.7-4.5,23.3-4.5c8.5,0,16.3,1.5,23.1,4.5
	c6.7,3,12.6,7,17.4,11.9C915.9,282.1,919.6,287.9,922.1,294.5z M897,306c-0.8-7.2-3.6-13.2-8.3-17.6c-4.9-4.6-11.1-6.9-18.2-6.9
	c-3.5,0-6.8,0.6-9.8,1.9c-3,1.3-5.7,3-8.1,5.1c-2.3,2.2-4.2,4.8-5.7,8c-1.4,2.9-2.2,6.1-2.6,9.6H897z M1002.4,261.2
	c-0.7,0-1.9,0-3.3,0c-2.8,0-5.7,0.5-8.8,1.7c-3,1.2-6,2.8-8.9,4.9c-3,2.1-5.7,4.7-8.2,7.5c-2.6,2.9-4.7,6.2-6.6,9.8v-21.9h-24.8v80
	c0,14.9,12.1,26.9,26.9,26.9v-65.9c2.8-6,7.4-10.6,13.9-13.6c6.4-3,13.8-4.6,21.9-4.7v-24.4C1003.8,261.3,1003.1,261.2,1002.4,261.2
	z M680.6,229.3h-26.8v34H640v20.6h13.8v60.2c0,4.7,0.7,8.7,2.2,11.9c1.4,3.3,3.4,5.9,5.9,8c2.5,2.1,5.4,3.6,8.6,4.5
	c3.1,0.9,6.5,1.3,10.1,1.4V335v-10.5v-40.8h22v-20.6h-22L680.6,229.3L680.6,229.3z"/>
<path class="st1" d="M1373.4,370.2c-8.4,0-16-1.4-22.8-4.3c-6.8-2.9-12.6-6.8-17.5-11.7c-4.8-4.9-8.5-10.6-11.1-17.3
	c-2.6-6.5-3.9-13.4-3.9-20.7c0-7.5,1.3-14.5,3.8-21.1c2.5-6.6,6.2-12.4,11-17.5c4.8-5,10.6-8.9,17.5-11.9s14.6-4.4,23.2-4.4
	c8.6,0,16.2,1.4,22.9,4.4c6.7,3,12.5,6.9,17.3,11.8s8.3,10.6,10.8,17.3c2.5,6.5,3.7,13.3,3.7,20.4c0,1.7,0,3.4-0.1,5s-0.3,3-0.5,4
	h-81.2c0.4,4.1,1.4,7.8,3,11c1.6,3.2,3.7,5.9,6.2,8.2c2.5,2.2,5.4,4,8.6,5.2c3.2,1.2,6.5,1.8,10,1.8c5.4,0,10.4-1.3,15.1-3.9
	c4.7-2.6,8-6.1,9.8-10.3l23.1,6.4c-3.8,8.1-10,14.6-18.5,19.8C1395.3,367.6,1385.2,370.2,1373.4,370.2z M1400.7,306.9
	c-0.6-7.9-3.6-14.2-8.7-19c-5.1-4.7-11.4-7.2-18.7-7.2c-3.6,0-7,0.6-10.1,1.9c-3.1,1.3-5.9,3-8.3,5.3c-2.4,2.2-4.4,5-5.9,8.2
	c-1.5,3.2-2.4,6.7-2.7,10.6L1400.7,306.9L1400.7,306.9z M1542.3,370.1h-26.8v-60.9c0-8.4-1.4-14.6-4.4-18.4c-3-3.8-7-5.8-12.3-5.8
	c-2.7,0-5.4,0.5-8.2,1.6c-2.8,1.1-5.5,2.6-7.9,4.5c-2.5,2-4.7,4.2-6.7,6.9c-2,2.7-3.5,5.6-4.4,8.9v63.4h-26.8v-107h24.3v19.4
	c3.8-6.7,9.5-11.9,16.8-15.7c7.3-3.8,15.7-5.6,24.9-5.6c6.5,0,11.9,1.2,16,3.6s7.3,5.5,9.6,9.4s3.8,8.3,4.7,13.2
	c0.9,4.9,1.3,9.9,1.3,15L1542.3,370.1L1542.3,370.1z M1559.8,315.7c0-7.3,1.3-14.3,3.8-20.9c2.5-6.5,6.2-12.3,11-17.3
	c4.8-4.9,10.6-8.9,17.5-11.8s14.5-4.4,23.1-4.4c11.5,0,21.3,2.5,29.4,7.4c8.1,4.9,14.1,11.5,18.2,19.4l-26.2,8.1
	c-2.2-3.8-5.3-6.8-9-8.9c-3.8-2.1-7.9-3.1-12.4-3.1c-3.8,0-7.5,0.8-10.8,2.3c-3.3,1.5-6.3,3.7-8.7,6.4c-2.5,2.8-4.4,6.1-5.8,9.9
	s-2.1,8.1-2.1,12.8c0,4.7,0.7,8.9,2.2,12.8c1.4,3.8,3.4,7.2,5.9,10c2.5,2.8,5.4,5,8.7,6.5c3.3,1.5,6.9,2.3,10.6,2.3
	c4.8,0,9.2-1.2,13.3-3.6c4.1-2.4,6.9-5.4,8.5-8.9l26.2,8.1c-3.6,8.1-9.6,14.6-17.8,19.6c-8.3,5.1-18.3,7.6-29.9,7.6
	c-8.6,0-16.2-1.4-23.1-4.4c-6.8-3-12.6-6.9-17.5-11.9c-4.8-5-8.5-10.8-11.1-17.5C1561,329.8,1559.8,322.9,1559.8,315.7z M1149,263.2
	v3.2v1.3v13.9c-3.5-6-8.3-10.9-14.5-14.6c-6.2-3.8-13.2-5.6-20.9-5.6c-6.8,0-13.1,1.4-18.9,4.2c-5.7,2.8-10.6,6.7-14.9,11.6
	c-4.1,4.9-7.4,10.6-9.8,17.3c-2.3,6.5-3.5,13.6-3.5,21.2s1.3,14.8,3.7,21.4c2.5,6.6,5.9,12.3,10.3,17.4c4.4,4.9,9.7,8.9,15.8,11.6
	c6.2,2.8,12.8,4.2,20,4.2c7.2,0,14.1-1.7,20.8-5.1c4.6-2.3,8.5-5.5,11.7-9.4v12.5h13.9h13v-30.9v-68.9v-0.6v-1.3v-3.2H1149
	L1149,263.2L1149,263.2z M1149,329.7c-0.9,2.5-2.3,4.9-4.1,7c-1.8,2.1-3.8,4-6.1,5.6s-4.7,2.9-7.4,3.7c-2.7,0.9-5.3,1.3-7.8,1.3
	c-4.3,0-8.1-0.8-11.7-2.4c-3.6-1.6-6.6-3.8-9.1-6.6c-2.5-2.8-4.6-6.1-6-9.8s-2.2-7.8-2.2-12.3c0-4.1,0.6-8.1,2-12
	c1.3-3.8,3.2-7.3,5.6-10.3s5.3-5.4,8.7-7.2c3.4-1.7,7.2-2.6,11.1-2.6c2.7,0,5.4,0.5,8.1,1.6c2.8,1.1,5.4,2.5,7.8,4.3
	c2.5,1.8,4.7,3.9,6.6,6.4c2,2.5,3.4,5.2,4.5,8.1L1149,329.7L1149,329.7z M1277.8,262.9v18.7c-4-6.3-9.2-11.2-15.4-14.9
	c-6.3-3.8-13.5-5.5-21.7-5.5c-7.3,0-14,1.4-20.1,4.3c-6.1,2.9-11.3,6.8-15.7,11.8c-4.3,5-7.7,10.8-10.1,17.5
	c-2.4,6.6-3.7,13.8-3.7,21.5c0,7.3,1.2,14.2,3.5,20.7c2.3,6.5,5.5,12.2,9.8,17.2c4.3,4.9,9.3,8.9,15.1,11.6
	c5.8,2.9,12.3,4.3,19.5,4.3c7.3,0,14.1-1.7,20.5-5c6.4-3.3,11.3-8.1,14.9-14.1v9.5c0,5.1-0.8,9.6-2.5,13.4c-1.7,3.8-4,6.9-7,9.3
	c-3,2.4-6.4,4.2-10.3,5.4c-3.5,1.1-7.1,1.6-10.8,1.7c-10.6-0.4-21.5-4.7-28.5-10.6l-0.7,1.3l-1.6,3l-4.6,8.1l-3.5,6.4
	c1.1,0.9,2.3,1.7,3.5,2.5c5.4,3.4,11.8,6,18.9,7.6c4.8,1.3,10.3,2,16.2,2.1c0.2,0,0.4,0,0.6,0c8-0.2,15.3-1.3,22.1-3.4
	c7.2-2.3,13.4-5.6,18.7-9.9c5.2-4.3,9.3-9.6,12.3-15.8c3-6.3,4.5-13.2,4.5-21.1v-97.3H1277.8z M1274.4,330.3c-1,2.4-2.3,4.7-4,6.9
	c-1.8,2.1-3.8,4-6.1,5.7c-2.3,1.6-4.8,3-7.5,3.8c-2.7,1-5.5,1.4-8.5,1.4c-4.2,0-8.1-0.8-11.5-2.4c-3.5-1.6-6.6-3.8-9.2-6.7
	c-2.6-2.9-4.7-6.2-6.2-9.9c-1.5-3.8-2.2-7.9-2.2-12.2c0-4.2,0.6-8.2,2-12.2c1.3-3.9,3.1-7.4,5.5-10.5c2.4-3,5.4-5.5,8.8-7.3
	c3.4-1.8,7.2-2.8,11.4-2.8c5.7,0,11.1,1.9,16.4,5.7c5.2,3.8,9,8.8,11.5,15v25.3H1274.4z M1756.2,263.4v56.3c0,20-7.7,29.4-22.2,29.4
	c-14,0-26-8.1-26-26.5v-59.2h-27.7v58.3c0,33.8,19.2,48.9,46.5,48.9c12.5,0,20.3-4.2,28.6-12.5v-0.4c0,4.1-0.4,8-1.3,11.5l0,0
	c-0.4,1.9-1,3.6-1.7,5.2c-1.7,3.8-3.9,6.8-6.9,9.2c-3,2.4-6.4,4.2-10.1,5.3c-3.4,1-7,1.5-10.6,1.7c-10.5-0.4-21.2-4.7-28.2-10.4
	l-0.6,1.2l-1.6,3l-4.5,8.1l-3.5,6.3c1.1,0.9,2.2,1.7,3.5,2.4c5.3,3.4,11.7,5.9,18.6,7.5c4.8,1.3,10.2,2,16,2.1c0.2,0,0.4,0,0.6,0
	c7.8-0.1,15.1-1.3,21.8-3.3c7.2-2.2,13.3-5.5,18.4-9.8s9.2-9.5,12.1-15.7c1.9-3.9,3.1-8.2,3.8-12.8c0.6-5,0.5-9.8,0.5-15.5v-90.3
	H1756.2z"/>
<g>
	
		<linearGradient id="SVGID_1_" gradientUnits="userSpaceOnUse" x1="1130.9189" y1="-3079.6182" x2="1240.0756" y2="-3079.6182" gradientTransform="matrix(1 0 0 1 -1048.8828 3307.2195)">
		<stop  offset="0" style="stop-color:#478CCA;stop-opacity:0.3"/>
		<stop  offset="1" style="stop-color:#000725;stop-opacity:0.58"/>
	</linearGradient>
	<path class="st2" d="M180.5,196.5c0.4,0.1,0.8,0.1,1.2,0.1c5.1,0,9.4-4.2,9.4-9.4c0-5.1-4.2-9.4-9.4-9.4h-3.5
		c-53.5,1.9-96.2,45.8-96.2,99.7c0,0,0,0.1,0,0.1h18.7c0,0,0-0.1,0-0.1C100.7,233.1,136.3,197.1,180.5,196.5z"/>
	
		<linearGradient id="SVGID_00000046315432170485653290000001996145476128431548_" gradientUnits="userSpaceOnUse" x1="1162.0393" y1="-3063.9724" x2="1240.0328" y2="-3063.9724" gradientTransform="matrix(1 0 0 1 -1048.8828 3307.2195)">
		<stop  offset="0" style="stop-color:#478CCA;stop-opacity:0.3"/>
		<stop  offset="1" style="stop-color:#000725;stop-opacity:0.58"/>
	</linearGradient>
	<path style="opacity:0.7;fill:url(#SVGID_00000046315432170485653290000001996145476128431548_);enable-background:new    ;" d="
		M181.7,209L181.7,209c-37.8-0.1-68.6,30.6-68.6,68.5c0,0,0,0.1,0,0.1h18.7c0,0,0-0.1,0-0.1c0-27.1,21.6-49.1,48.5-49.8
		c0.4,0.1,0.9,0.1,1.4,0.1c5.1,0,9.4-4.2,9.4-9.4C191.1,213.2,186.9,209,181.7,209z"/>
	
		<linearGradient id="SVGID_00000125575475541306885830000017158561077537360305_" gradientUnits="userSpaceOnUse" x1="1180.125" y1="-3018.8008" x2="1180.125" y2="-3101.3667" gradientTransform="matrix(1 0 0 1 -1048.8828 3307.2195)">
		<stop  offset="0" style="stop-color:#243A7A"/>
		<stop  offset="1" style="stop-color:#242448"/>
	</linearGradient>
	<path style="fill:url(#SVGID_00000125575475541306885830000017158561077537360305_);" d="M149.3,235.6c0-5.1-4.2-9.4-9.4-9.4
		c-3,0-5.6,1.4-7.3,3.5c-12,12.3-19.4,29.2-19.4,47.8c0,5.1,4.2,9.4,9.4,9.4c5.1,0,9.4-4.2,9.4-9.4c0-0.2,0-0.3,0-0.5
		c0.1-13.6,5.7-25.9,14.6-34.8C148.2,240.5,149.3,238.2,149.3,235.6z"/>
	
		<linearGradient id="SVGID_00000038394271143270032950000012118736770712670129_" gradientUnits="userSpaceOnUse" x1="1153.5422" y1="-3018.8008" x2="1153.5422" y2="-3101.5029" gradientTransform="matrix(1 0 0 1 -1048.8828 3307.2195)">
		<stop  offset="0" style="stop-color:#243A7A"/>
		<stop  offset="1" style="stop-color:#242448"/>
	</linearGradient>
	<path style="fill:url(#SVGID_00000038394271143270032950000012118736770712670129_);" d="M124.1,220.6c1.9-1.7,3.2-4.2,3.2-6.9
		c0-5.1-4.2-9.4-9.4-9.4c-2.6,0-4.9,1.1-6.6,2.7l0,0C93.2,225,82,249.9,82,277.5c0,5.1,4.2,9.4,9.4,9.4c5.1,0,9.4-4.2,9.4-9.4
		c0-0.2,0-0.3,0-0.5C100.9,255.1,109.8,235.1,124.1,220.6z"/>
	
		<linearGradient id="SVGID_00000145056538735621380220000006768603940913854390_" gradientUnits="userSpaceOnUse" x1="1162.1677" y1="-3050.7454" x2="1198.2535" y2="-3050.7454" gradientTransform="matrix(1 0 0 1 -1048.8828 3307.2195)">
		<stop  offset="0" style="stop-color:#243A7A"/>
		<stop  offset="1" style="stop-color:#242448"/>
	</linearGradient>
	<path style="fill:url(#SVGID_00000145056538735621380220000006768603940913854390_);" d="M149.4,235.5c0-5.1-4.2-9.4-9.4-9.4
		c-2.9,0-5.5,1.4-7.2,3.4c-12.1,12.4-19.5,29.2-19.5,47.9c0,5.1,4.2,9.4,9.4,9.4c5.1,0,9.4-4.2,9.4-9.4c0-0.2,0-0.4,0-0.6
		c0.2-13.6,5.7-25.8,14.6-34.7C148.3,240.5,149.4,238.1,149.4,235.5z"/>
</g>
<g>
	
		<linearGradient id="SVGID_00000048502829009055396180000012837041179254224565_" gradientUnits="userSpaceOnUse" x1="2825.2983" y1="-2845.949" x2="2934.4548" y2="-2845.949" gradientTransform="matrix(-0.9566 0.2913 -0.2913 -0.9566 3807.2449 -3076.4646)">
		<stop  offset="0" style="stop-color:#478CCA;stop-opacity:0.3"/>
		<stop  offset="1" style="stop-color:#000725;stop-opacity:0.58"/>
	</linearGradient>
	<path style="opacity:0.7;fill:url(#SVGID_00000048502829009055396180000012837041179254224565_);enable-background:new    ;" d="
		M1848.4,527.6c-0.4,0-0.8,0.2-1.2,0.3c-4.9,1.5-7.8,6.8-6.3,11.8c1.5,4.9,6.8,7.8,11.8,6.3l3.4-1c50.6-17.4,78.7-71.8,63-123.4
		c0,0,0-0.1,0-0.1l-17.9,5.4c0,0,0,0.1,0,0.1C1914.1,469.3,1890.5,514.1,1848.4,527.6z"/>
	
		<linearGradient id="SVGID_00000029761198807939128760000014359558681122592147_" gradientUnits="userSpaceOnUse" x1="2856.4185" y1="-2830.3032" x2="2934.4121" y2="-2830.3032" gradientTransform="matrix(-0.9566 0.2913 -0.2913 -0.9566 3807.2449 -3076.4646)">
		<stop  offset="0" style="stop-color:#478CCA;stop-opacity:0.3"/>
		<stop  offset="1" style="stop-color:#000725;stop-opacity:0.58"/>
	</linearGradient>
	<path style="opacity:0.7;fill:url(#SVGID_00000029761198807939128760000014359558681122592147_);enable-background:new    ;" d="
		M1843.6,515.9L1843.6,515.9c36.2-10.9,56.7-49.3,45.6-85.5c0,0,0-0.1,0-0.1l-17.9,5.4c0,0,0,0.1,0,0.1c7.9,25.9-6.3,53.3-31.9,61.8
		c-0.4,0-0.9,0.2-1.3,0.3c-4.9,1.5-7.8,6.8-6.3,11.8C1833.4,514.7,1838.7,517.5,1843.6,515.9z"/>
	
		<linearGradient id="SVGID_00000141416846350681666030000014043615665538369420_" gradientUnits="userSpaceOnUse" x1="2874.5044" y1="-2785.1316" x2="2874.5044" y2="-2867.6975" gradientTransform="matrix(-0.9566 0.2913 -0.2913 -0.9566 3807.2449 -3076.4646)">
		<stop  offset="0" style="stop-color:#243A7A"/>
		<stop  offset="1" style="stop-color:#242448"/>
	</linearGradient>
	<path style="fill:url(#SVGID_00000141416846350681666030000014043615665538369420_);" d="M1866.9,481.1c1.5,4.9,6.8,7.8,11.8,6.3
		c2.8-0.9,5-3,6-5.5c7.9-15.3,10.1-33.6,4.7-51.4c-1.5-4.9-6.8-7.8-11.8-6.3c-4.9,1.5-7.8,6.8-6.3,11.8c0,0.2,0.1,0.3,0.2,0.4
		c3.8,13.1,2.1,26.4-3.9,37.6C1866.5,476,1866.1,478.6,1866.9,481.1z"/>
	
		<linearGradient id="SVGID_00000109744178831236197480000015956798760590046366_" gradientUnits="userSpaceOnUse" x1="2847.9214" y1="-2785.1316" x2="2847.9214" y2="-2867.8337" gradientTransform="matrix(-0.9566 0.2913 -0.2913 -0.9566 3807.2449 -3076.4646)">
		<stop  offset="0" style="stop-color:#243A7A"/>
		<stop  offset="1" style="stop-color:#242448"/>
	</linearGradient>
	<path style="fill:url(#SVGID_00000109744178831236197480000015956798760590046366_);" d="M1895.4,488.1c-1.3,2.2-1.8,4.9-1,7.6
		c1.5,4.9,6.8,7.8,11.8,6.3c2.5-0.7,4.4-2.5,5.5-4.6l0,0c12-22.5,15.4-49.6,7.4-76c-1.5-4.9-6.8-7.8-11.8-6.3
		c-4.9,1.5-7.8,6.8-6.3,11.8c0,0.2,0.1,0.3,0.2,0.4C1907.6,448.3,1904.8,470,1895.4,488.1z"/>
	
		<linearGradient id="SVGID_00000036222678338740126560000006732032574178947753_" gradientUnits="userSpaceOnUse" x1="2856.5469" y1="-2817.0762" x2="2892.6328" y2="-2817.0762" gradientTransform="matrix(-0.9566 0.2913 -0.2913 -0.9566 3807.2449 -3076.4646)">
		<stop  offset="0" style="stop-color:#243A7A"/>
		<stop  offset="1" style="stop-color:#242448"/>
	</linearGradient>
	<path style="fill:url(#SVGID_00000036222678338740126560000006732032574178947753_);" d="M1866.8,481.1c1.5,4.9,6.8,7.8,11.8,6.3
		c2.8-0.8,4.9-2.9,5.9-5.4c7.9-15.4,10.1-33.6,4.7-51.5c-1.5-4.9-6.8-7.8-11.8-6.3c-4.9,1.5-7.8,6.8-6.3,11.8
		c0.1,0.2,0.2,0.4,0.2,0.5c3.8,13,2,26.4-3.9,37.5C1866.4,476.1,1866.1,478.7,1866.8,481.1z"/>
</g>
<rect x="709.7" y="534.1" class="st12" width="22.9" height="22.9"/>
<rect x="1621.8" y="73.8" class="st12" width="22.9" height="22.9"/>
<rect x="623" y="519.6" class="st12" width="15.7" height="15.7"/>
<circle class="st12" cx="807.9" cy="527.5" r="23.5"/>
<circle class="st12" cx="77.2" cy="525.7" r="32.5"/>
<circle class="st12" cx="1691.1" cy="131.1" r="23.5"/>
<circle class="st12" cx="532" cy="110.6" r="18.7"/>
<circle class="st12" cx="421.2" cy="140.7" r="13.9"/>
</svg>
