<?xml version="1.0" encoding="utf-8"?>
<!-- Generator: Adobe Illustrator 26.2.1, SVG Export Plug-In . SVG Version: 6.00 Build 0)  -->
<svg version="1.1" id="Layer_1" xmlns="http://www.w3.org/2000/svg" xmlns:xlink="http://www.w3.org/1999/xlink" x="0px" y="0px"
	 viewBox="0 0 50 50" style="enable-background:new 0 0 50 50;" xml:space="preserve">
<style type="text/css">
	.st0{fill:#FFFFFF;}
	.st1{opacity:0.7;fill:url(#SVGID_1_);enable-background:new    ;}
	.st2{opacity:0.7;fill:url(#SVGID_00000004505770435752542750000000426339282972264578_);enable-background:new    ;}
	.st3{fill:url(#SVGID_00000146458206105340769910000011481281818720956080_);}
	.st4{fill:url(#SVGID_00000143606436060262411230000014205133748310686879_);}
	.st5{fill:url(#SVGID_00000026151087535792218050000010416643370931955373_);}
</style>
<path class="st0" d="M27.5,10.7c0-1.3-1-2.3-2.3-2.4V5.4c1.3,0,2.3-1.1,2.3-2.4c0-1.3-1.1-2.4-2.4-2.4c-0.1,0-0.1,0-0.2,0H0.8h0H0.6
	v24.2c0,0.1,0,0.2,0,0.3c0,1.3,1.1,2.4,2.4,2.4c1.3,0,2.3-1,2.4-2.3h2.9c0.1,1.3,1.1,2.3,2.4,2.3s2.3-1,2.4-2.3h12.1V13
	C26.5,13,27.5,12,27.5,10.7z M0.8,24.8c0.1-1.1,1.1-1.9,2.2-1.9c1.1,0,2.1,0.9,2.2,2V25H0.8V24.8z M5.4,24.9V13.1h2.9v11.6
	c0,0.1,0,0.2,0,0.3L5.4,24.9C5.4,25,5.4,24.9,5.4,24.9z M5.1,5.2H0.8V0.9L5.1,5.2z M25,0.8v4.4h-0.1c-1.1-0.1-2-1-2-2.2
	S23.8,0.9,25,0.8L25,0.8z M25,5.4v2.8h-2.8V5.4L25,5.4C24.9,5.4,24.9,5.4,25,5.4z M0.8,5.4h4.4v2.8H0.8V5.4z M13,12.9V8.4h5.9v4.4
	L13,12.9L13,12.9z M12.8,12.7L8.6,8.4h4.2V12.7z M13,8.2V5.4h5.9v2.8H13z M12.8,8.2H8.5V5.4h4.4V8.2z M8.3,8.1L5.6,5.4h2.7V8.1z
	 M5.4,5.5l2.8,2.8H5.4V5.5z M12.8,12.9H8.5V8.6L12.8,12.9z M12.8,13.1v11.1c-0.4-0.8-1.2-1.4-2.2-1.4c-1,0-1.8,0.6-2.2,1.4v-11H12.8
	z M18.9,13.1v5.7l-5.7-5.7H18.9z M19.1,13.1H22v8.7L19.1,19V13.1z M19.1,12.9V8.4H22v4.4H19.1z M22.2,8.4h2
	c-0.9,0.4-1.5,1.2-1.5,2.2c0,1,0.6,1.8,1.5,2.2h-2V8.4z M22,8.2h-2.8V5.4H22V8.2z M19.1,5.2V0.8H22v4.4H19.1z M18.9,5.2H13V0.8h5.9
	V5.2z M12.8,5.2H8.5V0.8h4.4V5.2z M8.3,5.2H5.4l0,0V0.8h2.9V5.2z M0.8,8.4h4.4v4.4H0.8V8.4z M5.4,8.4h2.9v4.4H5.4V8.4z M8.5,24.7
	c0.2-1,1.1-1.8,2.2-1.8c1.2,0,2.1,0.9,2.2,2.1H8.5V24.7z M13,13.1l5.9,5.9V25H13V13.1z M19.1,19.2l2.8,2.8V25h-2.8V19.2z M22.2,22.3
	l2.7,2.7h-2.7V22.3z M22.2,22v-8.9H25v11.7L22.2,22z M22.9,10.7c0-1.2,0.9-2.1,2.1-2.2v4.4C23.8,12.8,22.9,11.8,22.9,10.7z M27.3,3
	c0,1.2-0.9,2.1-2.1,2.2V0.8C26.3,0.9,27.3,1.8,27.3,3z M22.7,3c0,1,0.6,1.8,1.4,2.2h-1.9V0.8h1.9C23.3,1.2,22.7,2,22.7,3z M5.2,0.8
	V5L1,0.8H5.2z M0.8,13.1h4.4v11.1C4.8,23.3,4,22.7,3,22.7c-1,0-1.8,0.6-2.2,1.4V13.1z M3,27.3c-1.2,0-2.1-0.9-2.2-2.1h4.4
	C5.1,26.4,4.2,27.3,3,27.3z M10.6,27.3c-1.2,0-2.1-0.9-2.2-2.1h4.4C12.8,26.4,11.8,27.3,10.6,27.3z M25.2,12.9V8.5
	c1.2,0,2.1,1,2.1,2.2S26.3,12.8,25.2,12.9z"/>
<g>
	<g>
		
			<linearGradient id="SVGID_1_" gradientUnits="userSpaceOnUse" x1="-693.2896" y1="8641.1279" x2="-666.6171" y2="8641.1279" gradientTransform="matrix(1 0 0 -1 694 8654)">
			<stop  offset="0" style="stop-color:#478CCA;stop-opacity:0.3"/>
			<stop  offset="1" style="stop-color:#000725;stop-opacity:0.58"/>
		</linearGradient>
		<path class="st1" d="M24.8,5.2c0.1,0,0.2,0,0.3,0c1.3,0,2.3-1,2.3-2.3s-1-2.3-2.3-2.3h-0.9C11.2,1.1,0.7,11.9,0.7,25c0,0,0,0,0,0
			h4.6c0,0,0,0,0,0C5.3,14.2,14,5.4,24.8,5.2z"/>
		
			<linearGradient id="SVGID_00000182500548248271983050000007411361709693829047_" gradientUnits="userSpaceOnUse" x1="-685.6724" y1="8637.3232" x2="-666.6252" y2="8637.3232" gradientTransform="matrix(1 0 0 -1 694 8654)">
			<stop  offset="0" style="stop-color:#478CCA;stop-opacity:0.3"/>
			<stop  offset="1" style="stop-color:#000725;stop-opacity:0.58"/>
		</linearGradient>
		<path style="opacity:0.7;fill:url(#SVGID_00000182500548248271983050000007411361709693829047_);enable-background:new    ;" d="
			M25.1,8.3L25.1,8.3C15.8,8.3,8.3,15.8,8.3,25c0,0,0,0,0,0h4.6c0,0,0,0,0,0c0-6.6,5.3-12,11.9-12.2c0.1,0,0.2,0,0.3,0
			c1.3,0,2.3-1,2.3-2.3S26.4,8.3,25.1,8.3z"/>
		
			<linearGradient id="SVGID_00000172424992626441700220000007036676364110199225_" gradientUnits="userSpaceOnUse" x1="-681.2516" y1="8626.2764" x2="-681.2516" y2="8646.46" gradientTransform="matrix(1 0 0 -1 694 8654)">
			<stop  offset="0" style="stop-color:#243A7A"/>
			<stop  offset="1" style="stop-color:#242448"/>
		</linearGradient>
		<path style="fill:url(#SVGID_00000172424992626441700220000007036676364110199225_);" d="M17.2,14.8c0-1.3-1-2.3-2.3-2.3
			c-0.7,0-1.4,0.3-1.8,0.9c-2.9,3-4.7,7.1-4.7,11.7c0,1.3,1,2.3,2.3,2.3s2.3-1,2.3-2.3c0,0,0-0.1,0-0.1c0-3.3,1.4-6.3,3.6-8.5
			C16.9,16,17.2,15.4,17.2,14.8z"/>
		
			<linearGradient id="SVGID_00000174566582751434202870000015454530904242238873_" gradientUnits="userSpaceOnUse" x1="-687.7636" y1="8626.2764" x2="-687.7636" y2="8646.4824" gradientTransform="matrix(1 0 0 -1 694 8654)">
			<stop  offset="0" style="stop-color:#243A7A"/>
			<stop  offset="1" style="stop-color:#242448"/>
		</linearGradient>
		<path style="fill:url(#SVGID_00000174566582751434202870000015454530904242238873_);" d="M11,11.1c0.5-0.4,0.8-1,0.8-1.7
			c0-1.3-1-2.3-2.3-2.3c-0.6,0-1.2,0.3-1.6,0.7l0,0c-4.4,4.4-7.1,10.5-7.1,17.2c0,1.3,1,2.3,2.3,2.3s2.3-1,2.3-2.3c0,0,0-0.1,0-0.1
			C5.3,19.6,7.5,14.7,11,11.1z"/>
		
			<linearGradient id="SVGID_00000045603497495361786070000017813631031908996526_" gradientUnits="userSpaceOnUse" x1="-685.6559" y1="8634.0859" x2="-676.8309" y2="8634.0859" gradientTransform="matrix(1 0 0 -1 694 8654)">
			<stop  offset="0" style="stop-color:#243A7A"/>
			<stop  offset="1" style="stop-color:#242448"/>
		</linearGradient>
		<path style="fill:url(#SVGID_00000045603497495361786070000017813631031908996526_);" d="M17.2,14.8c0-1.3-1-2.3-2.3-2.3
			c-0.7,0-1.3,0.3-1.8,0.8c-2.9,3-4.8,7.1-4.8,11.7c0,1.3,1,2.3,2.3,2.3s2.3-1,2.3-2.3c0,0,0-0.1,0-0.1c0-3.3,1.4-6.3,3.6-8.5
			C16.9,16,17.2,15.4,17.2,14.8z"/>
	</g>
</g>
<path class="st0" d="M25,37.3c-6.8,0-12.3-5.5-12.3-12.3c0-6.8,5.5-12.3,12.3-12.3S37.3,18.2,37.3,25C37.3,31.8,31.8,37.3,25,37.3z
	 M25,12.9c-6.6,0-12.1,5.4-12.1,12.1S18.4,37.1,25,37.1c6.6,0,12.1-5.4,12.1-12.1S31.6,12.9,25,12.9z M25,41.8
	c-9.3,0-16.8-7.5-16.8-16.8S15.7,8.2,25,8.2c9.3,0,16.8,7.5,16.8,16.8S34.3,41.8,25,41.8z M25,8.4C15.8,8.4,8.4,15.8,8.4,25
	c0,9.2,7.5,16.6,16.6,16.6c9.2,0,16.6-7.5,16.6-16.6C41.6,15.8,34.2,8.4,25,8.4z M25,44.8C14.1,44.8,5.2,35.9,5.2,25
	C5.2,14.1,14.1,5.2,25,5.2S44.8,14.1,44.8,25C44.8,35.9,35.9,44.8,25,44.8z M25,5.4C14.2,5.4,5.4,14.2,5.4,25S14.2,44.6,25,44.6
	c10.8,0,19.6-8.8,19.6-19.6S35.8,5.4,25,5.4z M25,49.4c-6.5,0-12.6-2.5-17.3-7.1C3.1,37.6,0.6,31.5,0.6,25c0-6.5,2.5-12.6,7.1-17.3
	C12.4,3.1,18.5,0.6,25,0.6s12.6,2.5,17.3,7.1c4.6,4.6,7.1,10.7,7.1,17.3c0,6.5-2.5,12.6-7.1,17.3C37.6,46.9,31.5,49.4,25,49.4z
	 M25,0.8C11.7,0.8,0.8,11.7,0.8,25c0,13.3,10.9,24.2,24.2,24.2c13.3,0,24.2-10.9,24.2-24.2C49.2,11.7,38.3,0.8,25,0.8z"/>
</svg>
