<?xml version="1.0" encoding="utf-8"?>
<!-- Generator: Adobe Illustrator 26.2.1, SVG Export Plug-In . SVG Version: 6.00 Build 0)  -->
<svg version="1.1" id="Layer_1" xmlns="http://www.w3.org/2000/svg" xmlns:xlink="http://www.w3.org/1999/xlink" x="0px" y="0px"
	 viewBox="0 0 600 600" style="enable-background:new 0 0 600 600;" xml:space="preserve">
<style type="text/css">
	.st0{opacity:0.7;fill:url(#SVGID_1_);enable-background:new    ;}
	.st1{opacity:0.7;fill:url(#SVGID_00000163062331969119712730000012223711405903774604_);enable-background:new    ;}
	.st2{fill:url(#SVGID_00000057117473670941086040000016371658338011464096_);}
	.st3{fill:url(#SVGID_00000119836898673468920540000001799320695407448204_);}
	.st4{fill:url(#SVGID_00000042711989589090980840000007332476759489941937_);}
	.st5{opacity:0.7;fill:url(#SVGID_00000151545373973963826380000015583526224641196712_);enable-background:new    ;}
	.st6{opacity:0.7;fill:url(#SVGID_00000038415216429006555000000013773582452877536394_);enable-background:new    ;}
	.st7{fill:url(#SVGID_00000117669638173376113210000018034257855438077095_);}
	.st8{fill:url(#SVGID_00000031189792494986413760000008965781393499068595_);}
	.st9{fill:url(#SVGID_00000145031909402786121390000001509790167642931358_);}
	.st10{fill:#FFFFFF;}
</style>
<linearGradient id="SVGID_1_" gradientUnits="userSpaceOnUse" x1="89.1828" y1="295.7088" x2="358.6828" y2="295.7088">
	<stop  offset="0" style="stop-color:#478CCA;stop-opacity:0.3"/>
	<stop  offset="1" style="stop-color:#000725;stop-opacity:0.58"/>
</linearGradient>
<path class="st0" d="M115.5,372.7c-1-0.2-2.1-0.2-3.1-0.2c-12.8,0-23.2,10.4-23.2,23.2c0,12.8,10.4,23.2,23.2,23.2h8.6
	c132-4.6,237.7-113,237.7-246.1c0-0.1,0-0.2,0-0.2h-46.2c0,0.1,0,0.2,0,0.2C312.5,282.2,224.6,371,115.5,372.7z"/>
<linearGradient id="SVGID_00000073001374527789469390000016109695023308828091_" gradientUnits="userSpaceOnUse" x1="12571.9531" y1="-3509.3647" x2="12379.4531" y2="-3509.3647" gradientTransform="matrix(-1 0 0 -1 12661.2363 -3252.3059)">
	<stop  offset="0" style="stop-color:#478CCA;stop-opacity:0.3"/>
	<stop  offset="1" style="stop-color:#000725;stop-opacity:0.58"/>
</linearGradient>
<path style="opacity:0.7;fill:url(#SVGID_00000073001374527789469390000016109695023308828091_);enable-background:new    ;" d="
	M112.4,341.7v0.2c93.5,0,169.4-75.8,169.4-169.4c0-0.1,0-0.2,0-0.2h-46.2c0,0.1,0,0.2,0,0.2c0,66.9-53.3,121.3-119.8,123.1
	c-1.1-0.2-2.2-0.2-3.3-0.2c-12.8,0-23.2,10.4-23.2,23.2C89.3,331.4,99.6,341.7,112.4,341.7z"/>
<linearGradient id="SVGID_00000130610735784503800890000007031643666452029069_" gradientUnits="userSpaceOnUse" x1="12424.1533" y1="-3397.7849" x2="12424.1533" y2="-3601.7537" gradientTransform="matrix(-1 0 0 -1 12661.2363 -3252.3059)">
	<stop  offset="0" style="stop-color:#243A7A"/>
	<stop  offset="1" style="stop-color:#242448"/>
</linearGradient>
<path style="fill:url(#SVGID_00000130610735784503800890000007031643666452029069_);" d="M192.5,276.1c0,12.8,10.4,23.2,23.2,23.2
	c7.3,0,13.8-3.4,18-8.6c29.7-30.5,48-72.2,48-118.1c0-12.8-10.4-23.2-23.2-23.2c-12.8,0-23.2,10.4-23.2,23.2c0,0.4,0,0.8,0.1,1.2
	c-0.3,33.5-14,63.9-36.1,85.9C195.2,263.8,192.5,269.6,192.5,276.1z"/>
<linearGradient id="SVGID_00000102528095081237802370000014638609915580979365_" gradientUnits="userSpaceOnUse" x1="12358.2539" y1="-3397.7849" x2="12358.2539" y2="-3601.9849" gradientTransform="matrix(-1 0 0 -1 12661.2363 -3252.3059)">
	<stop  offset="0" style="stop-color:#243A7A"/>
	<stop  offset="1" style="stop-color:#242448"/>
</linearGradient>
<path style="fill:url(#SVGID_00000102528095081237802370000014638609915580979365_);" d="M254.8,313.1c-4.7,4.2-7.7,10.4-7.7,17.2
	c0,12.8,10.4,23.2,23.2,23.2c6.4,0,12.2-2.6,16.4-6.8l0,0c44.6-44.6,72.2-106.1,72.2-174.2c0-12.8-10.4-23.2-23.2-23.2
	c-12.8,0-23.2,10.4-23.2,23.2c0,0.4,0,0.7,0.1,1.2C312.2,228,290.3,277.2,254.8,313.1z"/>
<linearGradient id="SVGID_00000178182124418070080450000013803761027010084014_" gradientUnits="userSpaceOnUse" x1="12379.5537" y1="-3476.7148" x2="12468.7363" y2="-3476.7148" gradientTransform="matrix(-1 0 0 -1 12661.2363 -3252.3059)">
	<stop  offset="0" style="stop-color:#243A7A"/>
	<stop  offset="1" style="stop-color:#242448"/>
</linearGradient>
<path style="fill:url(#SVGID_00000178182124418070080450000013803761027010084014_);" d="M192.4,276.2c0,12.8,10.4,23.2,23.2,23.2
	c7.2,0,13.6-3.3,17.9-8.5c29.8-30.6,48.2-72.2,48.2-118.2c0-12.8-10.4-23.2-23.2-23.2c-12.8,0-23.2,10.4-23.2,23.2
	c0,0.5,0.1,1,0.1,1.4c-0.4,33.5-14.1,63.8-36.1,85.7C195,264,192.4,269.8,192.4,276.2z"/>
<linearGradient id="SVGID_00000055699538679864547140000017204243839702671528_" gradientUnits="userSpaceOnUse" x1="-1052.3448" y1="-8611.2422" x2="-1321.8448" y2="-8611.2422" gradientTransform="matrix(1 0 0 1 1558.1277 9028.8506)">
	<stop  offset="0" style="stop-color:#478CCA;stop-opacity:0.3"/>
	<stop  offset="1" style="stop-color:#000725;stop-opacity:0.58"/>
</linearGradient>
<path style="opacity:0.7;fill:url(#SVGID_00000055699538679864547140000017204243839702671528_);enable-background:new    ;" d="
	M479.5,340.7c1,0.2,2.1,0.2,3.1,0.2c12.8,0,23.2-10.4,23.2-23.2c0-12.8-10.4-23.2-23.2-23.2H474c-132,4.6-237.7,113-237.7,246.1
	c0,0.1,0,0.2,0,0.2h46.2c0-0.1,0-0.2,0-0.2C282.4,431.2,370.4,342.4,479.5,340.7z"/>
<linearGradient id="SVGID_00000173132675930487843240000016826923951945601677_" gradientUnits="userSpaceOnUse" x1="-1052.5449" y1="-8572.5918" x2="-1245.0449" y2="-8572.5918" gradientTransform="matrix(1 0 0 1 1558.1277 9028.8506)">
	<stop  offset="0" style="stop-color:#478CCA;stop-opacity:0.3"/>
	<stop  offset="1" style="stop-color:#000725;stop-opacity:0.58"/>
</linearGradient>
<path style="opacity:0.7;fill:url(#SVGID_00000173132675930487843240000016826923951945601677_);enable-background:new    ;" d="
	M482.5,371.7v-0.2c-93.5,0-169.4,75.8-169.4,169.4c0,0.1,0,0.2,0,0.2h46.2c0-0.1,0-0.2,0-0.2c0-66.9,53.3-121.3,119.8-123.1
	c1.1,0.2,2.2,0.2,3.3,0.2c12.8,0,23.2-10.4,23.2-23.2C505.6,382.1,495.3,371.7,482.5,371.7z"/>
<linearGradient id="SVGID_00000016781380839418425820000006376411412827026054_" gradientUnits="userSpaceOnUse" x1="-1200.3448" y1="-8460.9854" x2="-1200.3448" y2="-8664.9541" gradientTransform="matrix(1 0 0 1 1558.1277 9028.8506)">
	<stop  offset="0" style="stop-color:#243A7A"/>
	<stop  offset="1" style="stop-color:#242448"/>
</linearGradient>
<path style="fill:url(#SVGID_00000016781380839418425820000006376411412827026054_);" d="M402.4,437.4c0-12.8-10.4-23.2-23.2-23.2
	c-7.3,0-13.8,3.4-18,8.6c-29.7,30.5-48,72.2-48,118.1c0,12.8,10.4,23.2,23.2,23.2s23.2-10.4,23.2-23.2c0-0.4,0-0.8-0.1-1.2
	c0.3-33.5,14-63.9,36.1-85.9C399.8,449.6,402.4,443.9,402.4,437.4z"/>
<linearGradient id="SVGID_00000042732006265167132780000006451837256670701734_" gradientUnits="userSpaceOnUse" x1="-1266.2449" y1="-8460.9854" x2="-1266.2449" y2="-8665.1855" gradientTransform="matrix(1 0 0 1 1558.1277 9028.8506)">
	<stop  offset="0" style="stop-color:#243A7A"/>
	<stop  offset="1" style="stop-color:#242448"/>
</linearGradient>
<path style="fill:url(#SVGID_00000042732006265167132780000006451837256670701734_);" d="M340.1,400.3c4.7-4.2,7.7-10.4,7.7-17.2
	c0-12.8-10.4-23.2-23.2-23.2c-6.4,0-12.2,2.6-16.4,6.8l0,0C263.6,411.3,236,472.8,236,540.9c0,12.8,10.4,23.2,23.2,23.2
	c12.8,0,23.2-10.4,23.2-23.2c0-0.4,0-0.7-0.1-1.2C282.8,485.5,304.7,436.2,340.1,400.3z"/>
<linearGradient id="SVGID_00000114071686027718075970000016501585248560123811_" gradientUnits="userSpaceOnUse" x1="-1244.8296" y1="-8539.9414" x2="-1155.6475" y2="-8539.9414" gradientTransform="matrix(1 0 0 1 1558.1277 9028.8506)">
	<stop  offset="0" style="stop-color:#243A7A"/>
	<stop  offset="1" style="stop-color:#242448"/>
</linearGradient>
<path style="fill:url(#SVGID_00000114071686027718075970000016501585248560123811_);" d="M402.5,437.2c0-12.8-10.4-23.2-23.2-23.2
	c-7.2,0-13.6,3.3-17.9,8.5c-29.8,30.6-48.2,72.2-48.2,118.2c0,12.8,10.4,23.2,23.2,23.2c12.8,0,23.2-10.4,23.2-23.2
	c0-0.5-0.1-1-0.1-1.4c0.4-33.5,14.1-63.8,36.1-85.7C399.9,449.4,402.5,443.6,402.5,437.2z"/>
<g>
	<path class="st10" d="M482,418.8H234.8V171.6H482L482,418.8L482,418.8z M235.8,417.8H481V172.6H235.8V417.8z M282,171.9h-1v246.4h1
		V171.9z M312.7,171.6h-1v246.3h1V171.6z M359.4,172.3h-1v246.3h1V172.3z M481.9,201.9H235.6v1h246.3V201.9z M482.3,232.6H235.9v1
		h246.4V232.6z M482,294.3H235.7v1h246.4v-1H482z M482,340.3H235.7v1h246.4v-1H482z M481.3,371.7H235v1h246.3L481.3,371.7
		L481.3,371.7z M481.2,172.6l-0.7-0.7l-246,246l0.7,0.7L481.2,172.6z M258.4,195.7c-13.1,0-23.7-10.6-23.7-23.7s10.6-23.7,23.7-23.7
		c13.1,0,23.7,10.6,23.7,23.7S271.5,195.7,258.4,195.7z M258.4,149.4c-12.5,0-22.7,10.2-22.7,22.7s10.2,22.7,22.7,22.7
		s22.7-10.2,22.7-22.7S270.9,149.4,258.4,149.4z M335.6,195.5c-13.1,0-23.7-10.6-23.7-23.7c0-13.1,10.6-23.7,23.7-23.7
		s23.7,10.6,23.7,23.7C359.3,184.9,348.7,195.5,335.6,195.5z M335.6,149.2c-12.5,0-22.7,10.2-22.7,22.7s10.2,22.7,22.7,22.7
		s22.7-10.2,22.7-22.7C358.3,159.4,348.1,149.2,335.6,149.2z M481.5,341.7c-13,0-23.7-10.6-23.7-23.7s10.6-23.7,23.7-23.7
		s23.7,10.6,23.7,23.7S494.5,341.7,481.5,341.7z M481.5,295.3c-12.5,0-22.7,10.2-22.7,22.7s10.2,22.7,22.7,22.7s22.7-10.2,22.7-22.7
		S494,295.3,481.5,295.3z M481.6,419c-13.1,0-23.7-10.6-23.7-23.7s10.6-23.7,23.7-23.7c13,0,23.7,10.6,23.7,23.7
		C505.3,408.4,494.7,419,481.6,419z M481.6,372.6c-12.5,0-22.7,10.2-22.7,22.7s10.2,22.7,22.7,22.7s22.7-10.2,22.7-22.7
		C504.3,382.8,494.1,372.6,481.6,372.6z M237,451.7h-41.3v-35.4H237V451.7z M196.7,450.7H236v-33.4h-39.3V450.7z M448,93.7h-41.3
		V58.3H448V93.7z M407.7,92.7H447V59.3h-39.3V92.7z M585.6,282.8h-41.3v-35.4h41.3V282.8z M545.3,281.8h39.3v-33.4h-39.3
		L545.3,281.8L545.3,281.8z M169.8,504.8h-41.3v-35.4h41.3V504.8z M129.5,503.8h39.3v-33.4h-39.3V503.8z M165.3,95.2
		c-11.9,0-21.6-9.7-21.6-21.6S153.4,52,165.3,52s21.6,9.7,21.6,21.6S177.3,95.2,165.3,95.2z M165.3,53c-11.4,0-20.6,9.2-20.6,20.6
		s9.2,20.6,20.6,20.6s20.6-9.2,20.6-20.6S176.7,53,165.3,53z M102.8,175c-11.9,0-21.6-9.7-21.6-21.6s9.7-21.6,21.6-21.6
		s21.6,9.6,21.6,21.6S114.7,175,102.8,175z M102.8,132.8c-11.4,0-20.6,9.2-20.6,20.6s9.2,20.6,20.6,20.6s20.6-9.3,20.6-20.6
		S114.2,132.8,102.8,132.8z"/>
	<path class="st10" d="M170.3,505.3H128v-36.4h42.3V505.3z M129,504.3h40.3v-34.4v34.4H129z M130,503.3h38.3v-32.4H130V503.3z
		 M237.5,452.2h-42.3v-36.4h39.1V174.2c-0.1-0.7-0.1-1.5-0.1-2.2c0-13.3,10.9-24.2,24.2-24.2c13,0,23.7,10.4,24.2,23.3h28.8
		c0.4-13,11.1-23.5,24.2-23.5c13.1,0,23.8,10.5,24.2,23.5h122.7v61h0.3v2h-0.3v59.7l0.1,0c12.8,0.6,23.1,11.2,23.1,24.2
		c0,13-10.3,23.7-23.2,24.2v28.9c12.9,0.5,23.3,11.1,23.3,24.2c0,13.3-10.9,24.2-24.2,24.2c-1.1,0-2.1-0.1-3.1-0.2h-241V452.2z
		 M196.2,451.2h40.3v-31.9v31.9H196.2z M197.2,450.2h38.3v-30.9h-1.2v-0.9l-0.5-0.5l0.1-0.1h-36.7V450.2z M482.5,418.4
		c12.4-0.5,22.3-10.7,22.3-23.2C504.8,407.7,494.9,418,482.5,418.4z M359.9,418.3H474H359.9z M313.2,418.3h44.7H313.2z M282.5,418.3
		h28.7H282.5z M237.5,418.3h43H237.5z M481.5,417.5v-44.3V417.5z M482.5,373.1v44.4c11.8-0.5,21.3-10.2,21.3-22.2
		S494.3,373.5,482.5,373.1z M478.6,417.3h1.9v-44.1h-1c-11.2,1.1-20.1,10.6-20.1,22.1C459.4,406.5,467.8,415.8,478.6,417.3z
		 M474.2,417.3c-9.2-3.1-15.8-11.8-15.8-22C458.4,405.5,465,414.2,474.2,417.3z M359.9,417.3h111.6c-8.3-3.8-14.1-12.3-14.1-22
		c0-9.8,5.9-18.3,14.3-22.1H359.9V417.3z M358.9,417.3v-44.1V417.3z M313.2,417.3h44.7v-44.1h-44.7V417.3z M312.2,417.3v-44.1V417.3
		z M282.5,417.3h28.7v-44.1h-28.7V417.3z M281.5,417.3v-44.1V417.3z M237.5,417.3h43V374l-43,43V417.3z M236.3,373.2v42.2l42.2-42.2
		H236.3z M359.9,372.2h114.5H359.9z M313.2,372.2h44.7H313.2z M282.5,372.2h28.7H282.5z M236.3,372.2h43.2H236.3z M359.9,371.2
		h119.5c0.4,0,0.7-0.1,1.1-0.1v-28.9c-1.2,0-2.3-0.2-3.4-0.4H359.9V371.2z M358.9,371.2v-29.4V371.2z M313.2,371.2h44.7v-29.4h-44.7
		V371.2z M312.2,371.2v-28.9V371.2z M283.3,371.2h27.9v-27.9L283.3,371.2z M236.3,371.2l44.2,0v-29.4h-44.2V371.2z M481.5,342.2
		v28.9V342.2z M281.5,341.8v28.4V341.8z M282.5,341.8v27.4l27.4-27.4H282.5z M482.6,341.1c12.3-0.6,22.1-10.8,22.1-23.2
		C504.7,330.4,494.9,340.6,482.6,341.1z M359.9,340.8h113.5H359.9z M313.7,340.8h44.2H313.7z M282.5,340.8h28.4H282.5z M236.3,340.8
		h44.2H236.3z M482.5,339.8h0.1v0.4c11.7-0.6,21.1-10.3,21.1-22.2c0-11.9-9.4-21.7-21.2-22.2V339.8z M481.5,339.8v-44V339.8z
		 M477.3,339.8h3.2v-44c-11.8,0.5-21.2,10.3-21.2,22.2C459.3,328.8,467,337.8,477.3,339.8z M473.5,339.8
		c-8.9-3.2-15.3-11.8-15.3-21.8C458.3,328,464.6,336.5,473.5,339.8z M359.9,339.8H471c-8.1-3.9-13.7-12.2-13.7-21.8
		c0-9.9,6-18.5,14.6-22.2h-112V339.8z M358.9,339.8v-44V339.8z M314.7,339.8h43.2v-43.2L314.7,339.8z M282.5,339.8h28.7v-44h-28.7
		V339.8z M281.5,339.8v-44V339.8z M236.3,339.8h44.2v-44h-44.2V339.8z M312.2,295.8v43.7V295.8z M313.2,295.8v42.7l42.7-42.7H313.2z
		 M359.9,294.8h114.7H359.9z M313.2,294.8h43.7H313.2z M282.5,294.8h28.7H282.5z M236.3,294.8h44.2H236.3z M481.5,293.8v-59.7V293.8
		z M360.7,293.8h119.8v-59.7h-60.1L360.7,293.8z M313.2,293.8l44.7,0v-59.7h-44.7V293.8z M312.2,293.8v-59.7V293.8z M282.5,293.8
		h28.7v-59.7h-28.7V293.8z M281.5,293.8v-59.7V293.8z M236.3,293.8h44.2v-59.7h-44.2V293.8z M358.9,234.1v58.7V234.1z M359.9,234.1
		v57.7l57.7-57.7H359.9z M421.4,233.1h59.1H421.4z M359.9,233.1h58.7H359.9z M313.2,233.1h44.7H313.2z M282.5,233.1h28.7H282.5z
		 M236.4,233.1h44.1H236.4z M481.5,232.1v-28.7V232.1z M422.4,232.1h58.1v-28.7h-29.4L422.4,232.1z M359.9,232.1h59.7l28.7-28.7
		h-88.4V232.1z M358.9,232.1v-28.7V232.1z M313.2,232.1h44.7v-28.7h-44.7V232.1z M312.2,232.1v-28.7V232.1z M282.5,232.1h28.7v-28.7
		h-28.7V232.1z M281.5,232.1v-28.7V232.1z M236.3,232.1h44.2v-28.7h-44.2V232.1z M452.1,202.4h28.4H452.1z M359.9,202.4h89.4H359.9z
		 M313.2,202.4h44.7H313.2z M282.5,202.4h28.7H282.5z M236.3,202.4h44.2H236.3z M481.5,201.4V173V201.4z M453.1,201.4h27.4V174
		L453.1,201.4z M359.9,201.4h90.4l28.3-28.3H359.9V201.4z M358.9,201.4v-23.1V201.4z M313.2,201.4h44.7v-20.2
		c-3.7,8.7-12.3,14.8-22.3,14.8c-10.1,0-18.8-6.2-22.4-15V201.4z M312.2,201.4v-23.4V201.4z M282.5,201.4h28.7v-28.3h-28.6
		c0,0.4,0,0.7-0.1,1.1V201.4z M281.5,201.4v-22.2V201.4z M236.3,201.4h44.2v-19.5c-3.8,8.4-12.3,14.3-22.1,14.3
		c-9.8,0-18.3-5.9-22.1-14.3V201.4z M236.3,174.2c1.1,11.3,10.6,20.1,22.1,20.1c11.5,0,21-8.8,22.1-20.1v-1.1h-44.2V174.2z
		 M313.4,173.1c0.6,11.7,10.3,21,22.2,21c11.8,0,21.5-9.3,22.2-21H313.4z M481.5,172.2L481.5,172.2L481.5,172.2z M358.8,171.1
		L358.8,171.1c-0.4-12.5-10.6-22.5-23.2-22.5c-12.6,0-22.8,10-23.2,22.5h0c0.4-12.4,10.7-22.4,23.2-22.4S358.3,158.6,358.8,171.1z
		 M313.4,171.1h44.4c-0.4-11.9-10.2-21.4-22.2-21.4S313.8,159.2,313.4,171.1z M281.6,171.1L281.6,171.1
		c-0.5-12.4-10.7-22.3-23.2-22.3c-12.5,0-22.7,9.9-23.2,22.3h0c0.5-12.3,10.7-22.2,23.2-22.2C270.8,148.9,281,158.7,281.6,171.1z
		 M236.2,171.1h44.4c-0.5-11.8-10.3-21.2-22.2-21.2C246.5,149.9,236.7,159.3,236.2,171.1z M586.1,283.3h-42.3v-36.4h42.3V283.3z
		 M544.8,282.3h40.3v-34.4v34.4H544.8z M545.8,281.3h38.3v-32.4h-38.3V281.3z M102.8,175.5c-12.2,0-22.1-9.9-22.1-22.1
		s9.9-22.1,22.1-22.1c12.2,0,22.1,9.9,22.1,22.1S115,175.5,102.8,175.5z M81.7,153.4c0,11.6,9.5,21.1,21.1,21.1s21.1-9.5,21.1-21.1
		c0,11.6-9.5,21.1-21.1,21.1S81.7,165,81.7,153.4z M102.8,133.3c-11.1,0-20.1,9-20.1,20.1c0,11.1,9,20.1,20.1,20.1
		c11.1,0,20.1-9,20.1-20.1C122.9,142.3,113.9,133.3,102.8,133.3z M165.3,95.7c-12.2,0-22.1-9.9-22.1-22.1s9.9-22.1,22.1-22.1
		c12.2,0,22.1,9.9,22.1,22.1S177.5,95.7,165.3,95.7z M144.2,73.6c0,11.6,9.5,21.1,21.1,21.1s21.1-9.5,21.1-21.1
		c0,11.6-9.5,21.1-21.1,21.1S144.2,85.2,144.2,73.6z M165.3,53.5c-11.1,0-20.1,9-20.1,20.1s9,20.1,20.1,20.1
		c11.1,0,20.1-9,20.1-20.1S176.4,53.5,165.3,53.5z M448.5,94.2h-42.3V57.8h42.3V94.2z M407.2,93.2h40.3V58.8v34.4H407.2z
		 M408.2,92.2h38.3V59.8h-38.3V92.2z"/>
</g>
</svg>
