<?xml version="1.0" encoding="utf-8"?>
<!-- Generator: Adobe Illustrator 26.2.1, SVG Export Plug-In . SVG Version: 6.00 Build 0)  -->
<svg version="1.1" id="Layer_1" xmlns="http://www.w3.org/2000/svg" xmlns:xlink="http://www.w3.org/1999/xlink" x="0px" y="0px"
	 viewBox="0 0 1898 1164.8" style="enable-background:new 0 0 1898 1164.8;" xml:space="preserve">
<style type="text/css">
	.st0{fill:#040433;}
	.st1{fill:#0000C4;}
	.st2{opacity:0.2;}
	.st3{fill:#FFFFFF;}
	.st4{fill:#D14F27;}
</style>
<rect x="2.5" y="0.4" class="st0" width="1894.5" height="1168.4"/>
<rect x="192.3" y="279" class="st1" width="1527.4" height="889.9"/>
<g class="st2">
	<g>
		<path class="st3" d="M270.2,513.9l-15-11.5C201,461,151.8,413,108.9,359.9l-0.5-0.6c-21.9-28.6-37.8-54.4-48.6-79
			c-15-34-20.3-66.1-15.8-95.4c5.1-32.9,23.5-63.5,50.6-84c29.2-22.1,66.7-31.2,105.5-25.8l0.1,0c27.4,3.8,54.2,18.5,77.5,42.4
			c9.2,9.4,16.2,18.5,20.4,24.5c1.9,2.7,3.7,5.4,5.2,7.9c0.4,0.6,0.7,1.2,1,1.6l0.4,0.6l0.6-0.8l0.9-0.8c0.1-0.1,0.3-0.3,0.4-0.4
			c1.4-1.5,3.7-3.9,6.6-6.8c5.3-5.1,13.8-12.8,24.6-20.4c27.4-19.2,56.4-28.8,83.8-27.7l0.1,0c39.3,1.8,74.5,17.5,98.9,44.3
			c23.1,25.3,35.1,58.1,33.8,92.3c-2.5,66.9-52.7,120.5-96.2,159.6l-0.6,0.6c-52.1,44.3-109.5,82.4-170.6,113.2L270.2,513.9z
			 M156,322.6c35.8,44.4,76.4,84.8,120.8,120.6c50.4-27,97.9-59.3,141.5-96.3c32-28.8,74.4-72.2,76-117
			c1.3-35.2-24.1-72.1-75.2-74.4c-17.8-0.7-35.2,8.8-46.7,16.8c-7.6,5.3-13.6,10.7-17.3,14.3c-2,1.9-3.4,3.4-4.2,4.3
			c-0.2,0.2-0.4,0.4-0.5,0.5l-0.2,0.2l-1.5,1.7L294.7,258l-42.1-75.7c-0.1-0.2-0.2-0.4-0.4-0.7c-0.7-1.1-1.8-2.8-3.3-5
			c-2.9-4.2-7.8-10.5-14.2-17.1c-9.7-9.9-24.9-22.2-42.5-24.8l-0.6-0.1c-50.3-7-83,25.4-88.2,59.5c-2.7,17.8,1.1,38.7,11.4,62.1
			C123.7,276.2,137.1,297.9,156,322.6z M252.5,182c0,0,0,0.1,0.1,0.1L252.5,182z"/>
	</g>
</g>
<path class="st3" d="M479.2,568.9h27.9c6.7,0,12.5,1.3,17.6,3.8c5.1,2.5,9.1,6.1,11.9,10.7c2.9,4.6,4.3,10,4.3,16.1
	c0,6.1-1.4,11.5-4.3,16.1c-2.8,4.6-6.8,8.2-11.9,10.8c-5.1,2.5-11,3.8-17.6,3.8h-27.9V568.9z M506.3,618.5c6.1,0,11-1.7,14.6-5.1
	c3.7-3.4,5.5-8.1,5.5-13.9s-1.8-10.4-5.5-13.8c-3.6-3.4-8.5-5.2-14.6-5.2h-13v38H506.3z M573,630.8c-5,0-9.4-1-13.4-3.1
	c-3.9-2.1-7-5-9.2-8.7c-2.2-3.7-3.3-7.8-3.3-12.5c0-4.7,1.1-8.8,3.3-12.5c2.2-3.7,5.3-6.5,9.2-8.6c4-2.1,8.4-3.1,13.4-3.1
	c5,0,9.4,1,13.3,3.1c3.9,2,7,4.9,9.2,8.6c2.2,3.7,3.3,7.8,3.3,12.5c0,4.7-1.1,8.8-3.3,12.5c-2.2,3.7-5.3,6.6-9.2,8.7
	C582.5,629.8,578,630.8,573,630.8z M573,619.6c3.5,0,6.4-1.2,8.6-3.5c2.3-2.4,3.4-5.6,3.4-9.5c0-4-1.1-7.1-3.4-9.4
	c-2.2-2.4-5.1-3.6-8.6-3.6c-3.5,0-6.4,1.2-8.7,3.6c-2.3,2.3-3.4,5.5-3.4,9.4c0,4,1.1,7.1,3.4,9.5C566.7,618.5,569.5,619.6,573,619.6
	z M636.7,582.4c5.8,0,10.5,1.7,14.1,5.2c3.6,3.5,5.4,8.7,5.4,15.6v26.9h-13.7v-24.8c0-3.7-0.8-6.5-2.5-8.3c-1.6-1.9-4-2.8-7.1-2.8
	c-3.4,0-6.2,1.1-8.2,3.2c-2,2.1-3.1,5.2-3.1,9.4v23.3H608v-47.1h13.1v5.5c1.8-2,4.1-3.5,6.7-4.5
	C630.5,582.9,633.5,582.4,636.7,582.4z M666.6,568.9h11.7l-1,24.8h-9.8L666.6,568.9z M719.2,627.9c-1.3,1-3,1.7-5,2.3
	c-1.9,0.5-4,0.7-6.1,0.7c-5.6,0-10-1.4-13.1-4.3c-3-2.9-4.6-7.1-4.6-12.6v-19.3h-7.3v-10.5h7.3v-11.5h13.7v11.5h11.7v10.5h-11.7
	v19.2c0,2,0.5,3.5,1.5,4.6c1.1,1,2.5,1.6,4.4,1.6c2.2,0,4-0.6,5.5-1.7L719.2,627.9z M766.7,584.1h12.1v10.5H767v35.5h-13.7v-35.5
	h-7.3v-10.5h7.3V582c0-5.4,1.6-9.6,4.7-12.8c3.2-3.1,7.7-4.7,13.5-4.7c2,0,4,0.2,5.8,0.7c1.9,0.4,3.4,1,4.6,1.8l-3.6,9.9
	c-1.6-1.1-3.4-1.7-5.5-1.7c-4.1,0-6.2,2.3-6.2,6.8V584.1z M807.4,630.8c-5,0-9.4-1-13.4-3.1c-3.9-2.1-7-5-9.2-8.7
	c-2.2-3.7-3.3-7.8-3.3-12.5c0-4.7,1.1-8.8,3.3-12.5c2.2-3.7,5.3-6.5,9.2-8.6c4-2.1,8.4-3.1,13.4-3.1c5,0,9.4,1,13.3,3.1
	c3.9,2,7,4.9,9.2,8.6c2.2,3.7,3.3,7.8,3.3,12.5c0,4.7-1.1,8.8-3.3,12.5c-2.2,3.7-5.3,6.6-9.2,8.7
	C816.8,629.8,812.4,630.8,807.4,630.8z M807.4,619.6c3.5,0,6.4-1.2,8.6-3.5c2.3-2.4,3.4-5.6,3.4-9.5c0-4-1.1-7.1-3.4-9.4
	c-2.2-2.4-5.1-3.6-8.6-3.6c-3.5,0-6.4,1.2-8.7,3.6c-2.3,2.3-3.4,5.5-3.4,9.4c0,4,1.1,7.1,3.4,9.5C801,618.5,803.9,619.6,807.4,619.6
	z M855.5,589.3c1.6-2.3,3.8-4,6.6-5.2c2.8-1.2,6-1.7,9.6-1.7V595c-1.5-0.1-2.5-0.2-3.1-0.2c-3.9,0-7,1.1-9.2,3.3
	c-2.2,2.2-3.3,5.4-3.3,9.8v22.2h-13.7v-47.1h13.1V589.3z M928,583.1v39.2c0,8.6-2.2,15-6.7,19.2c-4.5,4.2-11.1,6.3-19.7,6.3
	c-4.6,0-8.9-0.6-13-1.7c-4.1-1.1-7.5-2.7-10.2-4.8l5.4-9.8c2,1.6,4.5,2.9,7.5,3.8c3,1,6.1,1.5,9.1,1.5c4.7,0,8.2-1.1,10.4-3.2
	c2.3-2.1,3.4-5.3,3.4-9.6v-2c-3.6,3.9-8.5,5.9-14.9,5.9c-4.3,0-8.3-0.9-11.9-2.8c-3.6-1.9-6.4-4.6-8.5-8c-2.1-3.4-3.2-7.4-3.2-11.9
	c0-4.5,1.1-8.5,3.2-11.9c2.1-3.4,4.9-6.1,8.5-8c3.6-1.9,7.6-2.9,11.9-2.9c6.8,0,12,2.2,15.6,6.7v-6H928z M902.2,616.7
	c3.6,0,6.6-1,8.9-3.1c2.3-2.2,3.5-5,3.5-8.4s-1.2-6.2-3.5-8.3c-2.3-2.2-5.2-3.2-8.9-3.2c-3.6,0-6.6,1.1-8.9,3.2
	c-2.3,2.1-3.5,4.9-3.5,8.3s1.2,6.2,3.5,8.4C895.6,615.6,898.5,616.7,902.2,616.7z M986.9,606.8c0,0.2-0.1,1.4-0.3,3.7H951
	c0.6,2.9,2.2,5.2,4.6,6.9c2.4,1.7,5.4,2.5,8.9,2.5c2.5,0,4.6-0.3,6.5-1c1.9-0.8,3.7-1.9,5.3-3.5l7.3,7.9c-4.4,5.1-10.9,7.6-19.5,7.6
	c-5.3,0-10-1-14.1-3.1c-4.1-2.1-7.2-5-9.5-8.7c-2.2-3.7-3.3-7.8-3.3-12.5c0-4.6,1.1-8.7,3.2-12.4c2.2-3.7,5.2-6.6,9-8.7
	c3.9-2.1,8.1-3.1,12.9-3.1c4.6,0,8.8,1,12.5,3c3.7,2,6.7,4.8,8.8,8.6C985.8,597.6,986.9,601.9,986.9,606.8z M962.5,592.7
	c-3.1,0-5.7,0.9-7.8,2.6c-2.1,1.8-3.4,4.1-3.9,7.2H974c-0.5-3-1.8-5.3-3.9-7.1C968.1,593.6,965.5,592.7,962.5,592.7z M1026.4,627.9
	c-1.3,1-3,1.7-5,2.3c-1.9,0.5-4,0.7-6.1,0.7c-5.6,0-10-1.4-13.1-4.3c-3-2.9-4.6-7.1-4.6-12.6v-19.3h-7.3v-10.5h7.3v-11.5h13.7v11.5
	h11.7v10.5h-11.7v19.2c0,2,0.5,3.5,1.5,4.6c1.1,1,2.5,1.6,4.4,1.6c2.2,0,4-0.6,5.5-1.7L1026.4,627.9z M1089.3,627.9
	c-1.3,1-3,1.7-5,2.3c-1.9,0.5-4,0.7-6.1,0.7c-5.6,0-10-1.4-13.1-4.3c-3-2.9-4.6-7.1-4.6-12.6v-19.3h-7.3v-10.5h7.3v-11.5h13.7v11.5
	h11.7v10.5h-11.7v19.2c0,2,0.5,3.5,1.5,4.6c1.1,1,2.5,1.6,4.4,1.6c2.2,0,4-0.6,5.5-1.7L1089.3,627.9z M1118,630.8
	c-5,0-9.4-1-13.4-3.1c-3.9-2.1-7-5-9.2-8.7c-2.2-3.7-3.3-7.8-3.3-12.5c0-4.7,1.1-8.8,3.3-12.5c2.2-3.7,5.3-6.5,9.2-8.6
	c4-2.1,8.4-3.1,13.4-3.1c5,0,9.4,1,13.3,3.1c3.9,2,7,4.9,9.2,8.6c2.2,3.7,3.3,7.8,3.3,12.5c0,4.7-1.1,8.8-3.3,12.5
	c-2.2,3.7-5.3,6.6-9.2,8.7C1127.4,629.8,1122.9,630.8,1118,630.8z M1118,619.6c3.5,0,6.4-1.2,8.6-3.5c2.3-2.4,3.4-5.6,3.4-9.5
	c0-4-1.1-7.1-3.4-9.4c-2.2-2.4-5.1-3.6-8.6-3.6c-3.5,0-6.4,1.2-8.7,3.6c-2.3,2.3-3.4,5.5-3.4,9.4c0,4,1.1,7.1,3.4,9.5
	C1111.6,618.5,1114.5,619.6,1118,619.6z M1176.4,568.9h20.7v45.2h27.7v16h-48.4V568.9z M1261.8,631.5c-6.6,0-12.5-1.4-17.8-4.1
	c-5.3-2.7-9.4-6.5-12.4-11.4c-3-4.9-4.5-10.4-4.5-16.5c0-6.1,1.5-11.6,4.5-16.4c3-4.9,7.1-8.7,12.4-11.5c5.3-2.7,11.2-4.1,17.8-4.1
	c6.6,0,12.5,1.4,17.8,4.1c5.3,2.7,9.4,6.6,12.4,11.5c3,4.8,4.5,10.3,4.5,16.4c0,6.1-1.5,11.6-4.5,16.5c-3,4.8-7.1,8.6-12.4,11.4
	C1274.4,630.2,1268.4,631.5,1261.8,631.5z M1261.8,614.8c2.6,0,4.9-0.6,6.9-1.8c2.1-1.3,3.8-3.1,5-5.3c1.2-2.3,1.8-5,1.8-8.1
	c0-3.1-0.6-5.8-1.8-8c-1.2-2.3-2.9-4.1-5-5.3c-2-1.3-4.4-1.9-6.9-1.9c-2.6,0-4.9,0.6-7,1.9c-2,1.2-3.7,3-4.9,5.3
	c-1.2,2.3-1.8,5-1.8,8c0,3.1,0.6,5.8,1.8,8.1c1.2,2.3,2.9,4.1,4.9,5.3C1256.9,614.2,1259.3,614.8,1261.8,614.8z M1367.3,568.9
	l-25.9,61.2H1321l-25.9-61.2h22.3l14.6,35.8l15-35.8H1367.3z M1420.3,614.6v15.6h-51v-61.2h49.9v15.6h-29.5v7.2h25.9v14.9h-25.9v8
	H1420.3z M642.9,690.3l-21.3,50c-2.2,5.4-4.8,9.2-8.1,11.5c-3.2,2.2-7,3.3-11.5,3.3c-2.5,0-4.9-0.4-7.3-1.1
	c-2.4-0.8-4.4-1.8-5.9-3.1l5-9.7c1.1,0.9,2.2,1.7,3.6,2.2c1.4,0.5,2.8,0.8,4.1,0.8c1.9,0,3.4-0.5,4.6-1.4c1.2-0.9,2.2-2.4,3.2-4.5
	l0.2-0.4l-20.4-47.4h14.1l13.2,31.9l13.3-31.9H642.9z M669.6,738.1c-5,0-9.4-1-13.4-3.1c-3.9-2.1-7-5-9.2-8.7
	c-2.2-3.7-3.3-7.8-3.3-12.5s1.1-8.8,3.3-12.5c2.2-3.7,5.3-6.5,9.2-8.6c4-2.1,8.4-3.1,13.4-3.1c5,0,9.4,1,13.3,3.1
	c3.9,2,7,4.9,9.2,8.6c2.2,3.7,3.3,7.8,3.3,12.5s-1.1,8.8-3.3,12.5c-2.2,3.7-5.3,6.6-9.2,8.7C679.1,737.1,674.6,738.1,669.6,738.1z
	 M669.6,726.9c3.5,0,6.4-1.2,8.6-3.5c2.3-2.4,3.4-5.6,3.4-9.5s-1.1-7.1-3.4-9.4c-2.2-2.4-5.1-3.6-8.6-3.6c-3.5,0-6.4,1.2-8.7,3.6
	c-2.3,2.3-3.4,5.5-3.4,9.4s1.1,7.1,3.4,9.5C663.3,725.7,666.1,726.9,669.6,726.9z M752.1,690.3v47.1h-13v-5.6c-1.8,2-4,3.6-6.5,4.7
	c-2.5,1-5.2,1.6-8.1,1.6c-6.2,0-11.1-1.8-14.7-5.3c-3.6-3.6-5.4-8.8-5.4-15.8v-26.6H718v24.6c0,7.6,3.2,11.4,9.6,11.4
	c3.3,0,5.9-1,7.9-3.1c2-2.2,3-5.3,3-9.5v-23.3H752.1z M777.8,696.5c1.6-2.3,3.8-4,6.6-5.2c2.8-1.2,6-1.7,9.6-1.7v12.6
	c-1.5-0.1-2.5-0.2-3.1-0.2c-3.9,0-7,1.1-9.2,3.3c-2.2,2.2-3.3,5.4-3.3,9.8v22.2h-13.7v-47.1h13.1V696.5z M850.1,738.1
	c-5,0-9.6-1-13.6-3.1c-4-2.1-7.1-5-9.4-8.7c-2.2-3.7-3.3-7.8-3.3-12.5s1.1-8.8,3.3-12.5c2.3-3.7,5.4-6.5,9.4-8.6
	c4-2.1,8.6-3.1,13.6-3.1c5,0,9.3,1,13,3.1c3.7,2,6.5,5,8.1,8.8l-10.6,5.7c-2.5-4.3-6-6.5-10.6-6.5c-3.6,0-6.5,1.2-8.9,3.5
	c-2.3,2.3-3.5,5.5-3.5,9.5c0,4,1.2,7.2,3.5,9.5c2.3,2.3,5.3,3.5,8.9,3.5c4.7,0,8.2-2.2,10.6-6.5l10.6,5.8c-1.7,3.7-4.4,6.6-8.1,8.7
	C859.4,737,855.1,738.1,850.1,738.1z M926.6,690.3v47.1h-13v-5.6c-1.8,2-4,3.6-6.5,4.7c-2.5,1-5.2,1.6-8.1,1.6
	c-6.2,0-11.1-1.8-14.7-5.3c-3.6-3.6-5.4-8.8-5.4-15.8v-26.6h13.7v24.6c0,7.6,3.2,11.4,9.6,11.4c3.3,0,5.9-1,7.9-3.1
	c2-2.2,3-5.3,3-9.5v-23.3H926.6z M955.1,738.1c-3.9,0-7.7-0.5-11.5-1.4c-3.7-1-6.7-2.2-8.9-3.7l4.6-9.8c2.1,1.3,4.6,2.4,7.6,3.3
	c3,0.8,5.9,1.2,8.8,1.2c5.8,0,8.7-1.4,8.7-4.3c0-1.3-0.8-2.3-2.4-2.9c-1.6-0.6-4-1.1-7.3-1.5c-3.9-0.6-7-1.3-9.6-2
	c-2.5-0.8-4.7-2.1-6.6-4c-1.8-1.9-2.7-4.7-2.7-8.2c0-3,0.8-5.6,2.5-7.9c1.8-2.3,4.3-4.1,7.5-5.4c3.3-1.3,7.2-1.9,11.7-1.9
	c3.3,0,6.6,0.4,9.9,1.1c3.3,0.7,6.1,1.7,8.2,3l-4.6,9.7c-4.1-2.3-8.7-3.5-13.6-3.5c-2.9,0-5.1,0.4-6.6,1.2c-1.5,0.8-2.2,1.9-2.2,3.1
	c0,1.5,0.8,2.5,2.4,3.1c1.6,0.6,4.1,1.1,7.5,1.7c3.9,0.6,7,1.3,9.5,2.1c2.5,0.7,4.6,2,6.4,3.9c1.8,1.9,2.7,4.6,2.7,8
	c0,2.9-0.9,5.5-2.6,7.8c-1.8,2.3-4.3,4.1-7.7,5.3C963.7,737.5,959.7,738.1,955.1,738.1z M1016.2,735.1c-1.3,1-3,1.7-5,2.3
	c-1.9,0.5-4,0.7-6.1,0.7c-5.6,0-10-1.4-13.1-4.3c-3-2.9-4.6-7.1-4.6-12.6v-19.3h-7.3v-10.5h7.3v-11.5h13.7v11.5h11.7v10.5h-11.7V721
	c0,2,0.5,3.5,1.5,4.6c1.1,1,2.5,1.6,4.4,1.6c2.2,0,4-0.6,5.5-1.7L1016.2,735.1z M1044.9,738.1c-5,0-9.4-1-13.4-3.1
	c-3.9-2.1-7-5-9.2-8.7c-2.2-3.7-3.3-7.8-3.3-12.5s1.1-8.8,3.3-12.5c2.2-3.7,5.3-6.5,9.2-8.6c4-2.1,8.4-3.1,13.4-3.1
	c5,0,9.4,1,13.3,3.1c3.9,2,7,4.9,9.2,8.6c2.2,3.7,3.3,7.8,3.3,12.5s-1.1,8.8-3.3,12.5c-2.2,3.7-5.3,6.6-9.2,8.7
	C1054.3,737.1,1049.8,738.1,1044.9,738.1z M1044.9,726.9c3.5,0,6.4-1.2,8.6-3.5c2.3-2.4,3.4-5.6,3.4-9.5s-1.1-7.1-3.4-9.4
	c-2.2-2.4-5.1-3.6-8.6-3.6c-3.5,0-6.4,1.2-8.7,3.6c-2.3,2.3-3.4,5.5-3.4,9.4s1.1,7.1,3.4,9.5
	C1038.5,725.7,1041.4,726.9,1044.9,726.9z M1140.2,689.6c5.9,0,10.6,1.7,14,5.2c3.5,3.4,5.3,8.6,5.3,15.6v26.9h-13.7v-24.8
	c0-3.7-0.8-6.5-2.4-8.3c-1.5-1.9-3.7-2.8-6.6-2.8c-3.2,0-5.8,1-7.6,3.1c-1.9,2-2.8,5.1-2.8,9.2v23.6h-13.7v-24.8
	c0-7.4-3-11.1-8.9-11.1c-3.2,0-5.7,1-7.5,3.1c-1.9,2-2.8,5.1-2.8,9.2v23.6h-13.7v-47.1h13.1v5.4c1.8-2,3.9-3.5,6.4-4.5
	c2.6-1,5.4-1.6,8.4-1.6c3.3,0,6.3,0.7,9,2c2.7,1.3,4.8,3.2,6.5,5.7c1.9-2.4,4.4-4.3,7.3-5.7C1133.5,690.3,1136.7,689.6,1140.2,689.6
	z M1218.5,714c0,0.2-0.1,1.4-0.3,3.7h-35.7c0.6,2.9,2.2,5.2,4.6,6.9c2.4,1.7,5.4,2.5,8.9,2.5c2.5,0,4.6-0.3,6.5-1
	c1.9-0.8,3.7-1.9,5.3-3.5l7.3,7.9c-4.4,5.1-10.9,7.6-19.5,7.6c-5.3,0-10-1-14.1-3.1c-4.1-2.1-7.2-5-9.5-8.7
	c-2.2-3.7-3.3-7.8-3.3-12.5c0-4.6,1.1-8.7,3.2-12.4c2.2-3.7,5.2-6.6,9-8.7c3.9-2.1,8.1-3.1,12.9-3.1c4.6,0,8.8,1,12.5,3
	c3.7,2,6.7,4.8,8.8,8.6C1217.4,704.9,1218.5,709.1,1218.5,714z M1194,700c-3.1,0-5.7,0.9-7.8,2.6c-2.1,1.8-3.4,4.1-3.9,7.2h23.2
	c-0.5-3-1.8-5.3-3.9-7.1C1199.6,700.9,1197,700,1194,700z M1240.6,696.5c1.6-2.3,3.8-4,6.6-5.2c2.8-1.2,6-1.7,9.6-1.7v12.6
	c-1.5-0.1-2.5-0.2-3.1-0.2c-3.9,0-7,1.1-9.2,3.3c-2.2,2.2-3.3,5.4-3.3,9.8v22.2h-13.7v-47.1h13.1V696.5z M1281,738.1
	c-3.9,0-7.7-0.5-11.5-1.4c-3.7-1-6.7-2.2-8.9-3.7l4.6-9.8c2.1,1.3,4.6,2.4,7.6,3.3c3,0.8,5.9,1.2,8.8,1.2c5.8,0,8.7-1.4,8.7-4.3
	c0-1.3-0.8-2.3-2.4-2.9c-1.6-0.6-4-1.1-7.3-1.5c-3.9-0.6-7-1.3-9.6-2c-2.5-0.8-4.7-2.1-6.6-4c-1.8-1.9-2.7-4.7-2.7-8.2
	c0-3,0.8-5.6,2.5-7.9c1.8-2.3,4.3-4.1,7.5-5.4c3.3-1.3,7.2-1.9,11.7-1.9c3.3,0,6.6,0.4,9.9,1.1c3.3,0.7,6.1,1.7,8.2,3l-4.6,9.7
	c-4.2-2.3-8.7-3.5-13.6-3.5c-2.9,0-5.1,0.4-6.6,1.2c-1.5,0.8-2.2,1.9-2.2,3.1c0,1.5,0.8,2.5,2.4,3.1c1.6,0.6,4.1,1.1,7.5,1.7
	c3.9,0.6,7,1.3,9.5,2.1c2.5,0.7,4.6,2,6.4,3.9c1.8,1.9,2.7,4.6,2.7,8c0,2.9-0.9,5.5-2.6,7.8c-1.8,2.3-4.3,4.1-7.7,5.3
	C1289.6,737.5,1285.6,738.1,1281,738.1z"/>
<g>
	<path class="st0" d="M682.5,992.3c-1.6-1.3-3.5-2.3-5.7-3.2c-2.3-0.9-4.7-1.6-7.5-2.4c-2.1-0.5-4-1-5.6-1.5c-1.6-0.5-3-1-4-1.6
		c-1-0.6-1.9-1.2-2.4-2c-0.5-0.8-0.8-1.7-0.8-2.9c0-2,0.7-3.6,2.2-4.7c1.5-1.1,3.7-1.7,6.8-1.7c1.7,0,3.3,0.2,5,0.6
		c1.6,0.4,3.1,0.9,4.5,1.6c1.4,0.6,2.6,1.2,3.6,1.9c1,0.6,1.7,1.1,2,1.5l4.9-8.9c-2.5-1.7-5.4-3.1-8.7-4.4c-3.3-1.2-7-1.9-11-1.9
		c-2.9,0-5.5,0.4-8,1.2c-2.5,0.8-4.7,1.9-6.6,3.4c-1.9,1.5-3.3,3.3-4.4,5.6s-1.6,4.8-1.6,7.6c0,2.2,0.3,4,1,5.6c0.7,1.6,1.7,3,3,4.1
		c1.3,1.2,3,2.2,5,3.1c2,0.9,4.3,1.7,7,2.4c2.2,0.6,4.2,1.2,6,1.7c1.8,0.5,3.3,1.1,4.6,1.7c1.3,0.6,2.3,1.4,3,2.2
		c0.7,0.9,1,1.9,1,3.1c0,3.8-3,5.8-9.1,5.8c-2.2,0-4.3-0.3-6.3-0.8c-2.1-0.5-3.9-1.2-5.6-1.9c-1.7-0.8-3.1-1.5-4.4-2.3
		c-1.2-0.8-2.1-1.4-2.6-1.9l-5,9.4c3.3,2.3,7,4.1,11.1,5.4c4.1,1.3,8.3,1.9,12.6,1.9c2.8,0,5.4-0.3,7.9-0.9c2.5-0.6,4.7-1.6,6.7-2.9
		c1.9-1.3,3.5-3.1,4.6-5.2c1.1-2.1,1.7-4.7,1.7-7.7c0-2.6-0.4-4.8-1.3-6.6C685.3,995.1,684.1,993.6,682.5,992.3z"/>
	<path class="st0" d="M732.6,982.4c-1.8-2-3.9-3.6-6.3-4.7s-5.1-1.7-8-1.7c-3.3,0-6.2,0.7-8.7,2.2c-2.5,1.4-4.6,3.4-6.1,5.9v-7.3
		h-9.6v49.3c0,6.1,4.9,10.9,11,10.9V1012c1.4,2.6,3.4,4.6,5.9,6.1c2.5,1.5,5.4,2.3,8.8,2.3c2.7,0,5.2-0.6,7.5-1.7
		c2.3-1.1,4.3-2.7,5.9-4.7c1.7-2,3-4.4,3.9-7.1c0.9-2.7,1.4-5.6,1.4-8.7c0-3-0.5-5.8-1.5-8.5C735.8,986.8,734.4,984.4,732.6,982.4z
		 M726.3,1002.9c-0.5,1.6-1.3,3-2.3,4.2c-1,1.2-2.2,2.1-3.6,2.9c-1.4,0.7-2.9,1-4.6,1c-2.3,0-4.5-0.8-6.5-2.4
		c-2-1.6-3.5-3.6-4.5-6.1v-10.1c0.4-1,0.9-2,1.7-2.9c0.7-0.9,1.6-1.6,2.5-2.3c0.9-0.7,1.9-1.2,3-1.5c1.1-0.3,2.1-0.5,3.2-0.5
		c1.7,0,3.3,0.3,4.7,1s2.7,1.6,3.8,2.7c1,1.1,1.9,2.5,2.5,4c0.6,1.6,0.9,3.2,0.9,5C727.1,999.7,726.8,1001.4,726.3,1002.9z"/>
	<path class="st0" d="M782,982.6c-1.9-2.1-4.3-3.6-7-4.9c-2.8-1.2-5.9-1.8-9.4-1.8c-3.5,0-6.6,0.6-9.4,1.8c-2.8,1.2-5.1,2.8-7.1,4.9
		c-1.9,2.1-3.4,4.4-4.5,7.1c-1,2.7-1.6,5.5-1.6,8.5c0,3,0.5,5.7,1.6,8.4c1,2.7,2.5,5,4.5,7.1c1.9,2.1,4.3,3.6,7.1,4.9
		c2.8,1.2,5.9,1.8,9.4,1.8c3.5,0,6.6-0.6,9.4-1.8c2.8-1.2,5.1-2.8,7-4.9c1.9-2.1,3.4-4.4,4.4-7.1c1-2.7,1.6-5.5,1.6-8.4
		c0-3-0.5-5.8-1.6-8.5C785.4,987,783.9,984.7,782,982.6z M775.9,1003.3c-0.6,1.6-1.4,3-2.4,4.1c-1,1.1-2.2,2-3.6,2.6
		c-1.4,0.6-2.8,0.9-4.4,0.9c-1.6,0-3.1-0.3-4.4-0.9s-2.6-1.5-3.6-2.6c-1-1.1-1.8-2.5-2.4-4c-0.6-1.6-0.9-3.3-0.9-5.2
		c0-1.9,0.3-3.6,0.9-5.2c0.6-1.6,1.4-3,2.4-4.1s2.2-2.1,3.6-2.7c1.4-0.7,2.8-1,4.4-1c1.6,0,3.1,0.3,4.4,0.9c1.4,0.6,2.6,1.5,3.6,2.6
		c1,1.1,1.8,2.5,2.4,4.1c0.6,1.6,0.9,3.3,0.9,5.2C776.8,1000,776.5,1001.7,775.9,1003.3z"/>
	<path class="st0" d="M854.9,989.6c2.8-3.4,4.4-7.7,4.4-12.2v-0.8h-35.5v9.2h21.6l-18.1,21.5c-2.8,3.4-4.4,7.7-4.4,12.2v0.8h36.8
		v-9.2h-22.8L854.9,989.6z"/>
	<path class="st0" d="M902.5,982.3c-1.9-2-4.3-3.6-7.1-4.9c-2.8-1.2-5.9-1.8-9.4-1.8c-3.5,0-6.7,0.6-9.5,1.8
		c-2.8,1.2-5.2,2.8-7.2,4.9c-2,2.1-3.5,4.5-4.5,7.1c-1,2.7-1.6,5.6-1.6,8.7c0,3,0.5,5.8,1.6,8.5c1,2.7,2.6,5,4.6,7.1
		c2,2,4.4,3.6,7.2,4.8c2.8,1.2,5.9,1.8,9.4,1.8c4.8,0,9-1,12.5-3.2c3.5-2.1,6-4.8,7.6-8.1l0.2-0.3l-9.9-2.8l-0.1,0.2
		c-0.7,1.7-1.9,3-3.8,4c-1.9,1-3.9,1.6-6,1.6c-1.4,0-2.7-0.2-4-0.7c-1.3-0.5-2.4-1.2-3.4-2.1c-1-0.9-1.8-2-2.4-3.3
		c-0.6-1.2-1-2.6-1.2-4.1h32.9l0-0.2c0.1-0.4,0.2-1,0.2-1.7c0-0.7,0-1.3,0-2.1c0-2.9-0.5-5.7-1.5-8.4
		C905.9,986.8,904.4,984.3,902.5,982.3z M875.1,994.1c0.1-1.4,0.5-2.7,1-3.9c0.6-1.2,1.4-2.4,2.3-3.3c0.9-0.9,2.1-1.6,3.3-2.1
		c1.2-0.5,2.6-0.7,4-0.7c2.9,0,5.4,0.9,7.4,2.8c1.9,1.8,3.1,4.2,3.4,7.2L875.1,994.1L875.1,994.1z"/>
	<path class="st0" d="M939.7,975.8c-0.3,0-0.7,0-1.4,0c-1.2,0-2.3,0.2-3.6,0.7c-1.2,0.5-2.4,1.1-3.7,2c-1.2,0.9-2.3,1.9-3.4,3.1
		c-1,1.2-1.9,2.5-2.7,4v-9h-10.1v32.7c0,6.1,4.9,11,11,11v-26.9c1.2-2.4,3-4.3,5.7-5.6c2.6-1.2,5.6-1.9,9-1.9v-10
		C940.3,975.9,940.1,975.8,939.7,975.8z"/>
	<path class="st0" d="M808.2,962.8h-11v13.9h-5.6v8.4h5.6v24.6c0,1.9,0.3,3.5,0.9,4.9c0.6,1.3,1.4,2.4,2.4,3.3
		c1,0.9,2.2,1.5,3.5,1.8c1.3,0.3,2.7,0.5,4.1,0.6v-35.1h9v-8.4h-9L808.2,962.8L808.2,962.8z"/>
	<path class="st0" d="M1106.1,982.5c-1.9-2-4.3-3.6-7-4.8c-2.8-1.2-5.9-1.8-9.4-1.8c-3.5,0-6.6,0.6-9.4,1.8
		c-2.8,1.2-5.2,2.8-7.2,4.9c-2,2.1-3.5,4.4-4.5,7.1c-1,2.7-1.6,5.6-1.6,8.6c0,3,0.5,5.7,1.6,8.4c1.1,2.7,2.6,5,4.5,7
		c2,2,4.4,3.6,7.1,4.8c2.8,1.2,5.9,1.7,9.3,1.7c4.8,0,8.9-1,12.4-3.1c3.5-2.1,6-4.8,7.6-8.1l-9.4-2.6c-0.7,1.7-2,3.1-4,4.2
		c-1.9,1-4,1.6-6.2,1.6c-1.4,0-2.8-0.2-4.1-0.7c-1.3-0.5-2.5-1.2-3.5-2.1c-1.1-0.9-1.9-2.1-2.5-3.3c-0.7-1.3-1-2.8-1.2-4.5h33.2
		c0.1-0.4,0.2-1,0.2-1.6c0-0.7,0-1.3,0-2.1c0-2.9-0.5-5.7-1.5-8.3C1109.5,986.9,1108.1,984.5,1106.1,982.5z M1078.5,994.5
		c0.1-1.6,0.5-3,1.1-4.3c0.6-1.3,1.4-2.4,2.4-3.3s2.1-1.6,3.4-2.2c1.3-0.5,2.6-0.8,4.1-0.8c3,0,5.6,1,7.7,2.9
		c2.1,1.9,3.3,4.5,3.6,7.7H1078.5z"/>
	<path class="st0" d="M1156.2,981.2c-0.9-1.6-2.3-2.9-3.9-3.8c-1.7-1-3.9-1.5-6.6-1.5c-3.8,0-7.2,0.8-10.2,2.3
		c-3,1.5-5.3,3.6-6.9,6.4v-7.9h-9.9v43.7h11v-25.9c0.4-1.3,1-2.5,1.8-3.6c0.8-1.1,1.8-2,2.8-2.8c1-0.8,2.1-1.4,3.2-1.8
		c1.2-0.4,2.3-0.7,3.3-0.7c2.1,0,3.8,0.8,5,2.4c1.2,1.6,1.8,4.1,1.8,7.5v24.9h11v-27.6c0-2.1-0.2-4.1-0.5-6.1
		C1157.8,984.6,1157.1,982.8,1156.2,981.2z"/>
	<path class="st0" d="M1193.8,1009.5c-1.7,1-3.5,1.5-5.4,1.5c-1.5,0-3-0.3-4.4-0.9c-1.4-0.6-2.6-1.5-3.6-2.6c-1-1.2-1.8-2.5-2.4-4.1
		c-0.6-1.6-0.9-3.3-0.9-5.2c0-1.9,0.3-3.6,0.9-5.2c0.6-1.6,1.4-3,2.4-4c1-1.1,2.2-2,3.6-2.6c1.4-0.6,2.8-0.9,4.4-0.9
		c1.9,0,3.5,0.4,5.1,1.3c1.5,0.9,2.8,2.1,3.7,3.6l10.7-3.3c-1.6-3.3-4.1-5.9-7.4-7.9c-3.3-2-7.3-3-12-3c-3.5,0-6.7,0.6-9.4,1.8
		c-2.8,1.2-5.2,2.8-7.1,4.8c-2,2-3.5,4.3-4.5,7c-1,2.7-1.6,5.5-1.6,8.5c0,3,0.5,5.8,1.6,8.5c1.1,2.7,2.6,5.1,4.6,7.1
		c2,2.1,4.4,3.6,7.1,4.9c2.8,1.2,5.9,1.8,9.4,1.8c4.7,0,8.8-1,12.2-3.1c3.4-2.1,5.8-4.7,7.3-8l-10.7-3.3
		C1196.6,1007.3,1195.4,1008.5,1193.8,1009.5z"/>
	<path class="st0" d="M997.8,978v6.2c-1.4-2.4-3.4-4.4-5.9-6c-2.5-1.5-5.4-2.3-8.6-2.3c-2.8,0-5.4,0.6-7.7,1.7
		c-2.3,1.2-4.4,2.7-6.1,4.7c-1.7,2-3,4.3-4,7c-1,2.7-1.4,5.6-1.4,8.7c0,3.1,0.5,6,1.5,8.7c1,2.7,2.4,5,4.2,7.1c1.8,2,4,3.6,6.5,4.7
		c2.5,1.2,5.2,1.7,8.2,1.7c3,0,5.8-0.7,8.5-2.1c1.9-1,3.5-2.3,4.8-3.8v5.1h11v-42.9h-11L997.8,978L997.8,978z M997.8,1003.8
		c-0.4,1-0.9,2-1.7,2.9c-0.7,0.9-1.6,1.6-2.5,2.3c-0.9,0.7-1.9,1.2-3,1.5c-1.1,0.3-2.2,0.5-3.2,0.5c-1.7,0-3.3-0.3-4.8-1
		s-2.7-1.6-3.7-2.7c-1-1.2-1.9-2.5-2.4-4c-0.6-1.5-0.9-3.2-0.9-5c0-1.7,0.3-3.3,0.8-4.9c0.5-1.6,1.3-3,2.3-4.2
		c1-1.2,2.2-2.2,3.6-2.9c1.4-0.7,2.9-1,4.5-1c1.1,0,2.2,0.2,3.3,0.7c1.1,0.4,2.2,1,3.2,1.7c1,0.7,1.9,1.6,2.7,2.6
		c0.8,1,1.4,2.1,1.8,3.3L997.8,1003.8L997.8,1003.8z"/>
	<path class="st0" d="M1050.5,984.2c-1.7-2.5-3.8-4.6-6.3-6.1c-2.5-1.5-5.5-2.3-8.9-2.3c-3,0-5.7,0.6-8.2,1.7
		c-2.5,1.2-4.6,2.8-6.4,4.8c-1.8,2.1-3.1,4.4-4.2,7.1c-1,2.7-1.5,5.6-1.5,8.8c0,3,0.5,5.8,1.4,8.5c0.9,2.6,2.3,5,4,7
		c1.8,2,3.8,3.6,6.2,4.8c2.4,1.2,5,1.7,8,1.7c3,0,5.8-0.7,8.4-2c2.6-1.4,4.6-3.3,6.1-5.7v3.8c0,2.1-0.3,3.9-1,5.5
		c-0.7,1.6-1.6,2.8-2.9,3.8c-1.2,1-2.6,1.7-4.2,2.2c-1.4,0.4-2.9,0.7-4.4,0.7c-4.3-0.2-8.8-1.9-11.7-4.3l-0.3,0.5l-0.7,1.2l-1.9,3.3
		l-1.4,2.6c0.5,0.3,0.9,0.7,1.4,1c2.2,1.4,4.8,2.4,7.7,3.1c2,0.5,4.2,0.8,6.6,0.9c0.1,0,0.2,0,0.2,0c3.2,0,6.3-0.5,9-1.4
		c3-0.9,5.5-2.3,7.6-4.1c2.1-1.8,3.8-3.9,5-6.4c1.2-2.5,1.8-5.4,1.8-8.6v-39.8h-9.7V984.2z M1049.1,1004c-0.4,1-0.9,1.9-1.7,2.8
		c-0.7,0.9-1.6,1.7-2.5,2.3c-0.9,0.7-2,1.2-3.1,1.6c-1.1,0.4-2.3,0.6-3.5,0.6c-1.7,0-3.3-0.3-4.7-1c-1.4-0.7-2.7-1.6-3.8-2.7
		c-1.1-1.2-1.9-2.5-2.5-4.1c-0.6-1.6-0.9-3.2-0.9-5c0-1.7,0.3-3.4,0.8-5c0.5-1.6,1.3-3,2.3-4.3c1-1.2,2.2-2.3,3.6-3
		c1.4-0.7,2.9-1.1,4.7-1.1c2.3,0,4.5,0.8,6.7,2.3c2.1,1.6,3.7,3.6,4.7,6.1L1049.1,1004L1049.1,1004z"/>
	<path class="st0" d="M1246.2,976.7v23c0,8.2-3.1,12-9.1,12c-5.7,0-10.6-3.3-10.6-10.8v-24.1h-11.3v23.8c0,13.8,7.9,20,19,20
		c5.1,0,8.3-1.7,11.7-5.1c0,1.6-0.2,3.1-0.5,4.5c-0.1,0.8-0.4,1.5-0.7,2.1c-0.7,1.5-1.6,2.8-2.8,3.8c-1.2,1-2.6,1.7-4.1,2.2
		c-1.4,0.4-2.9,0.6-4.4,0.7c-4.3-0.2-8.7-1.9-11.5-4.2l-0.3,0.5l-0.7,1.2l-1.8,3.3l-1.4,2.6c0.4,0.3,0.9,0.7,1.4,1
		c2.2,1.4,4.8,2.4,7.6,3.1c2,0.5,4.2,0.8,6.5,0.9c0.1,0,0.2,0,0.2,0c3.2,0,6.2-0.5,8.9-1.4c2.9-0.9,5.4-2.3,7.5-4
		c2.1-1.7,3.8-3.9,4.9-6.4c0.8-1.6,1.3-3.4,1.6-5.2c0.2-2,0.2-4,0.2-6.3v-36.9L1246.2,976.7L1246.2,976.7z"/>
</g>
<g>
	<g>
		<path class="st4" d="M1857.1,1216.7l-18.4,4.2c-66.5,15.4-134.7,22.7-202.9,21.9l-0.7,0c-36-1.3-66-5.5-91.8-12.8
			c-35.8-10.1-63.9-26.4-83.6-48.5c-22.2-24.8-34.1-58.5-32.7-92.4c1.5-36.6,18.3-71.2,47.1-97.6l0.1-0.1
			c20.3-18.6,48.7-30,81.9-32.8c13.1-1.1,24.6-0.7,31.9-0.1c3.3,0.3,6.5,0.6,9.4,1c0.8,0.1,1.4,0.2,1.9,0.3l0.8,0.1l-0.2-0.9l0-1.2
			c0-0.2-0.1-0.4-0.1-0.6c-0.3-2-0.7-5.3-1-9.4c-0.6-7.3-1.1-18.8-0.1-32c2.6-33.4,13.6-61.8,31.8-82.2l0.1-0.1
			c26.4-29.2,60.8-46.2,96.9-48c34.1-1.7,67.1,9.9,92.7,32.7c50.1,44.5,59.5,117.2,62.1,175.6l0,0.9c1.1,68.3-6,136.8-21,203.4
			L1857.1,1216.7z M1636.9,1182.8c57,0.7,114-4.8,169.8-16.3c11.2-56,16.5-113.2,15.6-170.3c-1.9-42.9-8.4-103.2-42-133
			c-26.3-23.4-70.9-27.3-105.2,10.6c-11.8,13.2-15.6,32.7-16.7,46.7c-0.7,9.2-0.4,17.3,0.1,22.4c0.2,2.7,0.5,4.8,0.7,6
			c0,0.3,0.1,0.5,0.1,0.7l0,0.3l0.4,2.2l15.5,82.8l-85.1-15.8c-0.2,0-0.5-0.1-0.8-0.1c-1.2-0.2-3.3-0.4-5.9-0.6
			c-5.1-0.4-13-0.7-22.2,0.1c-13.8,1.2-33,5-46.2,17l-0.4,0.4c-37.4,34.3-33.1,80.1-10.2,105.8c12,13.5,30.6,23.8,55.2,30.7
			C1580.6,1178.2,1606,1181.7,1636.9,1182.8z M1589.8,1019.1c0,0,0.1,0,0.1,0L1589.8,1019.1z"/>
	</g>
</g>
</svg>
