<?xml version="1.0" encoding="utf-8"?>
<!-- Generator: Adobe Illustrator 26.2.1, SVG Export Plug-In . SVG Version: 6.00 Build 0)  -->
<svg version="1.1" id="Layer_1" xmlns="http://www.w3.org/2000/svg" xmlns:xlink="http://www.w3.org/1999/xlink" x="0px" y="0px"
	 viewBox="0 0 526.5 600" style="enable-background:new 0 0 526.5 600;" xml:space="preserve">
<style type="text/css">
	.st0{fill:#0000FF;}
	.st1{opacity:0.7;fill:url(#SVGID_1_);enable-background:new    ;}
	.st2{opacity:0.7;fill:url(#SVGID_00000097499834854754446160000017879178608153642682_);enable-background:new    ;}
	.st3{fill:url(#SVGID_00000003789293343227136140000001009897342552270476_);}
	.st4{fill:url(#SVGID_00000181781905476430950820000004110189505579058093_);}
	.st5{fill:url(#SVGID_00000128487416350791749370000017724357215987942056_);}
	.st6{opacity:0.7;fill:url(#SVGID_00000095307176524918044720000011504801207823458208_);enable-background:new    ;}
	.st7{opacity:0.7;fill:url(#SVGID_00000114754769268749194200000014236983217805283975_);enable-background:new    ;}
	.st8{fill:url(#SVGID_00000025400590038018075240000014774148971772963990_);}
	.st9{fill:url(#SVGID_00000049186774684834312890000014200133201984863892_);}
	.st10{fill:url(#SVGID_00000039108079903290964020000012317079014660753340_);}
	.st11{fill:#FFFFFF;}
</style>
<rect x="34.2" y="39.5" class="st0" width="375.2" height="432.2"/>
<g>
	<g>
		
			<linearGradient id="SVGID_1_" gradientUnits="userSpaceOnUse" x1="-1328.3604" y1="-8590.3135" x2="-1073.4196" y2="-8590.3135" gradientTransform="matrix(1 0 0 1 1558.1277 9028.8506)">
			<stop  offset="0" style="stop-color:#478CCA;stop-opacity:0.3"/>
			<stop  offset="1" style="stop-color:#000725;stop-opacity:0.58"/>
		</linearGradient>
		<path class="st1" d="M459.9,365.7c0.9,0.2,1.9,0.2,2.9,0.2c12,0,22-9.8,22-22c0-12-9.8-22-22-22h-8.2
			c-124.9,4.5-224.8,107-224.8,232.9c0,0.1,0,0.2,0,0.2h43.7c0-0.1,0-0.2,0-0.2C273.5,451.2,356.7,367.3,459.9,365.7z"/>
		
			<linearGradient id="SVGID_00000076574723773411516200000005751773426558781071_" gradientUnits="userSpaceOnUse" x1="-1255.5638" y1="-8553.8643" x2="-1073.4196" y2="-8553.8643" gradientTransform="matrix(1 0 0 1 1558.1277 9028.8506)">
			<stop  offset="0" style="stop-color:#478CCA;stop-opacity:0.3"/>
			<stop  offset="1" style="stop-color:#000725;stop-opacity:0.58"/>
		</linearGradient>
		<path style="opacity:0.7;fill:url(#SVGID_00000076574723773411516200000005751773426558781071_);enable-background:new    ;" d="
			M462.8,395v-0.2c-88.4,0-160.2,71.7-160.2,160.2c0,0.1,0,0.2,0,0.2h43.7c0-0.1,0-0.2,0-0.2c0-63.3,50.4-114.8,113.3-116.4
			c1,0.2,2.1,0.2,3.2,0.2c12,0,22-9.8,22-22C484.6,404.8,474.8,395,462.8,395z"/>
		
			<linearGradient id="SVGID_00000101802519975309754630000014198927926168439223_" gradientUnits="userSpaceOnUse" x1="-1213.3459" y1="-8448.3076" x2="-1213.3459" y2="-8641.1895" gradientTransform="matrix(1 0 0 1 1558.1277 9028.8506)">
			<stop  offset="0" style="stop-color:#243A7A"/>
			<stop  offset="1" style="stop-color:#242448"/>
		</linearGradient>
		<path style="fill:url(#SVGID_00000101802519975309754630000014198927926168439223_);" d="M387,457.1c0-12-9.8-22-22-22
			c-6.9,0-13.1,3.3-17.1,8.2c-28.1,28.8-45.4,68.2-45.4,111.7c0,12,9.8,22,22,22c12,0,22-9.8,22-22c0-0.4,0-0.8-0.1-1.1
			c0.3-31.8,13.3-60.4,34.2-81.3C384.4,468.6,387,463.2,387,457.1z"/>
		
			<linearGradient id="SVGID_00000107575516254653263730000013841882351079738295_" gradientUnits="userSpaceOnUse" x1="-1275.5242" y1="-8448.3076" x2="-1275.5242" y2="-8641.4785" gradientTransform="matrix(1 0 0 1 1558.1277 9028.8506)">
			<stop  offset="0" style="stop-color:#243A7A"/>
			<stop  offset="1" style="stop-color:#242448"/>
		</linearGradient>
		<path style="fill:url(#SVGID_00000107575516254653263730000013841882351079738295_);" d="M328.1,422c4.5-4,7.4-9.8,7.4-16.2
			c0-12-9.8-22-22-22c-6,0-11.5,2.5-15.5,6.4l0,0c-42.2,42.2-68.2,100.4-68.2,164.8c0,12,9.8,22,22,22c12,0,22-9.8,22-22
			c0-0.4,0-0.7-0.1-1.1C273.9,502.6,294.6,456,328.1,422z"/>
		
			<linearGradient id="SVGID_00000083089419625238702420000011618350863586429854_" gradientUnits="userSpaceOnUse" x1="-1255.3596" y1="-8522.9795" x2="-1171.026" y2="-8522.9795" gradientTransform="matrix(1 0 0 1 1558.1277 9028.8506)">
			<stop  offset="0" style="stop-color:#243A7A"/>
			<stop  offset="1" style="stop-color:#242448"/>
		</linearGradient>
		<path style="fill:url(#SVGID_00000083089419625238702420000011618350863586429854_);" d="M387.1,457c0-12-9.8-22-22-22
			c-6.8,0-12.9,3.2-16.8,8c-28.2,28.9-45.5,68.3-45.5,111.8c0,12,9.8,22,22,22c12,0,22-9.8,22-22c0-0.5-0.1-0.9-0.1-1.3
			c0.4-31.7,13.4-60.3,34.2-81.1C384.7,468.5,387.1,463,387.1,457z"/>
	</g>
	<g>
		
			<linearGradient id="SVGID_00000011737973877814627350000011113792508500900543_" gradientUnits="userSpaceOnUse" x1="2388.5237" y1="-3113.5266" x2="2643.4646" y2="-3113.5266" gradientTransform="matrix(-1 0 0 -1 2754.585 -2814.0532)">
			<stop  offset="0" style="stop-color:#478CCA;stop-opacity:0.3"/>
			<stop  offset="1" style="stop-color:#000725;stop-opacity:0.58"/>
		</linearGradient>
		<path style="opacity:0.7;fill:url(#SVGID_00000011737973877814627350000011113792508500900543_);enable-background:new    ;" d="
			M135.9,372.3c-0.9-0.2-1.9-0.2-2.9-0.2c-12,0-22,9.8-22,22c0,12,9.8,22,22,22h8.2c124.9-4.5,224.8-107,224.8-232.9
			c0-0.1,0-0.2,0-0.2h-43.7c0,0.1,0,0.2,0,0.2C322.4,286.8,239.2,370.7,135.9,372.3z"/>
		
			<linearGradient id="SVGID_00000137104671252453278770000015041921223881167006_" gradientUnits="userSpaceOnUse" x1="2461.3203" y1="-3077.0774" x2="2643.4646" y2="-3077.0774" gradientTransform="matrix(-1 0 0 -1 2754.585 -2814.0532)">
			<stop  offset="0" style="stop-color:#478CCA;stop-opacity:0.3"/>
			<stop  offset="1" style="stop-color:#000725;stop-opacity:0.58"/>
		</linearGradient>
		<path style="opacity:0.7;fill:url(#SVGID_00000137104671252453278770000015041921223881167006_);enable-background:new    ;" d="
			M133.1,343v0.2c88.4,0,160.2-71.7,160.2-160.2c0-0.1,0-0.2,0-0.2h-43.7c0,0.1,0,0.2,0,0.2c0,63.3-50.4,114.8-113.3,116.4
			c-1-0.2-2.1-0.2-3.2-0.2c-12,0-22,9.8-22,22C111.2,333.2,121,343,133.1,343z"/>
		
			<linearGradient id="SVGID_00000057142762040805873260000001626434379700154003_" gradientUnits="userSpaceOnUse" x1="2503.5381" y1="-2971.5205" x2="2503.5381" y2="-3164.4023" gradientTransform="matrix(-1 0 0 -1 2754.585 -2814.0532)">
			<stop  offset="0" style="stop-color:#243A7A"/>
			<stop  offset="1" style="stop-color:#242448"/>
		</linearGradient>
		<path style="fill:url(#SVGID_00000057142762040805873260000001626434379700154003_);" d="M208.8,280.9c0,12,9.8,22,22,22
			c6.9,0,13.1-3.3,17.1-8.2c28.1-28.8,45.4-68.2,45.4-111.7c0-12-9.8-22-22-22c-12,0-22,9.8-22,22c0,0.4,0,0.8,0.1,1.1
			c-0.3,31.8-13.3,60.4-34.2,81.3C211.4,269.4,208.8,274.8,208.8,280.9z"/>
		
			<linearGradient id="SVGID_00000182495581831821198350000012202200822928848523_" gradientUnits="userSpaceOnUse" x1="2441.3599" y1="-2971.5205" x2="2441.3599" y2="-3164.6914" gradientTransform="matrix(-1 0 0 -1 2754.585 -2814.0532)">
			<stop  offset="0" style="stop-color:#243A7A"/>
			<stop  offset="1" style="stop-color:#242448"/>
		</linearGradient>
		<path style="fill:url(#SVGID_00000182495581831821198350000012202200822928848523_);" d="M267.7,316c-4.5,4-7.4,9.8-7.4,16.2
			c0,12,9.8,22,22,22c6,0,11.5-2.5,15.5-6.4l0,0c42.2-42.2,68.2-100.4,68.2-164.8c0-12-9.8-22-22-22c-12,0-22,9.8-22,22
			c0,0.4,0,0.7,0.1,1.1C322,235.4,301.2,282,267.7,316z"/>
		
			<linearGradient id="SVGID_00000088103177698250912120000017454041803539487376_" gradientUnits="userSpaceOnUse" x1="2461.5244" y1="-3046.1926" x2="2545.8582" y2="-3046.1926" gradientTransform="matrix(-1 0 0 -1 2754.585 -2814.0532)">
			<stop  offset="0" style="stop-color:#243A7A"/>
			<stop  offset="1" style="stop-color:#242448"/>
		</linearGradient>
		<path style="fill:url(#SVGID_00000088103177698250912120000017454041803539487376_);" d="M208.7,281c0,12,9.8,22,22,22
			c6.8,0,12.9-3.2,16.8-8c28.2-28.9,45.5-68.3,45.5-111.8c0-12-9.8-22-22-22c-12,0-22,9.8-22,22c0,0.5,0.1,0.9,0.1,1.3
			c-0.4,31.7-13.4,60.3-34.2,81.1C211.2,269.5,208.7,275,208.7,281z"/>
	</g>
</g>
<g>
	<path class="st11" d="M192.7,215.3h-31.6v-27.5h31.6V215.3z M163.1,213.3h27.6v-23.5h-27.6V213.3z"/>
</g>
<g>
	<path class="st11" d="M480.1,274.5h-31.6V247h31.6V274.5z M450.4,272.5h27.6V249h-27.6V272.5z"/>
</g>
<g>
	<g>
		<path class="st11" d="M130.1,474.5H98.5v-27.4h31.6V474.5z M100.5,472.5h27.6v-23.4h-27.6V472.5z"/>
	</g>
	<g>
		<path class="st11" d="M158.9,499.6h-31.6v-27.4h31.6V499.6z M129.3,497.6h27.6v-23.4h-27.6V497.6z"/>
	</g>
	<g>
		<path class="st11" d="M130.1,524H98.5v-27.4h31.6V524z M100.5,522h27.6v-23.4h-27.6V522z"/>
	</g>
</g>
</svg>
