<?xml version="1.0" encoding="utf-8"?>
<!-- Generator: Adobe Illustrator 26.2.1, SVG Export Plug-In . SVG Version: 6.00 Build 0)  -->
<svg version="1.1" id="Layer_1" xmlns="http://www.w3.org/2000/svg" xmlns:xlink="http://www.w3.org/1999/xlink" x="0px" y="0px"
	 viewBox="0 0 455 600" style="enable-background:new 0 0 455 600;" xml:space="preserve">
<style type="text/css">
	.st0{fill-rule:evenodd;clip-rule:evenodd;fill:#D14F27;}
	.st1{fill:#0000C4;}
	.st2{fill:#FFFFFF;}
	.st3{fill-rule:evenodd;clip-rule:evenodd;fill:#040433;}
</style>
<path class="st0" d="M452.9,0h-80.6c0,0.9,0,1.7,0,2.6c0,79.6-64.6,144.2-144.2,144.2S84,82.2,84,2.6c0-0.9,0-1.7,0-2.6H3.4
	c0,0.9,0,1.7,0,2.6c0,124.1,100.6,224.8,224.7,224.8S452.9,126.7,452.9,2.6C452.9,1.7,452.9,0.9,452.9,0z"/>
<rect x="109.1" y="438.5" class="st1" width="238.2" height="161.5"/>
<g>
	<path class="st2" d="M352.7,469.3c-25.8,0-46.8-21-46.8-46.8s21-46.8,46.8-46.8s46.8,21,46.8,46.8S378.5,469.3,352.7,469.3z
		 M352.7,377.7c-24.7,0-44.8,20.1-44.8,44.8c0,24.7,20.1,44.8,44.8,44.8c24.7,0,44.8-20.1,44.8-44.8
		C397.5,397.8,377.4,377.7,352.7,377.7z"/>
</g>
<g>
	<path class="st2" d="M67.2,302.4v8.8h-5.7v-8.9l-9.6-16.1H58l6.6,11.1l6.6-11.1h5.6L67.2,302.4z"/>
	<path class="st2" d="M85.8,311.6c-2,0-3.8-0.4-5.4-1.2c-1.6-0.9-2.8-2-3.7-3.5c-0.9-1.5-1.3-3.2-1.3-5.1c0-1.9,0.4-3.6,1.3-5.1
		c0.9-1.5,2.1-2.7,3.7-3.5c1.6-0.9,3.4-1.3,5.4-1.3c2,0,3.8,0.4,5.4,1.3c1.6,0.8,2.8,2,3.7,3.5c0.9,1.5,1.3,3.2,1.3,5.1
		c0,1.9-0.4,3.6-1.3,5.1c-0.9,1.5-2.1,2.7-3.7,3.5C89.5,311.2,87.8,311.6,85.8,311.6z M85.8,307c1.4,0,2.6-0.5,3.5-1.4
		c0.9-1,1.4-2.3,1.4-3.9c0-1.6-0.5-2.9-1.4-3.9c-0.9-1-2-1.5-3.5-1.5c-1.4,0-2.6,0.5-3.5,1.5c-0.9,1-1.4,2.2-1.4,3.9
		c0,1.6,0.5,2.9,1.4,3.9C83.2,306.5,84.3,307,85.8,307z"/>
	<path class="st2" d="M119,292.1v19.2h-5.2V309c-0.7,0.8-1.6,1.5-2.6,1.9c-1,0.4-2.1,0.6-3.3,0.6c-2.5,0-4.5-0.7-5.9-2.2
		c-1.5-1.5-2.2-3.6-2.2-6.5v-10.8h5.5v10c0,3.1,1.3,4.6,3.8,4.6c1.3,0,2.4-0.4,3.2-1.3c0.8-0.9,1.2-2.2,1.2-3.9v-9.5H119z"/>
	<path class="st2" d="M140.5,311.6c-1.6,0-3.1-0.2-4.6-0.6c-1.5-0.4-2.7-0.9-3.6-1.5l1.8-4c0.8,0.5,1.9,1,3.1,1.4
		c1.2,0.3,2.4,0.5,3.5,0.5c2.3,0,3.5-0.6,3.5-1.7c0-0.5-0.3-0.9-1-1.2c-0.6-0.2-1.6-0.4-2.9-0.6c-1.6-0.2-2.8-0.5-3.8-0.8
		c-1-0.3-1.9-0.9-2.6-1.6c-0.7-0.8-1.1-1.9-1.1-3.4c0-1.2,0.3-2.3,1-3.2c0.7-1,1.7-1.7,3-2.2c1.3-0.5,2.9-0.8,4.7-0.8
		c1.3,0,2.7,0.2,4,0.5c1.3,0.3,2.4,0.7,3.3,1.2l-1.8,4c-1.7-1-3.5-1.4-5.5-1.4c-1.2,0-2.1,0.2-2.6,0.5c-0.6,0.3-0.9,0.8-0.9,1.3
		c0,0.6,0.3,1,1,1.2c0.6,0.2,1.6,0.5,3,0.7c1.6,0.3,2.8,0.5,3.8,0.9c1,0.3,1.8,0.8,2.6,1.6c0.7,0.8,1.1,1.9,1.1,3.3
		c0,1.2-0.4,2.2-1.1,3.2c-0.7,0.9-1.7,1.7-3.1,2.2C143.9,311.3,142.3,311.6,140.5,311.6z"/>
	<path class="st2" d="M171.5,301.8c0,0.1,0,0.6-0.1,1.5H157c0.3,1.2,0.9,2.1,1.8,2.8c1,0.7,2.2,1,3.6,1c1,0,1.9-0.1,2.6-0.4
		c0.8-0.3,1.5-0.8,2.2-1.4l2.9,3.2c-1.8,2.1-4.4,3.1-7.8,3.1c-2.1,0-4-0.4-5.7-1.2c-1.6-0.9-2.9-2-3.8-3.5c-0.9-1.5-1.3-3.2-1.3-5.1
		c0-1.9,0.4-3.6,1.3-5.1c0.9-1.5,2.1-2.7,3.6-3.5c1.6-0.9,3.3-1.3,5.2-1.3c1.9,0,3.5,0.4,5,1.2c1.5,0.8,2.7,2,3.5,3.5
		C171,298,171.5,299.8,171.5,301.8z M161.6,296c-1.2,0-2.3,0.4-3.1,1.1c-0.8,0.7-1.4,1.7-1.6,2.9h9.4c-0.2-1.2-0.7-2.2-1.6-2.9
		C163.9,296.4,162.8,296,161.6,296z"/>
	<path class="st2" d="M175.1,284.8h5.5v26.5h-5.5V284.8z"/>
	<path class="st2" d="M185.7,284.8h5.5v26.5h-5.5V284.8z"/>
	<path class="st2" d="M198.5,304.7c1,0,1.8,0.3,2.4,1c0.6,0.6,1,1.4,1,2.5c0,0.5-0.1,1-0.2,1.4c-0.1,0.5-0.4,1.2-0.8,2.1l-2,5.1
		h-3.5l1.6-5.7c-0.6-0.2-1.1-0.6-1.4-1.1c-0.3-0.5-0.5-1.2-0.5-1.9c0-1,0.3-1.8,1-2.5C196.7,305,197.5,304.7,198.5,304.7z"/>
	<path class="st2" d="M246.1,292.1l-6.9,19.2h-5.3l-4.3-11.9l-4.4,11.9H220l-6.9-19.2h5.2l4.5,13l4.7-13h4.7l4.5,13l4.6-13H246.1z"
		/>
	<path class="st2" d="M266.8,301.8c0,0.1,0,0.6-0.1,1.5h-14.4c0.3,1.2,0.9,2.1,1.8,2.8c1,0.7,2.2,1,3.6,1c1,0,1.9-0.1,2.6-0.4
		c0.8-0.3,1.5-0.8,2.2-1.4l2.9,3.2c-1.8,2.1-4.4,3.1-7.8,3.1c-2.1,0-4-0.4-5.7-1.2c-1.6-0.9-2.9-2-3.8-3.5c-0.9-1.5-1.3-3.2-1.3-5.1
		c0-1.9,0.4-3.6,1.3-5.1c0.9-1.5,2.1-2.7,3.6-3.5c1.6-0.9,3.3-1.3,5.2-1.3c1.9,0,3.5,0.4,5,1.2c1.5,0.8,2.7,2,3.5,3.5
		C266.3,298,266.8,299.8,266.8,301.8z M256.9,296c-1.2,0-2.3,0.4-3.1,1.1c-0.8,0.7-1.4,1.7-1.6,2.9h9.4c-0.2-1.2-0.7-2.2-1.6-2.9
		C259.2,296.4,258.1,296,256.9,296z"/>
	<path class="st2" d="M299.8,284.8v26.5h-5.3v-2.2c-1.4,1.7-3.3,2.5-5.9,2.5c-1.8,0-3.4-0.4-4.9-1.2c-1.4-0.8-2.6-2-3.4-3.5
		c-0.8-1.5-1.2-3.2-1.2-5.2s0.4-3.7,1.2-5.2c0.8-1.5,2-2.7,3.4-3.5c1.5-0.8,3.1-1.2,4.9-1.2c2.4,0,4.3,0.8,5.7,2.3v-9.3H299.8z
		 M289.5,307c1.4,0,2.5-0.5,3.5-1.4c0.9-1,1.4-2.3,1.4-3.9c0-1.6-0.5-2.9-1.4-3.9c-0.9-1-2.1-1.5-3.5-1.5c-1.4,0-2.6,0.5-3.5,1.5
		c-0.9,1-1.4,2.2-1.4,3.9c0,1.6,0.5,2.9,1.4,3.9C287,306.5,288.1,307,289.5,307z"/>
	<path class="st2" d="M323.5,301.8c0,0.1,0,0.6-0.1,1.5H309c0.3,1.2,0.9,2.1,1.8,2.8c1,0.7,2.2,1,3.6,1c1,0,1.9-0.1,2.6-0.4
		c0.8-0.3,1.5-0.8,2.2-1.4l2.9,3.2c-1.8,2.1-4.4,3.1-7.8,3.1c-2.1,0-4-0.4-5.7-1.2c-1.6-0.9-2.9-2-3.8-3.5c-0.9-1.5-1.3-3.2-1.3-5.1
		c0-1.9,0.4-3.6,1.3-5.1c0.9-1.5,2.1-2.7,3.6-3.5c1.6-0.9,3.3-1.3,5.2-1.3c1.9,0,3.5,0.4,5,1.2c1.5,0.8,2.7,2,3.5,3.5
		C323.1,298,323.5,299.8,323.5,301.8z M313.6,296c-1.2,0-2.3,0.4-3.1,1.1c-0.8,0.7-1.4,1.7-1.6,2.9h9.4c-0.2-1.2-0.7-2.2-1.6-2.9
		C315.9,296.4,314.9,296,313.6,296z"/>
	<path class="st2" d="M327.2,284.8h5.5v26.5h-5.5V284.8z"/>
	<path class="st2" d="M337.8,292.1h5.5v19.2h-5.5V292.1z M340.5,289.4c-1,0-1.8-0.3-2.5-0.9c-0.6-0.6-1-1.3-1-2.2
		c0-0.9,0.3-1.6,1-2.2c0.6-0.6,1.5-0.9,2.5-0.9s1.8,0.3,2.5,0.9c0.6,0.6,1,1.3,1,2.1c0,0.9-0.3,1.7-1,2.3
		C342.4,289.1,341.5,289.4,340.5,289.4z"/>
	<path class="st2" d="M367.3,292.1l-8,19.2h-5.7l-8-19.2h5.7l5.3,13.1l5.4-13.1H367.3z"/>
	<path class="st2" d="M387.6,301.8c0,0.1,0,0.6-0.1,1.5h-14.4c0.3,1.2,0.9,2.1,1.8,2.8c1,0.7,2.2,1,3.6,1c1,0,1.9-0.1,2.6-0.4
		c0.8-0.3,1.5-0.8,2.2-1.4l2.9,3.2c-1.8,2.1-4.4,3.1-7.8,3.1c-2.1,0-4-0.4-5.7-1.2c-1.6-0.9-2.9-2-3.8-3.5s-1.3-3.2-1.3-5.1
		c0-1.9,0.4-3.6,1.3-5.1c0.9-1.5,2.1-2.7,3.6-3.5c1.6-0.9,3.3-1.3,5.2-1.3c1.9,0,3.5,0.4,5,1.2c1.5,0.8,2.7,2,3.5,3.5
		C387.2,298,387.6,299.8,387.6,301.8z M377.7,296c-1.2,0-2.3,0.4-3.1,1.1c-0.8,0.7-1.4,1.7-1.6,2.9h9.4c-0.2-1.2-0.7-2.2-1.6-2.9
		C380,296.4,379,296,377.7,296z"/>
	<path class="st2" d="M396.5,294.6c0.7-0.9,1.5-1.6,2.6-2.1c1.1-0.5,2.4-0.7,3.9-0.7v5.1c-0.6,0-1-0.1-1.2-0.1
		c-1.6,0-2.8,0.5-3.7,1.4c-0.9,0.9-1.3,2.2-1.3,4v9.1h-5.5v-19.2h5.3V294.6z"/>
</g>
<path class="st3" d="M160.9,600H185c0-0.3,0-0.5,0-0.8c0-23.8,19.3-43.1,43.1-43.1c23.8,0,43.1,19.3,43.1,43.1c0,0.3,0,0.5,0,0.8
	h24.1c0-0.3,0-0.5,0-0.8c0-37.1-30.1-67.2-67.2-67.2s-67.2,30.1-67.2,67.2C160.9,599.5,160.9,599.7,160.9,600z"/>
</svg>
