<?xml version="1.0" encoding="utf-8"?>
<!-- Generator: Adobe Illustrator 26.2.1, SVG Export Plug-In . SVG Version: 6.00 Build 0)  -->
<svg version="1.1" id="Layer_1" xmlns="http://www.w3.org/2000/svg" xmlns:xlink="http://www.w3.org/1999/xlink" x="0px" y="0px"
	 viewBox="0 0 455 600" style="enable-background:new 0 0 455 600;" xml:space="preserve">
<style type="text/css">
	.st0{fill:#0000FF;}
	.st1{opacity:0.7;fill:url(#SVGID_1_);enable-background:new    ;}
	.st2{opacity:0.7;fill:url(#SVGID_00000016050106873769858930000005558390354271458238_);enable-background:new    ;}
	.st3{fill:url(#SVGID_00000161598714095388104280000012607633366431524025_);}
	.st4{fill:url(#SVGID_00000114753193915326762770000004100123857487400076_);}
	.st5{fill:url(#SVGID_00000038410909128381914140000007510005586442478740_);}
	.st6{opacity:0.7;fill:url(#SVGID_00000067923873842068562980000007653286892929443204_);enable-background:new    ;}
	.st7{opacity:0.7;fill:url(#SVGID_00000038406544514602768980000001070765574574124465_);enable-background:new    ;}
	.st8{fill:url(#SVGID_00000111152376513491382680000005055956967475983000_);}
	.st9{fill:url(#SVGID_00000145751799521044057920000015580332760856777128_);}
	.st10{fill:url(#SVGID_00000137109454005433088880000011849786397097528255_);}
	.st11{fill:#FFFFFF;}
</style>
<rect x="83.1" y="151.9" class="st0" width="290.1" height="334.1"/>
<g>
	
		<linearGradient id="SVGID_1_" gradientUnits="userSpaceOnUse" x1="-1323.819" y1="-8568.4072" x2="-1126.7322" y2="-8568.4072" gradientTransform="matrix(1 0 0 1 1558.1277 9028.8506)">
		<stop  offset="0" style="stop-color:#478CCA;stop-opacity:0.3"/>
		<stop  offset="1" style="stop-color:#000725;stop-opacity:0.58"/>
	</linearGradient>
	<path class="st1" d="M412.2,404.1c0.7,0.2,1.5,0.2,2.2,0.2c9.3,0,17-7.6,17-17c0-9.3-7.6-17-17-17h-6.3
		c-96.5,3.5-173.8,82.7-173.8,180c0,0.1,0,0.2,0,0.2h33.8c0-0.1,0-0.2,0-0.2C268.1,470.3,332.4,405.4,412.2,404.1z"/>
	
		<linearGradient id="SVGID_00000178903364365466617130000002186990298011295645_" gradientUnits="userSpaceOnUse" x1="-1267.5422" y1="-8540.2295" x2="-1126.7322" y2="-8540.2295" gradientTransform="matrix(1 0 0 1 1558.1277 9028.8506)">
		<stop  offset="0" style="stop-color:#478CCA;stop-opacity:0.3"/>
		<stop  offset="1" style="stop-color:#000725;stop-opacity:0.58"/>
	</linearGradient>
	<path style="opacity:0.7;fill:url(#SVGID_00000178903364365466617130000002186990298011295645_);enable-background:new    ;" d="
		M414.4,426.8v-0.2c-68.4,0-123.8,55.4-123.8,123.8c0,0.1,0,0.2,0,0.2h33.8c0-0.1,0-0.2,0-0.2c0-48.9,39-88.7,87.6-90
		c0.8,0.2,1.7,0.2,2.4,0.2c9.3,0,17-7.6,17-17C431.3,434.4,423.7,426.8,414.4,426.8z"/>
	
		<linearGradient id="SVGID_00000127735467800312172830000006266850576977093248_" gradientUnits="userSpaceOnUse" x1="-1234.905" y1="-8458.627" x2="-1234.905" y2="-8607.7373" gradientTransform="matrix(1 0 0 1 1558.1277 9028.8506)">
		<stop  offset="0" style="stop-color:#243A7A"/>
		<stop  offset="1" style="stop-color:#242448"/>
	</linearGradient>
	<path style="fill:url(#SVGID_00000127735467800312172830000006266850576977093248_);" d="M355.9,474.8c0-9.3-7.6-17-17-17
		c-5.4,0-10.1,2.5-13.2,6.3c-21.7,22.3-35.1,52.7-35.1,86.3c0,9.3,7.6,17,17,17c9.3,0,17-7.6,17-17c0-0.3,0-0.6-0.1-0.9
		c0.2-24.5,10.3-46.7,26.4-62.8C353.9,483.7,355.9,479.5,355.9,474.8z"/>
	
		<linearGradient id="SVGID_00000180351360056366231060000005690073123613777792_" gradientUnits="userSpaceOnUse" x1="-1282.973" y1="-8458.627" x2="-1282.973" y2="-8607.9609" gradientTransform="matrix(1 0 0 1 1558.1277 9028.8506)">
		<stop  offset="0" style="stop-color:#243A7A"/>
		<stop  offset="1" style="stop-color:#242448"/>
	</linearGradient>
	<path style="fill:url(#SVGID_00000180351360056366231060000005690073123613777792_);" d="M310.3,447.7c3.5-3.1,5.7-7.6,5.7-12.5
		c0-9.3-7.6-17-17-17c-4.7,0-8.9,1.9-12,5l0,0c-32.6,32.6-52.7,77.6-52.7,127.4c0,9.3,7.6,17,17,17c9.3,0,17-7.6,17-17
		c0-0.3,0-0.6-0.1-0.9C268.4,510,284.4,474,310.3,447.7z"/>
	
		<linearGradient id="SVGID_00000096746285214329651240000008454654463791328442_" gradientUnits="userSpaceOnUse" x1="-1267.3844" y1="-8516.3535" x2="-1202.1887" y2="-8516.3535" gradientTransform="matrix(1 0 0 1 1558.1277 9028.8506)">
		<stop  offset="0" style="stop-color:#243A7A"/>
		<stop  offset="1" style="stop-color:#242448"/>
	</linearGradient>
	<path style="fill:url(#SVGID_00000096746285214329651240000008454654463791328442_);" d="M355.9,474.7c0-9.3-7.6-17-17-17
		c-5.3,0-9.9,2.4-13,6.2c-21.8,22.3-35.2,52.8-35.2,86.4c0,9.3,7.6,17,17,17c9.3,0,17-7.6,17-17c0-0.4-0.1-0.7-0.1-1
		c0.3-24.5,10.3-46.6,26.4-62.7C354,483.6,355.9,479.3,355.9,474.7z"/>
</g>
<g>
	
		<linearGradient id="SVGID_00000100383901105396320960000005000904397974742184_" gradientUnits="userSpaceOnUse" x1="2126.8691" y1="-3164.9907" x2="2323.9558" y2="-3164.9907" gradientTransform="matrix(-1 0 0 -1 2466.5422 -2812.0532)">
		<stop  offset="0" style="stop-color:#478CCA;stop-opacity:0.3"/>
		<stop  offset="1" style="stop-color:#000725;stop-opacity:0.58"/>
	</linearGradient>
	<path style="opacity:0.7;fill:url(#SVGID_00000100383901105396320960000005000904397974742184_);enable-background:new    ;" d="
		M161.8,409.3c-0.7-0.2-1.5-0.2-2.2-0.2c-9.3,0-17,7.6-17,17c0,9.3,7.6,17,17,17h6.3c96.5-3.5,173.8-82.7,173.8-180
		c0-0.1,0-0.2,0-0.2h-33.8c0,0.1,0,0.2,0,0.2C305.9,343.1,241.6,408,161.8,409.3z"/>
	
		<linearGradient id="SVGID_00000061436378369412785900000004826291833157645449_" gradientUnits="userSpaceOnUse" x1="2183.1458" y1="-3136.813" x2="2323.9561" y2="-3136.813" gradientTransform="matrix(-1 0 0 -1 2466.5422 -2812.0532)">
		<stop  offset="0" style="stop-color:#478CCA;stop-opacity:0.3"/>
		<stop  offset="1" style="stop-color:#000725;stop-opacity:0.58"/>
	</linearGradient>
	<path style="opacity:0.7;fill:url(#SVGID_00000061436378369412785900000004826291833157645449_);enable-background:new    ;" d="
		M159.6,386.6v0.2c68.4,0,123.8-55.4,123.8-123.8c0-0.1,0-0.2,0-0.2h-33.8c0,0.1,0,0.2,0,0.2c0,48.9-39,88.7-87.6,90
		c-0.8-0.2-1.7-0.2-2.4-0.2c-9.3,0-17,7.6-17,17C142.7,379,150.2,386.6,159.6,386.6z"/>
	
		<linearGradient id="SVGID_00000148639070578661833850000005664344941218534063_" gradientUnits="userSpaceOnUse" x1="2215.7832" y1="-3055.2102" x2="2215.7832" y2="-3204.3213" gradientTransform="matrix(-1 0 0 -1 2466.5422 -2812.0532)">
		<stop  offset="0" style="stop-color:#243A7A"/>
		<stop  offset="1" style="stop-color:#242448"/>
	</linearGradient>
	<path style="fill:url(#SVGID_00000148639070578661833850000005664344941218534063_);" d="M218.1,338.6c0,9.3,7.6,17,17,17
		c5.4,0,10.1-2.5,13.2-6.3c21.7-22.3,35.1-52.7,35.1-86.3c0-9.3-7.6-17-17-17c-9.3,0-17,7.6-17,17c0,0.3,0,0.6,0.1,0.9
		c-0.2,24.5-10.3,46.7-26.4,62.8C220.1,329.7,218.1,333.9,218.1,338.6z"/>
	
		<linearGradient id="SVGID_00000078737688961331968390000014176725207477697973_" gradientUnits="userSpaceOnUse" x1="2167.7151" y1="-3055.2102" x2="2167.7151" y2="-3204.5447" gradientTransform="matrix(-1 0 0 -1 2466.5422 -2812.0532)">
		<stop  offset="0" style="stop-color:#243A7A"/>
		<stop  offset="1" style="stop-color:#242448"/>
	</linearGradient>
	<path style="fill:url(#SVGID_00000078737688961331968390000014176725207477697973_);" d="M263.7,365.7c-3.5,3.1-5.7,7.6-5.7,12.5
		c0,9.3,7.6,17,17,17c4.7,0,8.9-1.9,12-5l0,0c32.6-32.6,52.7-77.6,52.7-127.4c0-9.3-7.6-17-17-17c-9.3,0-17,7.6-17,17
		c0,0.3,0,0.6,0.1,0.9C305.6,303.4,289.6,339.4,263.7,365.7z"/>
	
		<linearGradient id="SVGID_00000098937805219547541100000002624054681588221615_" gradientUnits="userSpaceOnUse" x1="2183.3037" y1="-3112.9368" x2="2248.4995" y2="-3112.9368" gradientTransform="matrix(-1 0 0 -1 2466.5422 -2812.0532)">
		<stop  offset="0" style="stop-color:#243A7A"/>
		<stop  offset="1" style="stop-color:#242448"/>
	</linearGradient>
	<path style="fill:url(#SVGID_00000098937805219547541100000002624054681588221615_);" d="M218,338.7c0,9.3,7.6,17,17,17
		c5.3,0,9.9-2.4,13-6.2c21.8-22.3,35.2-52.8,35.2-86.4c0-9.3-7.6-17-17-17c-9.3,0-17,7.6-17,17c0,0.4,0.1,0.7,0.1,1
		c-0.3,24.5-10.3,46.6-26.4,62.7C219.9,329.8,218,334,218,338.7z"/>
</g>
<path class="st11" d="M153.7,283.3h-24.9v-21.7h24.9V283.3z M130.9,281.3h20.9v-17.7h-20.9V281.3z M428,333.8h-24.9v-21.7H428V333.8
	z M405.1,331.8H426v-17.7h-20.9V331.8z M157.5,488.5h-24.9v-21.7h24.9V488.5z M134.6,486.5h20.9v-17.7h-20.9V486.5z M179.8,507.9
	h-24.9v-21.7h24.9V507.9z M156.9,505.9h20.9v-17.7h-20.9V505.9z M157.5,526.8h-24.9v-21.7h24.9V526.8z M134.6,524.8h20.9v-17.7
	h-20.9V524.8z"/>
<path class="st11" d="M147.3,118.4c0-0.8-0.2-1.5-0.7-2.1c-0.5-0.6-1.1-1.1-2-1.5c-0.8-0.4-1.8-0.8-3-1.2s-2.5-0.7-4-1.2
	c-1.8-0.5-3.3-1-4.6-1.6c-1.3-0.6-2.4-1.3-3.3-2.1c-0.9-0.8-1.5-1.7-2-2.7c-0.5-1-0.7-2.3-0.7-3.7c0-1.9,0.4-3.6,1.1-5
	c0.7-1.5,1.7-2.7,2.9-3.7c1.3-1,2.7-1.7,4.3-2.2c1.6-0.5,3.4-0.8,5.3-0.8c2.6,0,5,0.4,7.2,1.2c2.2,0.8,4.1,1.8,5.8,2.9l-3.2,5.9
	c-0.2-0.3-0.7-0.6-1.3-1c-0.6-0.4-1.4-0.8-2.4-1.2c-0.9-0.4-1.9-0.7-3-1c-1.1-0.3-2.2-0.4-3.3-0.4c-2,0-3.5,0.4-4.5,1.1
	s-1.5,1.8-1.5,3.1c0,0.8,0.2,1.4,0.5,1.9c0.4,0.5,0.9,0.9,1.6,1.3c0.7,0.4,1.6,0.7,2.6,1.1s2.3,0.6,3.7,1c1.8,0.5,3.5,1,5,1.6
	c1.5,0.6,2.7,1.3,3.8,2.1c1,0.8,1.8,1.8,2.4,3c0.6,1.2,0.8,2.6,0.8,4.3c0,2-0.4,3.7-1.1,5.1c-0.7,1.4-1.7,2.6-3,3.4
	c-1.3,0.9-2.7,1.5-4.4,1.9c-1.6,0.4-3.4,0.6-5.2,0.6c-2.8,0-5.6-0.4-8.3-1.3s-5.2-2-7.3-3.6l3.3-6.2c0.3,0.3,0.9,0.7,1.7,1.2
	c0.8,0.5,1.8,1,2.9,1.5c1.1,0.5,2.4,0.9,3.7,1.3c1.4,0.3,2.7,0.5,4.2,0.5C145.3,122.2,147.3,120.9,147.3,118.4z M159.3,132.6v-32.6
	h6.3v4.9c1.1-1.7,2.4-3,4.1-3.9c1.6-0.9,3.6-1.4,5.7-1.4c1.9,0,3.7,0.4,5.3,1.2c1.6,0.8,3,1.8,4.2,3.1s2.1,2.9,2.8,4.7
	c0.7,1.8,1,3.7,1,5.6c0,2.1-0.3,4-0.9,5.8c-0.6,1.8-1.5,3.4-2.6,4.7c-1.1,1.3-2.4,2.4-3.9,3.1c-1.5,0.7-3.2,1.1-5,1.1
	c-2.2,0-4.2-0.5-5.8-1.5c-1.6-1-3-2.3-3.9-4v16.5C162.5,139.9,159.3,136.6,159.3,132.6z M166.5,117.1c0.7,1.6,1.6,3,3,4
	s2.8,1.6,4.3,1.6c1.1,0,2.1-0.2,3-0.7c0.9-0.5,1.7-1.1,2.4-1.9c0.6-0.8,1.2-1.7,1.5-2.7c0.4-1,0.5-2.1,0.5-3.3
	c0-1.2-0.2-2.3-0.6-3.3c-0.4-1-0.9-1.9-1.6-2.7c-0.7-0.7-1.5-1.3-2.5-1.8c-0.9-0.4-2-0.6-3.1-0.6c-0.7,0-1.4,0.1-2.1,0.4
	c-0.7,0.2-1.4,0.6-2,1c-0.6,0.4-1.2,0.9-1.6,1.5c-0.5,0.6-0.8,1.2-1.1,1.9V117.1z M195.7,124.5c-1.3-1.4-2.3-2.9-3-4.7
	c-0.7-1.8-1-3.6-1-5.6c0-2,0.3-3.9,1-5.6c0.7-1.8,1.7-3.3,3-4.7c1.3-1.3,2.8-2.4,4.7-3.2c1.8-0.8,3.9-1.2,6.2-1.2
	c2.3,0,4.4,0.4,6.2,1.2c1.8,0.8,3.4,1.8,4.6,3.2c1.3,1.4,2.3,2.9,3,4.7c0.7,1.8,1,3.6,1,5.6c0,2-0.3,3.8-1,5.6
	c-0.7,1.8-1.7,3.3-2.9,4.7c-1.3,1.3-2.8,2.4-4.6,3.2c-1.8,0.8-3.9,1.2-6.2,1.2c-2.3,0-4.4-0.4-6.2-1.2
	C198.5,126.9,197,125.8,195.7,124.5z M199.1,114.2c0,1.3,0.2,2.4,0.6,3.4c0.4,1,0.9,1.9,1.6,2.7c0.7,0.7,1.5,1.3,2.4,1.7
	c0.9,0.4,1.9,0.6,2.9,0.6c1.1,0,2-0.2,2.9-0.6c0.9-0.4,1.7-1,2.4-1.7c0.7-0.7,1.2-1.6,1.6-2.7c0.4-1.1,0.6-2.2,0.6-3.5
	c0-1.2-0.2-2.4-0.6-3.4c-0.4-1-0.9-2-1.6-2.7c-0.7-0.7-1.5-1.3-2.4-1.7c-0.9-0.4-1.9-0.6-2.9-0.6c-1.1,0-2,0.2-2.9,0.6
	c-0.9,0.4-1.7,1-2.4,1.8c-0.7,0.7-1.2,1.6-1.6,2.7C199.3,111.9,199.1,113,199.1,114.2z M268.7,122.8h-15l11.9-14.2
	c1.9-2.3,2.9-5.1,2.9-8V100H245v6.1h14.2l-11.9,14.2c-1.9,2.2-2.9,5.1-2.9,8v0.5h24.3V122.8z M272.1,119.8c-0.7-1.8-1.1-3.6-1.1-5.6
	c0-2,0.3-4,1-5.7c0.7-1.8,1.7-3.4,3-4.7c1.3-1.4,2.9-2.4,4.7-3.2c1.8-0.8,4-1.2,6.3-1.2c2.3,0,4.4,0.4,6.2,1.2
	c1.8,0.8,3.4,1.9,4.7,3.2c1.3,1.3,2.3,2.9,3,4.6c0.7,1.8,1,3.6,1,5.5c0,0.5,0,0.9,0,1.4c0,0.4-0.1,0.8-0.1,1.1l0,0.1H279
	c0.1,1,0.4,1.9,0.8,2.7c0.4,0.8,0.9,1.6,1.6,2.2c0.7,0.6,1.4,1.1,2.3,1.4c0.8,0.3,1.7,0.5,2.6,0.5c1.4,0,2.7-0.4,4-1
	c1.2-0.7,2.1-1.6,2.5-2.7l0.1-0.2l6.5,1.8l-0.1,0.2c-1.1,2.2-2.7,4-5,5.4c-2.3,1.4-5.1,2.1-8.2,2.1c-2.3,0-4.3-0.4-6.2-1.2
	c-1.8-0.8-3.4-1.8-4.7-3.2C273.8,123.2,272.8,121.6,272.1,119.8z M279.6,109c-0.4,0.8-0.6,1.7-0.7,2.6h14.2c-0.2-2-1-3.6-2.3-4.7
	c-1.3-1.2-3-1.8-4.9-1.8c-0.9,0-1.8,0.2-2.6,0.5c-0.8,0.3-1.6,0.8-2.2,1.4C280.5,107.4,280,108.1,279.6,109z M321.5,99.5
	c-0.2,0-0.5,0-0.9,0c-0.8,0-1.5,0.2-2.4,0.5c-0.8,0.3-1.6,0.7-2.4,1.3s-1.5,1.3-2.2,2c-0.7,0.8-1.3,1.7-1.8,2.6V100h-6.7v21.6
	c0,4,3.3,7.3,7.3,7.3v-17.8c0.8-1.6,2-2.8,3.7-3.7c1.7-0.8,3.7-1.2,5.9-1.3v-6.6C321.9,99.5,321.7,99.5,321.5,99.5z M232,128.4
	c0.8,0.2,1.8,0.4,2.7,0.4v-23.2h5.9V100h-5.9v-9.2h-7.2v9.2h-3.7v5.6h3.7v16.2c0,1.3,0.2,2.3,0.6,3.2c0.4,0.9,0.9,1.6,1.6,2.2
	C230.3,127.8,231.1,128.2,232,128.4z M223.9,172.6c0.7,1.8,1,3.6,1,5.5c0,0.5,0,0.9,0,1.4c0,0.4-0.1,0.8-0.1,1.1h-21.9
	c0.1,1.1,0.4,2.1,0.8,3c0.4,0.8,1,1.6,1.7,2.2c0.7,0.6,1.5,1.1,2.3,1.4c0.8,0.3,1.7,0.5,2.7,0.5c1.4,0,2.8-0.4,4.1-1.1
	c1.3-0.7,2.2-1.6,2.6-2.8l6.2,1.7c-1.1,2.2-2.7,4-5,5.3c-2.3,1.4-5,2.1-8.2,2.1c-2.3,0-4.3-0.4-6.2-1.2c-1.8-0.8-3.4-1.8-4.7-3.2
	c-1.3-1.3-2.3-2.9-3-4.6s-1.1-3.6-1.1-5.6c0-2,0.3-3.9,1-5.7c0.7-1.8,1.7-3.3,3-4.7c1.3-1.3,2.9-2.4,4.7-3.2
	c1.8-0.8,3.9-1.2,6.2-1.2c2.3,0,4.4,0.4,6.2,1.2c1.8,0.8,3.4,1.8,4.6,3.2S223.3,170.9,223.9,172.6z M217.5,175.9
	c-0.2-2.1-1-3.8-2.4-5.1c-1.4-1.3-3.1-1.9-5.1-1.9c-1,0-1.9,0.2-2.7,0.5c-0.8,0.4-1.6,0.8-2.2,1.4c-0.6,0.6-1.2,1.3-1.6,2.2
	c-0.4,0.9-0.6,1.8-0.7,2.9H217.5z M254.1,167.1c-0.6-1.1-1.5-1.9-2.6-2.5c-1.1-0.6-2.6-1-4.3-1c-2.5,0-4.7,0.5-6.7,1.5
	c-2,1-3.5,2.4-4.5,4.2v-5.2h-6.5V193h7.2v-17.1c0.3-0.9,0.6-1.7,1.2-2.4c0.5-0.7,1.2-1.3,1.8-1.9c0.7-0.5,1.4-0.9,2.1-1.2
	c0.8-0.3,1.5-0.4,2.2-0.4c1.4,0,2.5,0.5,3.3,1.6c0.8,1.1,1.2,2.7,1.2,5V193h7.2v-18.2c0-1.4-0.1-2.7-0.4-4.1
	C255.1,169.4,254.7,168.2,254.1,167.1z M278.9,185.9c-1.1,0.6-2.3,1-3.6,1c-1,0-2-0.2-2.9-0.6c-0.9-0.4-1.7-1-2.4-1.7
	c-0.7-0.8-1.2-1.7-1.6-2.7c-0.4-1.1-0.6-2.2-0.6-3.5s0.2-2.4,0.6-3.5c0.4-1.1,0.9-2,1.6-2.7c0.7-0.7,1.5-1.3,2.4-1.7
	c0.9-0.4,1.9-0.6,2.9-0.6c1.2,0,2.3,0.3,3.4,0.8c1,0.6,1.8,1.4,2.4,2.4l7.1-2.2c-1.1-2.2-2.7-3.9-4.9-5.2c-2.2-1.3-4.8-2-7.9-2
	c-2.3,0-4.4,0.4-6.2,1.2c-1.8,0.8-3.4,1.8-4.7,3.2c-1.3,1.3-2.3,2.9-3,4.6s-1,3.6-1,5.6c0,2,0.4,3.8,1.1,5.6c0.7,1.8,1.7,3.4,3,4.7
	c1.3,1.4,2.9,2.4,4.7,3.2c1.8,0.8,3.9,1.2,6.2,1.2c3.1,0,5.8-0.7,8.1-2.1c2.2-1.4,3.9-3.1,4.8-5.3l-7.1-2.2
	C280.8,184.4,280,185.2,278.9,185.9z M149.6,164.1h7.2v28.4h-7.3V189c-0.9,1.1-1.9,1.9-3.2,2.5c-1.8,0.9-3.6,1.4-5.6,1.4
	s-3.7-0.4-5.4-1.1c-1.6-0.7-3.1-1.8-4.3-3.1c-1.2-1.3-2.1-2.9-2.8-4.7c-0.7-1.8-1-3.7-1-5.7c0-2.1,0.3-4,0.9-5.7
	c0.6-1.8,1.5-3.3,2.6-4.6s2.5-2.4,4-3.1c1.5-0.7,3.2-1.1,5.1-1.1c2.1,0,4,0.5,5.6,1.5c1.7,1,3,2.3,3.9,4V165h0V164.1z M149.6,175.3
	c-0.3-0.8-0.7-1.5-1.2-2.2c-0.5-0.7-1.1-1.2-1.8-1.7c-0.7-0.5-1.4-0.9-2.1-1.2c-0.7-0.3-1.5-0.4-2.2-0.4c-1.1,0-2.1,0.2-3,0.7
	c-0.9,0.5-1.7,1.1-2.4,1.9c-0.6,0.8-1.2,1.7-1.5,2.8c-0.4,1-0.5,2.1-0.5,3.2c0,1.2,0.2,2.3,0.6,3.3c0.4,1,0.9,1.9,1.6,2.6
	c0.7,0.8,1.5,1.4,2.5,1.8s2,0.6,3.2,0.6c0.7,0,1.4-0.1,2.1-0.4c0.7-0.2,1.4-0.6,2-1c0.6-0.4,1.2-0.9,1.6-1.5
	c0.5-0.6,0.8-1.2,1.1-1.9h0V175.3z M184.3,164h6.4v26.3c0,2.1-0.4,4-1.2,5.7s-1.9,3.1-3.3,4.3c-1.4,1.2-3.1,2.1-5,2.7
	c-1.8,0.6-3.8,0.9-6,0.9c-0.1,0-0.1,0-0.2,0c-1.6-0.1-3.1-0.3-4.4-0.6c-1.9-0.4-3.7-1.1-5.1-2.1c-0.3-0.2-0.6-0.4-0.9-0.7l0.9-1.7
	l1.2-2.2l0.4-0.8l0.2-0.3c1.9,1.6,4.9,2.7,7.7,2.8c1,0,2-0.2,2.9-0.5c1.1-0.3,2-0.8,2.8-1.5c0.8-0.6,1.4-1.5,1.9-2.5
	c0.5-1,0.7-2.2,0.7-3.6v-2.5c-0.9,1.6-2.3,2.9-4,3.8c-1.7,0.9-3.6,1.3-5.5,1.3c-2,0-3.7-0.4-5.3-1.2c-1.6-0.8-2.9-1.8-4.1-3.2
	c-1.2-1.3-2.1-2.9-2.7-4.6c-0.6-1.8-0.9-3.6-0.9-5.6c0-2.1,0.3-4,1-5.8c0.7-1.8,1.6-3.4,2.7-4.7c1.2-1.4,2.6-2.4,4.2-3.2
	c1.6-0.8,3.4-1.2,5.4-1.2c2.2,0,4.2,0.5,5.9,1.5c1.7,1,3.1,2.4,4.2,4V164z M183.4,175.4c-0.7-1.7-1.7-3-3.1-4.1
	c-1.4-1-2.9-1.5-4.4-1.5c-1.2,0-2.2,0.3-3.1,0.7c-0.9,0.5-1.7,1.2-2.4,2c-0.7,0.8-1.2,1.8-1.5,2.8c-0.3,1.1-0.5,2.2-0.5,3.3
	c0,1.2,0.2,2.3,0.6,3.3c0.4,1,0.9,1.9,1.7,2.7c0.7,0.7,1.5,1.4,2.5,1.8c0.9,0.4,2,0.7,3.1,0.7c0.8,0,1.6-0.1,2.3-0.4s1.4-0.6,2-1.1
	s1.2-0.9,1.6-1.5s0.8-1.2,1.1-1.9h0V175.4z M313.5,179.4c0,5.4-2.1,7.9-6,7.9c-3.8,0-7-2.2-7-7.2v-15.9H293v15.7
	c0,9.1,5.2,13.2,12.6,13.2c3.4,0,5.5-1.2,7.7-3.4c0,1.1-0.1,2.1-0.3,3c-0.1,0.5-0.3,1-0.4,1.4c-0.5,1-1.1,1.8-1.9,2.5
	c-0.8,0.6-1.7,1.1-2.7,1.4c-0.9,0.3-1.9,0.4-2.9,0.4c-2.8-0.1-5.7-1.3-7.6-2.8l-0.2,0.3l-0.4,0.8l-1.2,2.2l-0.9,1.7
	c0.3,0.2,0.6,0.4,0.9,0.7c1.4,0.9,3.2,1.6,5,2c1.3,0.3,2.7,0.5,4.3,0.6c0.1,0,0.1,0,0.2,0c2.1,0,4.1-0.3,5.9-0.9
	c1.9-0.6,3.6-1.5,5-2.6c1.4-1.2,2.5-2.6,3.3-4.2c0.5-1.1,0.8-2.2,1-3.5c0.2-1.3,0.2-2.7,0.2-4.2v-24.4h-6.9V179.4z"/>
</svg>
