<?xml version="1.0" encoding="utf-8"?>
<!-- Generator: Adobe Illustrator 26.2.1, SVG Export Plug-In . SVG Version: 6.00 Build 0)  -->
<svg version="1.1" id="Layer_1" xmlns="http://www.w3.org/2000/svg" xmlns:xlink="http://www.w3.org/1999/xlink" x="0px" y="0px"
	 viewBox="0 0 455 600" style="enable-background:new 0 0 455 600;" xml:space="preserve">
<style type="text/css">
	.st0{fill:#FFFFFF;}
	.st1{fill:#040433;}
</style>
<g>
	<path class="st0" d="M146.8,174.3c-1.4,0.4-2.7,0.5-3.8,0.4l-0.4-3.7c1,0.1,2.1,0,3.3-0.3s2.3-0.7,3.2-1.3c1.1-0.7,1.8-1.3,2.1-1.9
		c0.3-0.6,0.3-1.2,0-1.8c-0.2-0.4-0.6-0.6-1.1-0.7c-0.5-0.1-1,0-1.6,0.1s-1.3,0.4-2.3,0.7c-1.5,0.5-2.7,0.8-3.7,1s-2,0.1-3-0.2
		s-1.8-1-2.5-2.2c-0.6-1-0.8-2-0.8-3.1c0.1-1.1,0.5-2.2,1.3-3.3s1.9-2.1,3.5-3c1.1-0.6,2.2-1.1,3.4-1.5s2.3-0.5,3.3-0.5l0.6,3.7
		c-2.1,0.1-3.9,0.5-5.4,1.5c-1.1,0.6-1.8,1.3-2.1,2s-0.3,1.3,0.1,1.8c0.3,0.6,0.9,0.8,1.7,0.7s1.8-0.4,3.2-0.8
		c1.5-0.5,2.7-0.8,3.7-1s2-0.1,2.9,0.2c1,0.3,1.8,1,2.5,2.1c0.6,1,0.8,2,0.8,3.1c-0.1,1.1-0.5,2.2-1.3,3.3s-1.9,2.1-3.5,3
		C149.6,173.3,148.2,173.9,146.8,174.3z"/>
	<path class="st0" d="M166,144c1.4,0,2.6,0.4,3.7,1.1c1,0.7,1.9,1.7,2.4,3c0.6,1.3,0.7,2.6,0.5,3.8c-0.2,1.3-0.8,2.4-1.7,3.4
		s-2.2,1.9-3.8,2.6l-3.6,1.5l2.1,4.9l-4.1,1.8l-7.7-17.9l7.7-3.3C163.1,144.3,164.6,143.9,166,144z M167.9,152.6
		c0.4-0.8,0.4-1.7,0-2.7s-1.1-1.6-2-1.9c-0.9-0.3-1.9-0.1-3.2,0.4l-3.4,1.4l2.7,6.2l3.4-1.4C166.6,154.1,167.5,153.4,167.9,152.6z"
		/>
	<path class="st0" d="M184.7,156.1c-1.8-0.4-3.3-1.3-4.6-2.5c-1.3-1.3-2.1-2.8-2.6-4.7s-0.5-3.6,0.1-5.3c0.5-1.7,1.4-3.2,2.8-4.4
		c1.4-1.2,3-2.1,5-2.6s3.8-0.5,5.6-0.1s3.3,1.3,4.6,2.5c1.3,1.3,2.2,2.8,2.6,4.7c0.5,1.9,0.5,3.6-0.1,5.3c-0.5,1.7-1.5,3.2-2.8,4.4
		s-3,2.1-5,2.6S186.5,156.6,184.7,156.1z M192.2,150.8c0.8-0.7,1.3-1.6,1.6-2.7c0.3-1,0.3-2.2,0-3.3c-0.3-1.2-0.8-2.1-1.6-2.9
		c-0.7-0.8-1.6-1.3-2.7-1.6c-1-0.3-2.1-0.3-3.2,0c-1.1,0.3-2.1,0.8-2.8,1.5c-0.8,0.7-1.3,1.6-1.6,2.7c-0.3,1-0.3,2.2,0,3.3
		c0.3,1.2,0.8,2.1,1.6,2.9c0.7,0.8,1.6,1.3,2.7,1.6c1,0.3,2.1,0.3,3.2,0C190.5,152,191.4,151.5,192.2,150.8z"/>
	<path class="st0" d="M206.9,136.5l-6.2,0.7l-0.4-3.7l16.9-1.9l0.4,3.7l-6.2,0.7l1.7,15.7l-4.5,0.5L206.9,136.5z"/>
	<path class="st0" d="M238.5,147.5l-0.1,3.7l-17-0.3V148l10.9-12.7l-10.5-0.2l0.1-3.7l16.4,0.3v2.9l-10.9,12.7L238.5,147.5z"/>
	<path class="st0" d="M257.8,150.3l-0.5,3.6l-14.9-2.2l2.8-19.3l14.6,2.2l-0.5,3.6l-10.1-1.5l-0.6,4.2l8.9,1.3l-0.5,3.5l-8.9-1.3
		l-0.7,4.5L257.8,150.3z"/>
	<path class="st0" d="M273.6,158.3l-2.1-6.3l-0.2-0.1l-3.8-1.1L266,156l-4.3-1.3l5.5-18.7l8.1,2.4c1.7,0.5,3,1.2,4.1,2.1
		c1.1,0.9,1.8,2,2.1,3.2c0.4,1.2,0.3,2.5-0.1,3.9s-1.1,2.5-2.1,3.3s-2.1,1.3-3.5,1.5l2.4,7.2L273.6,158.3z M276.7,143.7
		c-0.5-0.8-1.4-1.3-2.7-1.7l-3.5-1l-1.9,6.5l3.5,1c1.3,0.4,2.4,0.4,3.2,0c0.8-0.4,1.4-1.1,1.7-2.1
		C277.3,145.3,277.2,144.4,276.7,143.7z"/>
	<path class="st0" d="M303.8,167.2l-8-4.3l-3.5,2.9l-4.1-2.2l16.9-13l3.9,2.1l-1.6,21.3l-4.2-2.2L303.8,167.2z M304.1,163.5l0.8-8
		l-6.3,5.1L304.1,163.5z"/>
	<path class="st0" d="M326.2,175.4l3.3,2.5l-4.7,6.3c-1.3,0-2.7-0.2-4-0.7s-2.6-1.2-3.7-2c-1.6-1.2-2.8-2.6-3.6-4.3
		c-0.8-1.7-1.1-3.4-0.9-5.1c0.2-1.8,0.8-3.4,2-5c1.2-1.5,2.6-2.7,4.2-3.3c1.7-0.7,3.4-0.9,5.2-0.6c1.8,0.3,3.6,1,5.2,2.3
		c1.4,1,2.4,2.2,3.2,3.5c0.8,1.3,1.2,2.7,1.3,4.1l-3.9,0.4c-0.2-2-1.1-3.6-2.7-4.8c-1-0.7-2-1.2-3.1-1.4s-2.1,0-3.1,0.4
		s-1.9,1.1-2.6,2.1s-1.2,2-1.3,3.1c-0.1,1.1,0,2.1,0.5,3.1c0.4,1,1.2,1.9,2.1,2.6c1,0.8,2.1,1.3,3.3,1.4L326.2,175.4z"/>
	<path class="st0" d="M340.5,197.4L338,200l-10.7-10.6l13.7-13.8l10.4,10.4l-2.5,2.6l-7.3-7.2l-3,3l6.4,6.4l-2.5,2.5l-6.4-6.4
		l-3.2,3.2L340.5,197.4z"/>
	<path class="st0" d="M367.3,205.9l-15.6,11.7l-2.2-3l3.6-14.9l-9.4,7.1l-2.7-3.6l15.6-11.7l2.2,3l-3.6,14.8l9.4-7.1L367.3,205.9z"
		/>
	<path class="st0" d="M357.3,225.3c0-1.8,0.4-3.5,1.4-5c0.9-1.5,2.2-2.8,3.9-3.7c1.7-0.9,3.4-1.3,5.2-1.3c1.8,0.1,3.4,0.6,5,1.6
		c1.5,1,2.8,2.4,3.7,4.1c0.8,1.5,1.3,3,1.4,4.4c0.1,1.5-0.1,2.9-0.6,4.2l-3.7-1.3c0.7-1.9,0.6-3.7-0.3-5.4c-0.6-1.1-1.3-1.9-2.2-2.5
		c-0.9-0.6-1.9-0.9-3-0.9s-2.2,0.3-3.2,0.8c-1.1,0.6-1.9,1.3-2.5,2.2s-0.9,1.9-0.9,3s0.3,2.2,0.8,3.2c0.9,1.7,2.4,2.8,4.4,3.2
		l-1,3.8c-1.4-0.3-2.7-0.9-3.9-1.8c-1.2-0.9-2.2-2.1-3-3.6C357.8,228.9,357.3,227.1,357.3,225.3z"/>
	<path class="st0" d="M374,247.4l-6.5,2.4l-1.6-4.2l6.5-2.4l9.1-11.5l1.7,4.5l-6.3,7.9l9.9,1.8l1.6,4.1L374,247.4z"/>
	<path class="st0" d="M389,272.2l-1.1,3.3l-2.5-0.9l1.2-3.3l-3.3,0.7l-0.5-2.6l3.3-0.6l-2.4-2.7l2-1.7l2.2,2.7l1.1-3.3l2.5,0.9
		l-1.2,3.3l3.3-0.7l0.5,2.6l-3.3,0.6l2.4,2.7l-2,1.8L389,272.2z"/>
	<path class="st0" d="M376.4,292.8c0.4-1.4,0.9-2.6,1.6-3.5l3.4,1.5c-0.6,0.8-1.1,1.8-1.4,3c-0.4,1.2-0.5,2.3-0.5,3.5
		c0,1.3,0.2,2.2,0.6,2.8c0.4,0.6,0.9,0.9,1.5,0.9c0.5,0,0.8-0.2,1.1-0.6c0.3-0.4,0.5-0.8,0.7-1.4s0.4-1.3,0.6-2.3
		c0.3-1.5,0.7-2.7,1-3.7s0.9-1.8,1.7-2.5c0.8-0.7,1.8-1,3.1-1.1c1.1,0,2.2,0.3,3.1,0.9s1.7,1.5,2.2,2.7c0.6,1.2,0.9,2.7,0.9,4.5
		c0,1.2-0.1,2.5-0.4,3.7s-0.7,2.2-1.2,3.1L391,303c1-1.8,1.5-3.6,1.4-5.4c0-1.3-0.2-2.2-0.7-2.8c-0.4-0.6-1-0.9-1.6-0.9
		c-0.7,0-1.2,0.4-1.5,1.1s-0.6,1.8-0.9,3.2c-0.3,1.5-0.7,2.7-1,3.7s-0.9,1.8-1.6,2.5s-1.8,1-3.1,1.1c-1.1,0-2.1-0.3-3.1-0.9
		c-0.9-0.6-1.7-1.5-2.2-2.8c-0.6-1.2-0.9-2.7-0.9-4.5C375.8,295.7,376,294.2,376.4,292.8z"/>
	<path class="st0" d="M393.1,324.6c-0.7,1.2-1.6,2.1-2.8,2.6c-1.1,0.6-2.4,0.8-3.9,0.6c-1.4-0.2-2.6-0.7-3.6-1.5s-1.7-1.9-2.1-3.2
		c-0.4-1.3-0.5-2.8-0.3-4.6l0.5-3.9l-5.3-0.6l0.5-4.5l19.3,2.3l-1,8.4C394.3,321.9,393.8,323.4,393.1,324.6z M384.6,321.9
		c0.5,0.8,1.3,1.2,2.4,1.3c1.1,0.1,2-0.1,2.6-0.8c0.7-0.6,1.1-1.6,1.2-3l0.4-3.6l-6.7-0.8l-0.4,3.6
		C384,320.1,384.1,321.2,384.6,321.9z"/>
	<path class="st0" d="M373.2,334.7c1.3-1.3,2.8-2.2,4.5-2.7s3.5-0.5,5.3,0s3.4,1.4,4.6,2.7c1.2,1.3,2,2.8,2.5,4.6
		c0.4,1.8,0.3,3.7-0.2,5.6s-1.4,3.6-2.7,4.9c-1.3,1.3-2.8,2.2-4.5,2.7s-3.5,0.5-5.3,0s-3.4-1.4-4.6-2.7c-1.2-1.3-2-2.8-2.5-4.6
		c-0.4-1.8-0.3-3.7,0.2-5.6S371.9,336.1,373.2,334.7z M374.1,343.9c0.3,1,0.8,1.9,1.5,2.7c0.8,0.8,1.7,1.3,2.9,1.6
		c1.2,0.3,2.3,0.4,3.3,0.1c1.1-0.3,2-0.8,2.7-1.5c0.8-0.8,1.3-1.7,1.6-2.8c0.3-1.1,0.3-2.2,0.1-3.2c-0.3-1-0.8-1.9-1.5-2.7
		c-0.8-0.8-1.7-1.3-2.9-1.6c-1.2-0.3-2.3-0.4-3.3-0.1c-1.1,0.3-2,0.8-2.7,1.5c-0.8,0.8-1.3,1.7-1.6,2.8
		C373.9,341.8,373.9,342.9,374.1,343.9z"/>
	<path class="st0" d="M379.2,363.8l2.5-5.7l3.4,1.5l-6.8,15.6l-3.4-1.5l2.5-5.7l-14.5-6.3l1.8-4.1L379.2,363.8z"/>
	<path class="st0" d="M353.8,385.7l-3.2-1.9l8.7-14.6l2.5,1.5l5.6,15.8l5.4-9l3.2,1.9l-8.4,14.1l-2.5-1.5l-5.6-15.8L353.8,385.7z"/>
	<path class="st0" d="M341.8,401l-2.8-2.2l9.4-11.8l15.3,12.1l-9.2,11.5l-2.8-2.2l6.4-8l-3.3-2.6l-5.6,7.1l-2.7-2.2l5.6-7.1
		l-3.5-2.8L341.8,401z"/>
	<path class="st0" d="M326.9,410.7l6.5,1.3l0.2-0.2l2.8-2.7l-3.7-3.9l3.3-3.1l13.5,14.1l-6.1,5.8c-1.2,1.2-2.5,2-3.8,2.5
		s-2.6,0.5-3.8,0.3c-1.2-0.3-2.3-1-3.3-2s-1.6-2.2-1.8-3.4c-0.2-1.2-0.1-2.5,0.5-3.8l-7.5-1.5L326.9,410.7z M338.1,420.7
		c0.9-0.1,1.9-0.6,2.8-1.5l2.7-2.5l-4.7-4.9l-2.7,2.5c-1,0.9-1.5,1.9-1.6,2.8s0.2,1.8,1,2.5C336.3,420.4,337.2,420.7,338.1,420.7z"
		/>
	<path class="st0" d="M304.2,432.4l7.7-4.8l-0.7-4.5l3.9-2.4l2.9,21.1l-3.8,2.3l-17.7-11.9l4-2.5L304.2,432.4z M307.2,434.6l6.6,4.7
		l-1.3-8L307.2,434.6z"/>
	<path class="st0" d="M285.9,447.8l-3.8,1.6l-3.1-7.3c0.7-1.2,1.5-2.2,2.6-3.1s2.3-1.7,3.6-2.3c1.9-0.8,3.7-1.1,5.5-1
		c1.8,0.2,3.5,0.7,4.9,1.8c1.4,1,2.6,2.4,3.3,4.2c0.8,1.8,1,3.5,0.8,5.3s-0.9,3.4-2.1,4.8s-2.7,2.6-4.5,3.4c-1.6,0.7-3.1,1-4.6,1.1
		c-1.5,0-2.9-0.3-4.2-0.9l1.6-3.6c1.9,0.8,3.7,0.8,5.5,0c1.1-0.5,2.1-1.2,2.7-2c0.7-0.9,1.1-1.8,1.2-2.9s-0.1-2.2-0.6-3.3
		c-0.5-1.1-1.2-2-2-2.6c-0.9-0.7-1.8-1-2.9-1.1s-2.2,0.1-3.3,0.6c-1.2,0.5-2.2,1.2-2.9,2.2L285.9,447.8z"/>
	<path class="st0" d="M259.7,449.2l-1-3.5l14.6-4l5.1,18.8l-14.2,3.9l-1-3.5l9.9-2.7l-1.1-4.1l-8.7,2.4l-0.9-3.4l8.7-2.4l-1.2-4.3
		L259.7,449.2z"/>
	<path class="st0" d="M239,468.1l-2.4-19.3l3.7-0.4l11.1,10.6l-1.4-11.7l4.4-0.5l2.4,19.3l-3.7,0.5l-11-10.6l1.4,11.7L239,468.1z"/>
	<path class="st0" d="M227.1,449.8c1.6,0.9,2.8,2.1,3.7,3.7s1.3,3.3,1.2,5.2c-0.1,1.9-0.6,3.6-1.5,5.1c-1,1.5-2.3,2.7-3.9,3.5
		c-1.6,0.8-3.4,1.2-5.4,1.1c-1.7,0-3.2-0.4-4.6-1c-1.3-0.6-2.5-1.5-3.4-2.7l3-2.6c1.3,1.6,2.9,2.4,4.8,2.4c1.2,0,2.3-0.2,3.2-0.7
		c1-0.5,1.7-1.2,2.3-2.2s0.8-2,0.9-3.2c0-1.2-0.2-2.3-0.7-3.2c-0.5-1-1.2-1.7-2.2-2.3c-0.9-0.6-2-0.8-3.2-0.9
		c-1.9-0.1-3.6,0.7-5,2.2l-2.8-2.7c1-1.1,2.1-1.9,3.5-2.5s2.9-0.8,4.6-0.8C223.8,448.4,225.5,448.9,227.1,449.8z"/>
	<path class="st0" d="M199.6,453.3l1.1-6.8l4.4,0.7l-1.1,6.9l5.4,13.6l-4.7-0.8l-3.7-9.4l-6.5,7.7l-4.4-0.7L199.6,453.3z"/>
	<path class="st0" d="M170.6,453.9l-2.3-2.6l2-1.7l2.3,2.7l1.1-3.2l2.5,0.9l-1.1,3.2l3.5-0.7l0.5,2.6l-3.4,0.5l2.3,2.6l-2,1.7
		l-2.3-2.7l-1.1,3.2l-2.5-0.9l1.2-3.2l-3.5,0.7l-0.5-2.6L170.6,453.9z"/>
	<path class="st0" d="M159.1,432.7c1.1,1.1,1.8,2.1,2.2,3.1l-3,2.2c-0.4-0.9-1.1-1.9-1.9-2.7c-0.8-0.9-1.7-1.6-2.7-2.2
		c-1.1-0.6-2-0.9-2.8-0.9c-0.7,0-1.2,0.3-1.5,0.9c-0.2,0.4-0.3,0.8-0.1,1.3c0.2,0.4,0.5,0.9,0.9,1.3s1,1,1.7,1.6
		c1.1,1,2,1.9,2.7,2.7c0.7,0.8,1.1,1.7,1.3,2.7s0,2.1-0.6,3.2c-0.5,1-1.3,1.7-2.3,2.2s-2.1,0.7-3.5,0.6c-1.3-0.1-2.8-0.6-4.3-1.5
		c-1.1-0.6-2.1-1.3-3-2.2c-0.9-0.8-1.6-1.7-2.1-2.6l2.9-2.3c1.1,1.8,2.4,3.1,4,4c1.1,0.6,2,0.9,2.7,0.8s1.2-0.4,1.6-1
		c0.3-0.6,0.3-1.2-0.2-1.8c-0.5-0.6-1.2-1.4-2.3-2.4s-2-1.9-2.7-2.7c-0.7-0.8-1.1-1.6-1.3-2.6s0-2.1,0.6-3.2c0.5-1,1.3-1.7,2.3-2.2
		s2.2-0.7,3.5-0.6s2.8,0.6,4.4,1.5C156.9,430.8,158.1,431.7,159.1,432.7z"/>
	<path class="st0" d="M123.2,431.3c-0.7-1.2-1-2.5-0.9-3.7c0.1-1.3,0.6-2.5,1.4-3.6c0.9-1.1,1.9-1.9,3.1-2.4
		c1.2-0.4,2.5-0.5,3.8-0.2c1.4,0.3,2.7,1,4.1,2l3.1,2.3l3.2-4.3l3.6,2.7L133,439.7l-6.8-5C124.9,433.6,123.9,432.5,123.2,431.3z
		 M129.8,425.3c-0.9,0-1.7,0.5-2.3,1.4c-0.7,0.9-0.9,1.8-0.7,2.7c0.2,0.9,0.9,1.7,2,2.5l2.9,2.2l4-5.4l-2.9-2.2
		C131.7,425.6,130.7,425.2,129.8,425.3z"/>
	<path class="st0" d="M124.4,409c0.5,1.8,0.6,3.5,0.1,5.2c-0.4,1.7-1.3,3.3-2.7,4.6c-1.4,1.3-2.9,2.2-4.6,2.6s-3.5,0.4-5.2-0.2
		c-1.8-0.5-3.3-1.5-4.8-3c-1.4-1.4-2.4-3-2.9-4.8s-0.5-3.5-0.1-5.2s1.3-3.3,2.7-4.6c1.4-1.3,2.9-2.2,4.7-2.6
		c1.7-0.4,3.5-0.4,5.2,0.2c1.8,0.5,3.3,1.5,4.8,3C122.9,405.6,123.9,407.2,124.4,409z M116,405.2c-1-0.3-2.1-0.3-3.1,0
		s-2,0.9-2.9,1.7c-0.9,0.8-1.4,1.8-1.7,2.8c-0.3,1-0.3,2.1,0,3.1s0.8,2,1.6,2.8c0.8,0.8,1.7,1.4,2.8,1.7c1,0.3,2.1,0.3,3.1,0
		s2-0.9,2.9-1.7c0.9-0.8,1.4-1.8,1.7-2.8c0.3-1,0.3-2.1,0-3.1s-0.8-2-1.6-2.8C117.9,406,117,405.5,116,405.2z"/>
	<path class="st0" d="M96.3,399.7l3.7,5l-3,2.2l-10.1-13.6l3-2.2l3.7,5l12.7-9.4l2.7,3.6L96.3,399.7z"/>
	<path class="st0" d="M89.9,366.8l3.2-1.8l8.3,14.9l-2.5,1.4l-16.5-3l5.1,9.1l-3.2,1.8l-8-14.3l2.5-1.4l16.4,3L89.9,366.8z"/>
	<path class="st0" d="M82.6,348.7l3.4-1.3l5.6,14l-18.1,7.2L68,354.9l3.4-1.3l3.8,9.5l3.9-1.6l-3.3-8.4l3.3-1.3l3.3,8.4l4.2-1.7
		L82.6,348.7z"/>
	<path class="st0" d="M81.6,331l-4.4,4.9l0.1,0.2l0.9,3.8l5.3-1.3l1.1,4.4l-18.9,4.6l-2-8.2c-0.4-1.7-0.5-3.2-0.2-4.6
		s0.8-2.5,1.7-3.4s2-1.5,3.4-1.9c1.4-0.3,2.7-0.3,3.9,0.1c1.2,0.4,2.2,1.2,3,2.3l5-5.7L81.6,331z M67.4,335.7
		c-0.4,0.8-0.4,1.9-0.1,3.2l0.9,3.6l6.6-1.6l-0.9-3.6c-0.3-1.3-0.9-2.2-1.6-2.8c-0.7-0.5-1.6-0.7-2.7-0.4
		C68.5,334.3,67.8,334.9,67.4,335.7z"/>
	<path class="st0" d="M74.2,300.5l0.3,9l4.2,1.6l0.1,4.6l-19.7-8.1l-0.1-4.4l19.2-9.3l0.2,4.7L74.2,300.5z M70.8,302l-7.4,3.3
		l7.6,2.8L70.8,302z"/>
	<path class="st0" d="M70,277l0.5-4.1l7.9,0.9c0.7,1.1,1.1,2.4,1.4,3.9s0.3,2.8,0.2,4.2c-0.2,2-0.9,3.8-1.9,5.3s-2.4,2.6-4,3.4
		c-1.6,0.7-3.4,1-5.3,0.8s-3.6-0.9-5-2s-2.5-2.5-3.1-4.2c-0.7-1.7-0.9-3.6-0.7-5.6c0.2-1.7,0.7-3.2,1.4-4.5s1.7-2.4,2.9-3.2l2.3,3.2
		c-1.6,1.2-2.5,2.8-2.8,4.8c-0.1,1.2,0,2.4,0.4,3.4c0.4,1,1,1.8,1.9,2.5c0.9,0.6,1.9,1,3.1,1.2c1.2,0.1,2.3,0,3.3-0.4s1.8-1.1,2.5-2
		c0.6-0.9,1-1.9,1.2-3.2c0.1-1.3,0-2.5-0.4-3.6L70,277z"/>
	<path class="st0" d="M81.8,253.5l3.5,0.9L81.5,269l-18.8-4.9l3.7-14.2l3.5,0.9l-2.6,9.9l4.1,1.1l2.3-8.7l3.4,0.9l-2.3,8.7l4.4,1.1
		L81.8,253.5z"/>
	<path class="st0" d="M75.7,226.1l17.9,7.6l-1.4,3.4l-14.7,4.3l10.9,4.6l-1.7,4.1l-17.9-7.6l1.5-3.4l14.7-4.3l-11-4.6L75.7,226.1z"
		/>
	<path class="st0" d="M97.5,225c-1.6,0.9-3.3,1.4-5,1.3c-1.8,0-3.5-0.5-5.1-1.5s-2.9-2.3-3.7-3.9c-0.8-1.6-1.2-3.3-1.1-5.1
		s0.7-3.6,1.7-5.3c0.9-1.4,1.9-2.6,3.2-3.4c1.2-0.9,2.5-1.4,4-1.6l0.8,3.9c-2,0.3-3.5,1.3-4.5,3c-0.6,1-1,2.1-1,3.2
		c0,1.1,0.2,2.1,0.7,3s1.3,1.7,2.3,2.4c1,0.6,2.1,1,3.2,1s2.1-0.2,3-0.7s1.7-1.3,2.4-2.3c1-1.7,1.2-3.5,0.6-5.4l3.8-1.1
		c0.5,1.4,0.6,2.8,0.4,4.3s-0.8,2.9-1.6,4.4C100.4,222.7,99.1,224,97.5,225z"/>
	<path class="st0" d="M108.3,199.4l5.3,4.4l-2.9,3.5l-5.4-4.4l-14.5-2.1l3-3.7l10,1.5l-3.4-9.5l2.8-3.4L108.3,199.4z"/>
	<path class="st0" d="M122.2,174l3.4-0.7l0.5,2.6l-3.5,0.6l2.2,2.5l-2,1.7l-2.2-2.6l-1.1,3.4l-2.5-0.9l1.2-3.2l-3.4,0.7l-0.5-2.6
		l3.5-0.6l-2.2-2.6l2-1.7l2.2,2.6l1.1-3.4l2.5,0.8L122.2,174z"/>
</g>
<g>
	<ellipse class="st1" cx="227.5" cy="300" rx="94" ry="94"/>
</g>
<g>
	<path class="st0" d="M262.7,301.7c-3.2-2.5-7-4.6-11.6-6.3c-4.6-1.7-9.6-3.2-15.2-4.7c-4.3-1-8.1-2-11.3-3c-3.3-0.9-6-2-8.1-3.1
		s-3.8-2.5-4.9-4c-1.1-1.5-1.7-3.4-1.7-5.7c0-4,1.5-7,4.5-9.2s7.6-3.3,13.7-3.3c3.4,0,6.8,0.4,10.1,1.2c3.3,0.8,6.4,1.9,9.2,3.1
		s5.2,2.4,7.2,3.7c2,1.2,3.3,2.3,4.1,3l9.8-17.5c-5-3.3-10.9-6.2-17.7-8.7c-6.7-2.4-14.1-3.7-22.2-3.7c-5.8,0-11.2,0.8-16.2,2.3
		s-9.5,3.7-13.3,6.7c-3.8,2.9-6.8,6.6-8.9,11c-2.1,4.4-3.2,9.4-3.2,15c0,4.3,0.7,7.9,2,11s3.3,5.8,6,8.1c2.7,2.3,6,4.4,10.1,6.1
		c4,1.7,8.8,3.3,14.2,4.8c4.5,1.2,8.6,2.4,12.2,3.4c3.6,1.1,6.7,2.2,9.3,3.4c2.6,1.2,4.6,2.7,6,4.4c1.4,1.7,2.1,3.7,2.1,6.1
		c0,7.6-6.1,11.4-18.3,11.4c-4.4,0-8.7-0.5-12.9-1.6c-4.2-1-8-2.3-11.4-3.8s-6.4-3-8.9-4.5s-4.2-2.7-5.2-3.7l-9.8,18.6
		c6.6,4.6,14.1,8.1,22.5,10.6c8.3,2.5,16.8,3.8,25.4,3.8c5.6,0,10.9-0.6,16-1.8c5.1-1.2,9.6-3.1,13.5-5.7c3.9-2.6,7-6,9.3-10.2
		s3.5-9.3,3.5-15.3c0-5.1-0.9-9.4-2.6-12.9C268.3,307.2,265.8,304.1,262.7,301.7z"/>
</g>
</svg>
