<?xml version="1.0" encoding="utf-8"?>
<!-- Generator: Adobe Illustrator 26.2.1, SVG Export Plug-In . SVG Version: 6.00 Build 0)  -->
<svg version="1.1" id="Layer_2" xmlns="http://www.w3.org/2000/svg" xmlns:xlink="http://www.w3.org/1999/xlink" x="0px" y="0px"
	 viewBox="0 0 1962.4 455" style="enable-background:new 0 0 1962.4 455;" xml:space="preserve">
<style type="text/css">
	.st0{fill:#FFFFFF;}
	.st1{fill:#D14F27;}
</style>
<g>
	<path class="st0" d="M499.8,11.7v423.8h1454.3V11.7H499.8z M1953.1,71.9h-1V127h1v2h-1v2.1h1v2h-1v188h1v2h-1v69.5h1v2h-1v38.8
		h-192.6v1h-2v-1h-26.2v1h-2v-1h-193.1v1h-2v-1h-14.7v1h-2v-1h-152.9v1h-2v-1h-24.2v1h-2v-1h-111v1h-2v-1h-12.3v1h-2v-1h-193.4v1h-2
		v-1h-17.6v1h-2v-1h-192v1h-2v-1h-24.6v1h-2v-1H501.8v-38.8h-1v-2h1v-69.5h-1v-2h1v-188h-1v-2h1V129h-1v-2h1V71.9h-1v-2h1V13.7
		h271.7v-1h2v1h24.6v-1h2v1h192v-1h2v1h17.6v-1h2v1h193.4v-1h2v1h12.3v-1h2v1h111v-1h2v1h24.2v-1h2v1h152.9v-1h2v1h14.7v-1h2v1
		h193.1v-1h2v1h26.2v-1h2v1h192.6v56.2h1V71.9z"/>
	<path class="st0" d="M1759.5,69.9V13.7h-2v56.2h-26.2V13.7h-2v56.2h-193.1V13.7h-2v56.2h-14.7V13.7h-2v56.2h-152.9V13.7h-2v56.2
		h-24.2V13.7h-2v56.2h-111V13.7h-2v56.2h-12.3V13.7h-2v56.2h-193.4V13.7h-2v56.2h-17.6V13.7h-2v56.2h-192V13.7h-2v56.2h-24.6V13.7
		h-2v56.2H501.8v2h271.7V127H501.8v2h271.7v2.1H501.8v2h271.7v188H501.8v2h271.7v69.5H501.8v2h271.7v38.8h2v-38.8h24.6v38.8h2v-38.8
		h192v38.8h2v-38.8h17.6v38.8h2v-38.8h193.4v38.8h2v-38.8h12.3v38.8h2v-38.8h111v38.8h2v-38.8h24.2v38.8h2v-38.8h152.9v38.8h2v-38.8
		h14.7v38.8h2v-38.8h193.1v38.8h2v-38.8h26.2v38.8h2v-38.8h192.6v-2h-192.6v-69.5h192.6v-2h-192.6v-188h192.6v-2h-192.6V129h192.6
		v-2h-192.6V71.9h192.6v-2H1759.5z M1729.3,71.9V127h-193.1V71.9H1729.3z M1517.5,131.1h-152.9V129h152.9V131.1z M1519.5,129h14.7
		v2.1h-14.7V129z M1362.6,131.1h-24.2V129h24.2V131.1z M1336.4,131.1h-111V129h111V131.1z M1223.4,131.1h-12.3V129h12.3V131.1z
		 M1209.1,131.1h-193.4V129h193.4V131.1z M1013.7,131.1h-17.6V129h17.6V131.1z M994.1,131.1h-192V129h192V131.1z M994.1,133.1v188
		h-192v-188H994.1z M996.1,133.1h17.6v188h-17.6V133.1z M1015.7,133.1h193.4v188h-193.4V133.1z M1211.1,133.1h12.3v188h-12.3V133.1z
		 M1225.4,133.1h111v188h-111V133.1z M1338.4,133.1h24.2v188h-24.2V133.1z M1364.6,133.1h152.9v188h-152.9V133.1z M1519.5,133.1
		h14.7v188h-14.7V133.1z M1536.2,133.1h193.1v188h-193.1V133.1z M1536.2,131.1V129h193.1v2.1H1536.2z M1534.2,71.9V127h-14.7V71.9
		H1534.2z M1517.5,71.9V127h-152.9V71.9H1517.5z M1362.6,71.9V127h-24.2V71.9H1362.6z M1336.4,71.9V127h-111V71.9H1336.4z
		 M1223.4,71.9V127h-12.3V71.9H1223.4z M1209.1,71.9V127h-193.4V71.9H1209.1z M1013.7,71.9V127h-17.6V71.9H1013.7z M994.1,71.9V127
		h-192V71.9H994.1z M775.5,71.9h24.6V127h-24.6V71.9z M775.5,129h24.6v2.1h-24.6V129z M775.5,133.1h24.6v188h-24.6V133.1z
		 M775.5,392.6v-69.5h24.6v69.5H775.5z M802.1,392.6v-69.5h192v69.5H802.1z M996.1,392.6v-69.5h17.6v69.5H996.1z M1015.7,392.6
		v-69.5h193.4v69.5H1015.7z M1211.1,392.6v-69.5h12.3v69.5H1211.1z M1225.4,392.6v-69.5h111v69.5H1225.4z M1338.4,392.6v-69.5h24.2
		v69.5H1338.4z M1364.6,392.6v-69.5h152.9v69.5H1364.6z M1519.5,392.6v-69.5h14.7v69.5H1519.5z M1536.2,392.6v-69.5h193.1v69.5
		H1536.2z M1757.5,392.6h-26.2v-69.5h26.2V392.6z M1757.5,321.1h-26.2v-188h26.2V321.1z M1757.5,131.1h-26.2V129h26.2V131.1z
		 M1757.5,127h-26.2V71.9h26.2V127z"/>
</g>
<path class="st0" d="M768,218.8c3.7,7.7,5.5,17.1,5.5,28.4c0,13.1-2.5,24.2-7.4,33.5s-11.6,16.8-19.9,22.5
	c-8.4,5.7-18,9.9-28.9,12.6c-10.9,2.6-22.3,4-34.2,4c-18.3,0-36.4-2.8-54.3-8.3c-17.9-5.5-33.9-13.3-48.1-23.4l21-40.9
	c2.1,2.1,5.8,4.8,11.2,8.1c5.4,3.3,11.7,6.7,19.1,10c7.3,3.3,15.5,6.1,24.4,8.4s18.1,3.4,27.5,3.4c26.1,0,39.2-8.4,39.2-25.1
	c0-5.3-1.5-9.7-4.5-13.4c-3-3.7-7.2-6.9-12.7-9.6c-5.5-2.8-12.2-5.3-19.9-7.6c-7.8-2.3-16.5-4.8-26.1-7.6
	c-11.7-3.2-21.8-6.7-30.4-10.5c-8.6-3.8-15.8-8.3-21.5-13.4c-5.7-5.2-10-11.1-12.9-17.9c-2.9-6.8-4.3-14.8-4.3-24.2
	c0-12.4,2.3-23.4,6.9-33c4.6-9.6,10.9-17.6,19.1-24.1c8.1-6.4,17.6-11.3,28.4-14.6c10.8-3.3,22.4-5,34.7-5c17.2,0,33,2.7,47.5,8.1
	c14.4,5.4,27,11.8,37.8,19.1l-21,38.5c-1.6-1.6-4.5-3.8-8.8-6.5c-4.2-2.8-9.4-5.4-15.5-8.1c-6.1-2.6-12.7-4.9-19.8-6.7
	s-14.3-2.8-21.7-2.8c-13.1,0-22.8,2.4-29.2,7.2s-9.6,11.6-9.6,20.3c0,5,1.2,9.2,3.6,12.6c2.4,3.3,5.9,6.2,10.5,8.8
	c4.6,2.5,10.4,4.8,17.4,6.9c7,2.1,15.1,4.2,24.2,6.5c11.9,3.2,22.7,6.7,32.5,10.3c9.7,3.7,18,8.3,24.8,13.8
	C759.1,204.5,764.3,211.1,768,218.8z M987.3,186.7c4.4,11.7,6.6,24,6.6,37c0,13.5-2,26.1-6,37.9c-4,11.8-9.6,22.1-16.8,30.8
	c-7.2,8.7-15.8,15.6-25.7,20.5c-9.9,5-20.8,7.4-32.6,7.4c-14.6,0-27.4-3.2-38.2-9.7c-10.9-6.5-19.4-15.3-25.5-26.4v108
	c-26.2,0-47.5-21.2-47.5-47.5V131.3H843v31.9c6.8-10.9,15.7-19.4,26.6-25.7c10.9-6.3,23.4-9.4,37.5-9.4c12.5,0,24.1,2.5,34.7,7.6
	c10.6,5.1,19.8,11.9,27.4,20.5C976.9,164.9,982.9,175,987.3,186.7z M945.3,223.7c0-7.8-1.3-15.1-3.9-21.8
	c-2.6-6.7-6.2-12.6-10.8-17.5c-4.6-5-10-8.9-16.3-11.7s-13-4.3-20.4-4.3c-4.5,0-9.1,0.8-13.8,2.3s-9.1,3.7-13.1,6.6
	c-4,2.8-7.6,6.1-10.8,9.9c-3.2,3.8-5.6,7.9-7.3,12.4v43.6c4.2,10.6,10.7,19.4,19.5,26.4c8.7,7,18.2,10.4,28.3,10.4
	c7.1,0,13.6-1.5,19.7-4.6c6-3.1,11.2-7.2,15.4-12.4c4.2-5.2,7.6-11.2,9.9-18.1C944.2,238.1,945.3,231,945.3,223.7z M1202.1,187.6
	c4.5,11.6,6.7,23.8,6.7,36.8c0,12.7-2.2,24.9-6.7,36.5c-4.5,11.6-10.9,21.8-19.1,30.6c-8.3,8.9-18.4,15.9-30.5,21.1
	c-12,5.2-25.6,7.8-40.7,7.8s-28.7-2.6-40.7-7.8c-12-5.2-22.3-12.2-30.6-21.1c-8.4-8.9-14.8-19.1-19.3-30.6
	c-4.5-11.6-6.7-23.7-6.7-36.5c0-13,2.2-25.3,6.7-36.8c4.5-11.6,10.9-21.8,19.3-30.6c8.4-8.9,18.6-15.9,30.6-21.1
	c12-5.2,25.6-7.8,40.7-7.8s28.6,2.6,40.5,7.8s22.1,12.2,30.5,21.1C1191.2,165.8,1197.6,176,1202.1,187.6z M1160.3,224.1
	c0-8-1.2-15.5-3.7-22.3s-5.9-12.7-10.3-17.7s-9.5-8.8-15.4-11.5s-12.3-4.1-19.1-4.1c-6.9,0-13.2,1.4-19.1,4.3
	c-5.9,2.8-11,6.7-15.4,11.7s-7.8,10.9-10.3,17.7s-3.7,14.3-3.7,22.3c0,8.3,1.2,15.8,3.7,22.5s5.9,12.6,10.3,17.5
	c4.4,5,9.5,8.8,15.4,11.5s12.3,4.1,19.1,4.1c6.8,0,13.2-1.4,19.1-4.1s11-6.6,15.4-11.5c4.4-5,7.8-10.9,10.3-17.7
	C1159.1,239.9,1160.3,232.3,1160.3,224.1z M1498.3,187.4c12.3-14.8,19.1-33.5,19.1-52.7v-3.6h-153.5v39.8h93.3l-78.3,93.4
	c-12.4,14.7-19.2,33.4-19.2,52.6v3.6h159.4v-39.8h-98.6L1498.3,187.4z M1722.8,189.1c4.3,11.4,6.5,23.4,6.5,35.6
	c0,3-0.1,5.9-0.2,8.7c-0.1,2.8-0.4,5.3-0.9,7.1l-0.2,0.9h-139.5c0.8,6.4,2.4,12.3,4.9,17.3c2.7,5.4,6.2,10,10.4,13.8
	c4.2,3.8,9.1,6.7,14.5,8.8c5.4,2,11,3,16.9,3c9,0,17.5-2.2,25.5-6.6c7.9-4.3,13.3-10.1,16.2-17.2l0.4-1l42.1,11.7l-0.6,1.3
	c-6.8,14-17.6,25.6-32.4,34.5c-14.7,8.9-32.5,13.5-52.9,13.5c-14.6,0-28-2.5-39.8-7.5s-22.1-11.9-30.4-20.5
	c-8.4-8.6-14.9-18.7-19.4-30.1c-4.5-11.4-6.8-23.5-6.8-36c0-13,2.2-25.4,6.6-36.8c4.4-11.5,10.9-21.7,19.2-30.4
	c8.4-8.7,18.7-15.7,30.6-20.8s25.5-7.7,40.3-7.7s28.3,2.6,40,7.7c11.7,5.1,21.8,12,30.1,20.6
	C1712.1,167.6,1718.5,177.7,1722.8,189.1z M1679.1,209c-1.3-12.6-6.2-22.9-14.5-30.6c-8.6-7.9-19.2-11.9-31.5-11.9
	c-6,0-11.8,1.1-17,3.2c-5.3,2.1-10,5.1-14,8.9c-4,3.8-7.4,8.5-9.9,13.8c-2.4,5-3.9,10.6-4.4,16.6H1679.1z M1865.7,127.7
	c-1.3,0-3.3,0-5.9,0c-5,0-10.2,1-15.5,3s-10.6,4.9-15.9,8.7c-5.2,3.8-10.1,8.3-14.6,13.4c-4.5,5.1-8.4,10.9-11.8,17.3v-38.9h-43.7
	v141.5c0,26.4,21.4,47.7,47.7,47.7V203.9c5-10.7,13.2-18.7,24.6-24s24.3-8.1,38.8-8.4V128C1868.3,127.8,1867,127.7,1865.7,127.7z
	 M1296.3,71.1h-47.5v60.2h-24.4v36.5h24.4v106.6c0,8.3,1.3,15.3,3.9,21.1c2.6,5.8,6.1,10.5,10.4,14.2c4.4,3.7,9.4,6.3,15.2,8
	c5.6,1.6,11.5,2.4,17.9,2.5v-61.6v-18.5v-72.2h39v-36.5h-39L1296.3,71.1L1296.3,71.1z"/>
<path class="st1" d="M439.2,67.3h-6.5H39.2c-11.3,0-20.4,9.2-20.4,20.4v81.1v9.3v35.7h20.4h9.3h385.7c11.3,0,20.4-9.2,20.4-20.4
	V94.2v-6.5V67.3H439.2z"/>
<path class="st0" d="M112.9,105.5l-9.6,5.7c-1.8-3.1-3.5-5.1-5.1-6.1c-1.7-1-3.9-1.6-6.6-1.6c-3.3,0-6,1-8.2,2.9
	c-2.2,1.8-3.2,4.2-3.2,7c0,3.8,2.9,7,8.6,9.3l7.8,3.2c6.4,2.6,11.1,5.7,14,9.4c3,3.7,4.5,8.3,4.5,13.7c0,7.2-2.4,13.3-7.2,18
	c-4.9,4.8-10.9,7.2-18.1,7.2c-6.9,0-12.5-2-17-6.1c-4.4-4.1-7.2-9.8-8.2-17.2l12-2.7c0.6,4.7,1.5,7.8,2.9,9.6
	c2.5,3.4,6,5.1,10.7,5.1c3.7,0,6.8-1.2,9.3-3.7c2.5-2.5,3.7-5.6,3.7-9.4c0-1.5-0.2-3-0.7-4.2c-0.5-1.2-1-2.5-2-3.5
	c-0.9-1-2.1-2.1-3.5-3.1c-1.4-1-3.1-1.8-5.1-2.7l-7.6-3.1c-10.8-4.6-16.2-11.3-16.2-20c0-5.9,2.3-10.9,6.8-14.9c4.5-4,10.2-6,16.9-6
	C100.7,92.3,107.8,96.7,112.9,105.5z M137.9,167.1c4.6,4.7,9.8,7,15.6,7c6.8,0,12.3-2.5,16.7-7.4c4.5-5,6.7-11.2,6.7-18.6
	c0-7.6-2.3-13.9-6.8-18.9c-4.5-5.1-10.1-7.5-16.9-7.5c-5.7,0-10.9,2.3-15.4,6.8v-5.4h-11.4v76.8h11.4L137.9,167.1L137.9,167.1z
	 M161.3,159.3c-2.6,3-5.9,4.5-9.8,4.5c-4.2,0-7.6-1.5-10.2-4.5c-2.6-3.1-3.9-6.9-3.9-11.5c0-4.8,1.3-8.6,3.9-11.5
	c2.6-3,6-4.4,10.3-4.4c4,0,7.2,1.5,9.9,4.6c2.6,3.1,3.9,6.9,3.9,11.6C165.2,152.6,163.9,156.3,161.3,159.3z M192.7,166.4
	c5.1,5.1,11.3,7.6,18.7,7.6c7.5,0,13.8-2.5,19.1-7.5c5.1-5.1,7.7-11.3,7.7-18.7c0-7.3-2.6-13.6-7.6-18.7c-5.1-5.1-11.4-7.6-18.9-7.6
	c-7.3,0-13.6,2.5-18.8,7.5c-5.1,5.1-7.7,11.2-7.7,18.3C185.2,155,187.7,161.4,192.7,166.4z M201,136.2c2.7-3,6.3-4.4,10.7-4.4
	c4.5,0,8,1.4,10.8,4.4c2.7,2.9,4,6.8,4,11.6s-1.3,8.7-4,11.5c-2.7,2.9-6.3,4.4-10.8,4.4c-4.5,0-8-1.4-10.8-4.4
	c-2.7-2.9-4-6.9-4-11.8C196.9,143,198.3,139.2,201,136.2z M269.6,133.7V123h-8.9v-18.2h-11.4V123h-4.9v10.7h4.9v39h11.4v-39H269.6z
	 M325,122.9H277v10.7h25.4l-32.2,39.1h52.3v-10.8h-29.6L325,122.9z M376.1,147.8c0-8.2-2.1-14.6-6.3-19.3c-4.2-4.7-10-7-17.4-7
	c-7.2,0-13.1,2.4-17.5,7.2c-4.4,4.9-6.5,11.3-6.5,19.1c0,7.9,2.3,14.3,6.8,19.1s10.5,7.2,17.8,7.2c2.6,0,5-0.3,7.2-0.9
	c2.2-0.6,4.3-1.4,6.2-2.6c1.9-1.1,3.7-2.7,5.3-4.5c1.6-1.8,3.2-4,4.8-6.6l-9.7-5.4c-2.4,3.7-4.5,6.2-6.3,7.5c-1.9,1.3-4.2,2-7.1,2
	c-3.7,0-6.7-1.1-9.1-3.5c-2.3-2.4-3.6-5.6-4-9.7h35.6V147.8z M341.2,141.1c0.4-1.4,1-2.7,1.6-3.8s1.6-2.1,2.6-2.9
	c1-0.8,2.1-1.4,3.3-1.8c1.2-0.5,2.5-0.7,3.9-0.7c6.1,0,10,3.1,11.5,9.2L341.2,141.1L341.2,141.1z M387.3,122.9v49.8h11.4v-25.7
	c0-9.4,3.1-14.2,9.3-14.2c2.1,0,4.2,0.8,6.4,2.4l5.2-10.5c-3.3-2-6.5-3-9.4-3c-2.3,0-4.2,0.4-5.9,1.2c-1.6,0.9-3.5,2.3-5.6,4.6V123
	L387.3,122.9L387.3,122.9z M40.3,111.4l3.6-1.1c-1.4-6.2-0.8-13,2.5-19.1c3.2-6.1,8.5-10.4,14.4-12.7l-1.1-3.6
	c-6.9,2.6-13,7.5-16.7,14.6C39.5,96.5,38.6,104.2,40.3,111.4z M50.4,108.4l3.6-1.1c-0.7-3.6-0.2-7.5,1.7-11.2
	c1.9-3.5,4.9-6.1,8.3-7.6l-1.1-3.6c-4.4,1.8-8.1,5.1-10.5,9.4C50,98.8,49.4,103.7,50.4,108.4z M435.6,167.1l-3.6,1.1
	c1.4,6.2,0.8,13-2.5,19.1c-3.2,6.1-8.5,10.4-14.4,12.7l1.1,3.6c6.9-2.6,13-7.5,16.7-14.6C436.4,182.1,437.3,174.3,435.6,167.1z
	 M425.5,170.2l-3.6,1.1c0.7,3.6,0.2,7.5-1.7,11.2c-1.9,3.5-4.9,6.1-8.3,7.6l1.1,3.6c4.4-1.8,8.1-5.1,10.5-9.5
	C425.9,179.7,426.5,174.8,425.5,170.2z"/>
<path class="st1" d="M850.4,394.3h-49.3V131.1h43.2v29.8c6.7-9.8,15.2-17.7,25.3-23.5c11-6.3,23.8-9.5,38-9.5
	c12.6,0,24.4,2.6,35.1,7.7c10.7,5.1,20,12.1,27.8,20.8c7.7,8.7,13.9,19,18.3,30.8c4.4,11.8,6.6,24.3,6.6,37.4
	c0,13.5-2,26.4-6.1,38.2c-4,11.9-9.8,22.4-17,31.1c-7.3,8.8-16,15.8-26,20.8s-21.1,7.5-33,7.5c-14.8,0-27.8-3.3-38.8-9.9
	c-10-6-18.1-14-24.2-23.9v105.9H850.4z M802.9,392.5h45.7V285.2l1.7-0.4c6,10.9,14.5,19.7,25.2,26.1s23.4,9.6,37.8,9.6
	c11.6,0,22.5-2.5,32.2-7.4c9.8-4.9,18.3-11.7,25.4-20.3c7.1-8.6,12.7-18.9,16.7-30.6c4-11.7,6-24.3,6-37.7c0-12.8-2.2-25.2-6.5-36.7
	s-10.3-21.7-17.9-30.2c-7.6-8.5-16.7-15.4-27.2-20.4s-22-7.5-34.4-7.5c-14,0-26.5,3.1-37.1,9.3c-10.7,6.2-19.6,14.7-26.3,25.4
	l-1.7,2.6v-34.1h-39.7L802.9,392.5L802.9,392.5z M897.4,281.9c-10.3,0-20.1-3.6-28.9-10.7c-8.8-7-15.5-16-19.8-26.8l-0.1-0.2v-44
	l0.1-0.2c1.7-4.6,4.2-8.8,7.4-12.7c3.2-3.8,6.9-7.2,11-10.1c4.1-2.9,8.6-5.1,13.4-6.7c4.8-1.6,9.5-2.3,14.1-2.3
	c7.4,0,14.4,1.5,20.8,4.3c6.3,2.9,11.9,6.9,16.6,11.9c4.7,5,8.4,11,11,17.8s4,14.3,4,22.1c0,7.4-1.2,14.6-3.6,21.6
	c-2.4,6.9-5.8,13.1-10.1,18.4s-9.6,9.5-15.7,12.6C911.3,280.3,904.6,281.9,897.4,281.9z M850.4,243.9c4.2,10.4,10.6,19.1,19.2,25.9
	c8.5,6.8,17.9,10.3,27.8,10.3c6.9,0,13.4-1.5,19.3-4.5c5.9-3,11-7.1,15.1-12.2c4.2-5.1,7.5-11.1,9.8-17.8c2.3-6.7,3.5-13.8,3.5-21
	c0-7.6-1.3-14.9-3.8-21.5c-2.6-6.6-6.1-12.4-10.6-17.3c-4.5-4.9-9.9-8.7-16-11.5s-12.9-4.2-20-4.2c-4.4,0-8.9,0.8-13.6,2.3
	c-4.6,1.5-9,3.7-12.9,6.4c-3.9,2.8-7.5,6.1-10.7,9.8c-3.1,3.7-5.5,7.7-7.1,12V243.9z M1111.7,322.3c-15.2,0-29-2.7-41.1-7.9
	c-12.1-5.2-22.5-12.4-31-21.3c-8.4-8.9-15-19.3-19.5-31c-4.5-11.6-6.8-24-6.8-36.9c0-13.1,2.3-25.6,6.8-37.2
	c4.5-11.6,11.1-22.1,19.5-31s18.8-16.1,31-21.3c12.1-5.2,26-7.9,41.1-7.9s29,2.7,41,7.9s22.4,12.4,30.8,21.3
	c8.4,8.9,15,19.3,19.5,31c4.5,11.6,6.8,24.2,6.8,37.2c0,12.8-2.3,25.2-6.8,36.9c-4.5,11.6-11,22.1-19.3,31s-18.7,16.1-30.8,21.3
	C1140.7,319.6,1126.8,322.3,1111.7,322.3z M1111.7,129.7c-14.9,0-28.5,2.6-40.4,7.7c-11.9,5.1-22.1,12.2-30.4,20.9
	s-14.7,19-19.1,30.4s-6.7,23.7-6.7,36.6c0,12.6,2.2,24.8,6.7,36.2c4.4,11.4,10.9,21.6,19.1,30.4c8.3,8.7,18.5,15.8,30.4,20.9
	s25.5,7.7,40.4,7.7s28.5-2.6,40.4-7.7s22-12.2,30.2-20.9c8.2-8.7,14.5-19,19-30.4c4.4-11.4,6.7-23.6,6.7-36.2
	c0-12.8-2.2-25.1-6.7-36.6c-4.4-11.4-10.9-21.7-19.1-30.4c-8.3-8.7-18.4-15.8-30.2-20.9C1140.1,132.3,1126.6,129.7,1111.7,129.7z
	 M1111.7,281.9c-7,0-13.5-1.4-19.5-4.2c-6-2.8-11.3-6.7-15.7-11.8c-4.4-5-7.9-11-10.5-17.8c-2.5-6.8-3.8-14.5-3.8-22.8
	c0-8.1,1.3-15.7,3.8-22.7c2.5-6.9,6-13,10.5-18c4.4-5,9.7-9,15.7-11.9s12.6-4.3,19.5-4.3c7,0,13.5,1.4,19.5,4.2s11.3,6.7,15.7,11.8
	c4.4,5,7.9,11.1,10.5,18c2.5,6.9,3.8,14.6,3.8,22.7c0,8.3-1.3,16.1-3.8,23s-6,13-10.5,18c-4.4,5-9.7,9-15.7,11.8
	C1125.2,280.5,1118.6,281.9,1111.7,281.9z M1111.7,170.1c-6.7,0-13,1.4-18.8,4.2s-10.9,6.6-15.1,11.5c-4.3,4.9-7.7,10.7-10.1,17.4
	s-3.7,14.1-3.7,22c0,8.1,1.2,15.6,3.7,22.2c2.4,6.6,5.8,12.4,10.1,17.3c4.3,4.9,9.4,8.7,15.1,11.3c5.8,2.7,12.1,4,18.8,4
	c6.7,0,13-1.3,18.8-4c5.8-2.6,10.9-6.4,15.1-11.3c4.3-4.9,7.7-10.7,10.1-17.4c2.4-6.7,3.7-14.3,3.7-22.4c0-7.9-1.2-15.3-3.7-22
	c-2.4-6.7-5.8-12.6-10.1-17.4c-4.3-4.8-9.4-8.6-15.1-11.3C1124.7,171.5,1118.3,170.1,1111.7,170.1z M1298.2,321.9
	c-6.7,0-13-0.8-18.9-2.5s-11.1-4.4-15.6-8.2c-4.5-3.7-8.1-8.6-10.7-14.5s-4-13.1-4-21.5V169.4h-24.5v-38.3h24.5V70.8h49.3v60.3h39
	v38.3h-39v89.9c0,6.3,1.6,10.8,4.8,13.3c3.2,2.6,7.3,3.9,12,3.9c4.8,0,9.6-0.8,14.2-2.4c4.8-1.7,8.5-3.1,11.3-4.2l1-0.4l10,39.4
	l-0.7,0.3c-6.4,2.8-14.3,5.7-23.5,8.5C1318.2,320.5,1308.4,321.9,1298.2,321.9z M1226.4,167.6h24.5v107.7c0,8.1,1.3,15.1,3.8,20.7
	s6,10.3,10.2,13.9c4.3,3.6,9.3,6.2,14.9,7.8c5.7,1.6,11.9,2.5,18.4,2.5c10,0,19.7-1.4,28.8-4.2c8.8-2.7,16.4-5.5,22.6-8.2l-9.1-35.9
	c-2.7,1.1-6.1,2.4-10.4,3.9c-4.8,1.7-9.8,2.5-14.8,2.5c-5.2,0-9.6-1.4-13.2-4.3s-5.5-7.8-5.5-14.7v-91.7h39v-34.7h-39V72.6h-45.7
	v60.3h-24.5L1226.4,167.6L1226.4,167.6z M1519.3,320.7h-157.2v-31.3l102.5-122.2h-101.3v-35.1h154.1v30.3l-0.2,0.3l-101.6,122h103.7
	V320.7z M1364,317.9l153.5,1v-32.5h-105.7l1.2-1.5l102.7-123.2v-27.9h-150.5v31.5h103.3L1363.9,290v28.9L1364,317.9z M1633.8,321.3
	c-14.7,0-28.1-2.5-40-7.5s-22.2-11.9-30.6-20.5s-15-18.8-19.5-30.2c-4.5-11.4-6.8-23.6-6.8-36.2c0-13,2.2-25.5,6.7-37
	c4.4-11.5,10.9-21.8,19.3-30.6c8.4-8.7,18.7-15.8,30.7-20.9c12-5.1,25.6-7.7,40.5-7.7s28.4,2.6,40.2,7.7
	c11.8,5.1,21.9,12.1,30.2,20.7c8.3,8.6,14.7,18.8,19,30.2s6.5,23.5,6.5,35.8c0,3-0.1,5.9-0.2,8.7c-0.1,2.8-0.4,5.2-0.9,7.1l-0.2,0.7
	h-140.6c0.7,6.7,2.4,12.7,5,17.9c2.7,5.4,6.3,10.2,10.6,14c4.3,3.8,9.2,6.8,14.7,8.9c5.4,2,11.2,3.1,17.1,3.1
	c9.1,0,17.8-2.2,25.8-6.7c8-4.4,13.6-10.3,16.5-17.5l0.3-0.7l41.8,11.6l-0.5,1c-6.8,14-17.7,25.7-32.5,34.6
	C1672.2,316.7,1654.3,321.3,1633.8,321.3z M1634.2,132.4c-14.6,0-28,2.6-39.8,7.6s-21.9,11.9-30.1,20.5s-14.6,18.7-18.9,30
	s-6.5,23.6-6.5,36.4c0,12.4,2.3,24.3,6.7,35.5c4.5,11.2,10.9,21.2,19.1,29.6c8.2,8.5,18.3,15.2,30,20.2c11.7,4.9,24.9,7.4,39.3,7.4
	c20.1,0,37.7-4.5,52.2-13.3c14.2-8.6,24.7-19.7,31.4-32.9l-38.2-10.6c-3.1,7.2-8.8,13.2-17,17.6c-8.3,4.6-17.3,6.9-26.7,6.9
	c-6.1,0-12.1-1.1-17.7-3.2s-10.8-5.2-15.2-9.2c-4.5-4-8.2-8.9-11-14.5c-2.8-5.6-4.6-12.2-5.3-19.4l-0.1-1h141.2
	c0.4-1.7,0.6-3.7,0.7-6.1c0.1-2.8,0.2-5.7,0.2-8.7c0-12.1-2.1-24-6.4-35.2c-4.2-11.2-10.5-21.2-18.6-29.6
	c-8.1-8.5-18.1-15.3-29.6-20.3C1662.1,134.9,1648.8,132.4,1634.2,132.4z M1682.1,211.3h-96.5l0.1-0.9c0.5-6.8,2.1-13.1,4.8-18.8
	c2.7-5.6,6.2-10.5,10.5-14.5c4.2-4,9.2-7.2,14.7-9.4s11.6-3.4,17.9-3.4c12.9,0,24.1,4.2,33.1,12.6c9,8.3,14.2,19.6,15.4,33.4V211.3z
	 M1587.5,209.6h92.7c-1.3-13-6.3-23.5-14.8-31.3c-8.7-8-19.5-12.1-31.9-12.1c-6.1,0-11.9,1.1-17.2,3.2c-5.3,2.2-10.1,5.2-14.2,9
	c-4.1,3.9-7.5,8.6-10.1,14C1589.5,197.6,1588,203.4,1587.5,209.6z M1806.3,322.7H1757V131.1h45.4v37.1c3-5.2,6.3-10,10.1-14.2
	c4.5-5.1,9.5-9.6,14.7-13.4l0.5-0.4c5-3.7,10.2-7.4,15.5-9.4c5.4-2,10.7-3.1,15.7-3.1h5.9c1.3,0,2.6,0.1,3.9,0.4l0.7,0.1v45.9h-0.9
	c-14.2,0.2-27.1,3-38.3,8.2c-11,5.2-19.1,13-24,23.3v117.1H1806.3z M1758.7,320.9h45.7V205.2l0.1-0.2c5-10.8,13.4-19,24.9-24.4
	c11.2-5.2,24-8.1,38.1-8.4v-42.6c-0.9-0.1-1.9-0.2-2.8-0.2h-5.9c-4.8,0-9.9,1-15.1,3c-5,1.9-10.1,5.6-15,9.2l-0.5,0.4
	c-5.1,3.7-10,8.2-14.4,13.2s-8.3,10.7-11.6,17l-1.7-0.4V133h-41.8L1758.7,320.9L1758.7,320.9z M682.7,320.6
	c-18.4,0-36.9-2.8-54.8-8.3c-18-5.5-34.3-13.5-48.6-23.6l-0.4-0.3l21.7-42.4l0.6,0.6c2,2,5.8,4.7,11.1,8c5.4,3.3,11.8,6.7,19.1,10
	s15.5,6.2,24.5,8.4c8.9,2.3,18.2,3.4,27.5,3.4c25.7,0,38.8-8.3,38.8-24.6c0-5.1-1.5-9.5-4.4-13.1s-7.2-6.8-12.6-9.5
	c-5.5-2.7-12.2-5.3-20-7.6c-8.1-2.4-17-4.9-26.3-7.6c-11.7-3.2-22-6.8-30.7-10.6s-16-8.4-21.8-13.6c-5.8-5.2-10.2-11.4-13.1-18.2
	c-2.9-6.8-4.4-15.1-4.4-24.6c0-12.5,2.3-23.8,7-33.5c4.6-9.7,11.1-17.9,19.4-24.4c8.2-6.5,17.9-11.5,28.7-14.8
	c10.9-3.3,22.7-5,35.1-5c17.3,0,33.4,2.7,47.9,8.2c14.5,5.4,27.3,11.9,38.2,19.3l0.5,0.3l-21.8,40l-0.6-0.6
	c-1.6-1.6-4.5-3.8-8.7-6.5s-9.4-5.4-15.5-8.1c-6.1-2.6-12.7-4.9-19.8-6.7s-14.3-2.7-21.6-2.7c-12.9,0-22.7,2.4-29,7.1
	c-6.3,4.7-9.4,11.4-9.4,19.9c0,4.9,1.2,9,3.5,12.3c2.4,3.3,5.8,6.2,10.3,8.6c4.5,2.5,10.4,4.8,17.3,6.9c7.1,2.1,15.3,4.3,24.4,6.6
	c12,3.2,23,6.7,32.8,10.4s18.3,8.4,25.1,13.9c6.8,5.6,12.2,12.3,15.9,20.1s5.6,17.5,5.6,28.8c0,13.2-2.5,24.6-7.5,34
	s-11.8,17.1-20.3,22.9c-8.4,5.8-18.3,10.1-29.3,12.7C706.3,319.2,694.7,320.6,682.7,320.6z M580.5,287.9
	c14.1,9.9,30.1,17.7,47.8,23.1c17.8,5.5,36.2,8.3,54.5,8.3c11.9,0,23.4-1.3,34.3-4c10.8-2.6,20.5-6.8,28.8-12.5s15-13.2,19.9-22.4
	c4.9-9.2,7.4-20.5,7.4-33.4c0-11.1-1.8-20.6-5.5-28.3c-3.6-7.6-8.9-14.2-15.6-19.7c-6.7-5.5-15-10.1-24.7-13.7
	c-9.7-3.7-20.7-7.1-32.6-10.4c-9.1-2.3-17.3-4.5-24.4-6.6c-7.1-2.1-13-4.4-17.6-7c-4.7-2.6-8.3-5.6-10.8-9s-3.8-7.8-3.8-13
	c0-8.9,3.3-16,9.9-20.9c6.5-4.9,16.6-7.4,29.8-7.4c7.4,0,14.8,0.9,21.9,2.8c7.1,1.8,13.9,4.1,20,6.8s11.4,5.4,15.7,8.2
	c3.8,2.5,6.6,4.5,8.3,6.1l20.4-37.5c-10.7-7.2-23.2-13.5-37.4-18.8c-14.4-5.4-30.4-8.1-47.5-8.1c-12.3,0-24,1.7-34.7,5
	s-20.2,8.2-28.3,14.6s-14.5,14.4-19,24s-6.9,20.6-6.9,32.9c0,9.3,1.4,17.5,4.3,24.1c2.8,6.7,7.1,12.7,12.8,17.8s12.9,9.6,21.5,13.4
	c8.6,3.8,18.9,7.3,30.5,10.5c9.3,2.7,18.2,5.2,26.3,7.6c7.8,2.3,14.6,4.9,20.2,7.6c5.6,2.8,10,6.1,13,9.8c3.1,3.8,4.6,8.5,4.6,13.9
	c0,17.2-13.5,25.9-40.1,25.9c-9.5,0-18.8-1.2-27.8-3.5s-17.3-5.2-24.7-8.5s-13.8-6.7-19.3-10.1c-4.9-3-8.5-5.6-10.7-7.6L580.5,287.9
	z M853.4,393.9l-0.1-1.8c2.7-0.2,5.3-0.6,7.9-1.2l0.4,1.8C858.9,393.3,856.2,393.7,853.4,393.9z M845.2,393.8
	c-2.7-0.3-5.5-0.7-8.1-1.5l0.5-1.8c2.6,0.7,5.2,1.2,7.8,1.4L845.2,393.8z M869.5,390l-0.7-1.7c2.4-1,4.8-2.3,7-3.7l1,1.5
	C874.4,387.7,872,389,869.5,390z M829.3,389.6c-2.5-1.1-4.9-2.5-7.2-4.1l1-1.5c2.2,1.5,4.5,2.8,6.9,3.9L829.3,389.6z M883.3,381.1
	l-1.2-1.4c2-1.8,3.8-3.7,5.4-5.8l1.4,1.1C887.2,377.2,885.3,379.3,883.3,381.1z M815.6,380.3c-2-1.9-3.8-4-5.5-6.2l1.5-1.1
	c1.6,2.1,3.4,4.1,5.3,6L815.6,380.3z M893.5,368.2l-1.6-0.9c1.3-2.3,2.4-4.8,3.2-7.3l1.7,0.6C896,363.2,894.8,365.8,893.5,368.2z
	 M805.7,367.1c-1.3-2.4-2.3-5-3.2-7.6l1.8-0.6c0.8,2.5,1.8,5,3.1,7.4L805.7,367.1z M898.9,352.6l-1.8-0.3c0.4-2.6,0.7-5.3,0.7-7.9
	h1.8C899.6,347.1,899.3,349.9,898.9,352.6z M800.7,351.4c-0.3-2.3-0.5-4.7-0.5-7.1c0-0.4,0-0.8,0-1.2h1.8c0,0.4,0,0.8,0,1.1
	c0,2.3,0.2,4.6,0.5,6.8L800.7,351.4z M897.4,338.6c-0.3-2.6-0.9-5.3-1.6-7.8l1.8-0.5c0.8,2.6,1.3,5.4,1.7,8.1L897.4,338.6z
	 M802.9,335.3l-1.8-0.3c0.5-2.7,1.3-5.4,2.2-8l1.7,0.6C804.1,330.1,803.4,332.7,802.9,335.3z M892.9,323.4c-1.2-2.4-2.5-4.7-4.1-6.8
	l1.5-1.1c1.6,2.2,3,4.6,4.2,7.1L892.9,323.4z M808.4,320.4l-1.6-0.9c1.4-2.4,3-4.7,4.7-6.8l1.4,1.2
	C811.3,316,809.8,318.2,808.4,320.4z M883.7,310.5c-1.9-1.9-3.9-3.6-6.1-5.1l1.1-1.5c2.2,1.6,4.4,3.4,6.3,5.3L883.7,310.5z
	 M818.5,308.2l-1.2-1.4c2.1-1.8,4.3-3.4,6.7-4.9l1,1.6C822.7,304.9,820.6,306.5,818.5,308.2z M870.8,301.3c-2.4-1.2-4.9-2.1-7.4-2.9
	l0.5-1.8c2.6,0.8,5.2,1.8,7.7,3L870.8,301.3z M832.1,299.9l-0.7-1.7c2.6-1,5.2-1.8,7.9-2.4l0.4,1.8
	C837.1,298.2,834.5,298.9,832.1,299.9z M855.5,296.8c-2.6-0.3-5.3-0.4-8-0.3l-0.1-1.8c2.7-0.1,5.5,0,8.3,0.3L855.5,296.8z
	 M1810.4,320.9l-0.1-1.8c2.7-0.2,5.3-0.6,7.9-1.2l0.4,1.8C1815.9,320.3,1813.1,320.7,1810.4,320.9z M1802.1,320.8
	c-2.7-0.3-5.5-0.7-8.1-1.5l0.5-1.8c2.6,0.7,5.2,1.2,7.8,1.4L1802.1,320.8z M1826.4,317l-0.7-1.7c2.4-1,4.8-2.3,7-3.7l1,1.5
	C1831.4,314.6,1828.9,315.9,1826.4,317z M1786.2,316.5c-2.5-1.1-4.9-2.5-7.2-4.1l1-1.5c2.2,1.5,4.5,2.8,6.9,3.9L1786.2,316.5z
	 M1840.2,308.1l-1.2-1.4c2-1.8,3.8-3.7,5.4-5.8l1.4,1.1C1844.2,304.2,1842.3,306.2,1840.2,308.1z M1772.5,307.3
	c-2-1.9-3.8-4-5.5-6.2l1.5-1.1c1.6,2.1,3.4,4.1,5.3,6L1772.5,307.3z M1850.4,295.1l-1.6-0.9c1.3-2.3,2.4-4.8,3.2-7.3l1.7,0.6
	C1852.9,290.2,1851.8,292.7,1850.4,295.1z M1762.7,294.1c-1.3-2.4-2.3-5-3.2-7.6l1.8-0.6c0.8,2.5,1.8,5,3.1,7.4L1762.7,294.1z
	 M1855.8,279.6l-1.8-0.3c0.4-2.6,0.7-5.3,0.7-7.9h1.8C1856.5,274.1,1856.3,276.9,1855.8,279.6z M1757.6,278.4
	c-0.3-2.3-0.5-4.7-0.5-7.1c0-0.4,0-0.8,0-1.2h1.8c0,0.4,0,0.8,0,1.1c0,2.3,0.2,4.6,0.5,6.8L1757.6,278.4z M1854.3,265.6
	c-0.3-2.6-0.8-5.3-1.6-7.8l1.8-0.5c0.8,2.6,1.3,5.4,1.7,8.1L1854.3,265.6z M1759.8,262.3l-1.8-0.3c0.5-2.7,1.3-5.4,2.2-8l1.7,0.6
	C1761.1,257.1,1760.3,259.7,1759.8,262.3z M1849.9,250.4c-1.2-2.4-2.5-4.7-4.1-6.8l1.5-1.1c1.6,2.2,3,4.6,4.2,7.1L1849.9,250.4z
	 M1765.4,247.4l-1.6-0.9c1.4-2.4,3-4.7,4.7-6.8l1.4,1.2C1768.2,242.9,1766.7,245.1,1765.4,247.4z M1840.6,237.5
	c-1.9-1.9-3.9-3.6-6.1-5.1l1.1-1.5c2.2,1.6,4.4,3.4,6.3,5.3L1840.6,237.5z M1775.5,235.2l-1.2-1.4c2.1-1.8,4.3-3.4,6.7-4.9l1,1.6
	C1779.6,231.8,1777.5,233.4,1775.5,235.2z M1827.7,228.3c-2.4-1.2-4.9-2.1-7.4-2.9l0.5-1.8c2.6,0.8,5.2,1.8,7.7,3L1827.7,228.3z
	 M1789,226.9l-0.7-1.7c2.6-1,5.2-1.8,7.9-2.4l0.4,1.8C1794,225.1,1791.5,225.9,1789,226.9z M1812.5,223.8c-2.6-0.3-5.3-0.4-8-0.3
	l-0.1-1.8c2.7-0.1,5.5,0,8.3,0.3L1812.5,223.8z"/>
<path class="st0" d="M226.1,288.3c0-7.2,5.6-12.4,12.5-12.4s12.5,5.3,12.5,12.4c0,7.1-5.5,12.4-12.5,12.4S226.1,295.4,226.1,288.3z
	 M228.8,288.3c0,5.5,4.4,9.9,9.8,9.9s9.8-4.4,9.8-9.9s-4.4-9.9-9.8-9.9S228.8,282.8,228.8,288.3z M255.3,285.3h2.6v1.6
	c0.3-0.4,1.4-2,3.4-2c0.8,0,1.7,0.3,2.3,0.6l-1.2,2.3c-0.6-0.4-1.1-0.5-1.5-0.5c-1,0-1.7,0.4-2.1,0.9c-0.4,0.6-0.9,1.6-0.9,4v7.9
	h-2.6V285.3z M267.3,277.9c1,0,1.8,0.8,1.8,1.8s-0.8,1.8-1.8,1.8s-1.8-0.8-1.8-1.8S266.3,277.9,267.3,277.9z M268.6,285.3v14.9H266
	v-14.9H268.6z M284.9,285.3h2.6v14.6c0,1.6,0,3.9-1.4,5.9c-1.1,1.5-3.2,2.8-6,2.8c-2.6,0-4.3-1-5.3-2s-1.9-2.6-1.9-4.8h2.6
	c0,1.3,0.5,2.4,1.2,3.1c1.1,1.2,2.4,1.4,3.6,1.4c1.8,0,3.1-0.6,4-2.1c0.8-1.2,0.8-2.6,0.8-3.8v-2.2c-0.9,1.1-2.5,2.5-5.1,2.5
	c-2.2,0-4-0.9-5.1-2c-1-1-2.2-2.9-2.2-5.9c0-2.9,1.1-4.7,2.2-5.8c1.3-1.2,3.1-2,5.1-2c2.2,0,3.9,0.9,5.1,2.5V285.3z M276.7,288.7
	c-1.3,1.3-1.5,2.9-1.5,4.1c0,1.3,0.3,3.1,1.7,4.4c0.8,0.8,1.8,1.2,3.2,1.2c1.4,0,2.4-0.4,3.3-1.3c1-1,1.7-2.6,1.7-4.3
	s-0.6-3.3-1.6-4.2c-0.8-0.8-2.1-1.3-3.4-1.3C278.5,287.3,277.4,288,276.7,288.7z M293.7,277.9c1,0,1.8,0.8,1.8,1.8s-0.8,1.8-1.8,1.8
	s-1.8-0.8-1.8-1.8S292.7,277.9,293.7,277.9z M295,285.3v14.9h-2.6v-14.9H295z M299.9,285.3h2.6v1.7c0.5-0.6,1.8-2.1,4.3-2.1
	c1.8,0,3.4,0.7,4.3,2.1c0.8,1.1,0.9,2.3,0.9,4v9.3h-2.6v-9.2c0-0.9-0.1-1.9-0.7-2.7c-0.5-0.6-1.3-1.1-2.4-1.1
	c-0.9,0-1.9,0.3-2.6,1.2c-1,1.2-1.1,3-1.1,4v7.8h-2.6V285.3z M328.3,285.3h2.6v14.9h-2.6v-2.1c-0.9,1.1-2.5,2.5-5.1,2.5
	c-3.8,0-7.3-2.7-7.3-7.9c0-5.1,3.5-7.8,7.3-7.8c2.9,0,4.4,1.6,5.1,2.5V285.3z M318.5,292.8c0,3.2,1.8,5.6,4.9,5.6c3.2,0,5-2.6,5-5.6
	c0-3.9-2.7-5.5-5-5.5C320.9,287.3,318.5,289.2,318.5,292.8z M338.3,274v26.2h-2.6V274H338.3z M344.9,285c1,0,1.8,0.8,1.8,1.8
	c0,1-0.8,1.8-1.8,1.8s-1.8-0.8-1.8-1.8C343.1,285.8,343.9,285,344.9,285z M344.9,297.1c1,0,1.8,0.8,1.8,1.8c0,1-0.8,1.8-1.8,1.8
	s-1.8-0.8-1.8-1.8C343.1,297.9,343.9,297.1,344.9,297.1z M371.4,278.8h-8.3v7.1h8v2.5h-8v11.9h-2.7v-24h10.9V278.8z M377.3,294.1
	c0,1,0,2.3,0.7,3.2c0.4,0.5,1.2,1.2,2.6,1.2c1.4,0,2.2-0.6,2.6-1.2c0.7-0.9,0.7-2.2,0.7-3.2v-8.7h2.6v9c0,1.8-0.2,3.2-1.4,4.5
	c-1.3,1.4-3.1,1.9-4.6,1.9s-3.2-0.5-4.6-1.9c-1.2-1.3-1.4-2.7-1.4-4.5v-9h2.6V294.1z M394.1,287.7v12.6h-2.6v-12.6H390v-2.4h1.6
	v-5.4h2.6v5.4h2.6v2.4H394.1z M401.8,294.1c0,1,0,2.3,0.7,3.2c0.4,0.5,1.2,1.2,2.6,1.2c1.4,0,2.2-0.6,2.6-1.2
	c0.7-0.9,0.7-2.2,0.7-3.2v-8.7h2.6v9c0,1.8-0.2,3.2-1.4,4.5c-1.3,1.4-3.1,1.9-4.6,1.9s-3.2-0.5-4.6-1.9c-1.2-1.3-1.4-2.7-1.4-4.5v-9
	h2.6V294.1z M415.9,285.3h2.6v1.6c0.3-0.4,1.4-2,3.4-2c0.8,0,1.7,0.3,2.3,0.6l-1.2,2.3c-0.6-0.4-1.1-0.5-1.5-0.5
	c-1,0-1.7,0.4-2.1,0.9c-0.4,0.6-0.9,1.6-0.9,4v7.9h-2.6V285.3z M437.3,285.3h2.6v14.9h-2.6v-2.1c-0.9,1.1-2.5,2.5-5.1,2.5
	c-3.8,0-7.3-2.7-7.3-7.9c0-5.1,3.5-7.8,7.3-7.8c2.9,0,4.4,1.6,5.1,2.5V285.3z M427.6,292.8c0,3.2,1.8,5.6,4.9,5.6c3.2,0,5-2.6,5-5.6
	c0-3.9-2.7-5.5-5-5.5C429.9,287.3,427.6,289.2,427.6,292.8z M212.2,327.6v20.9h-2.5v-25.6h1.9l16.9,21.3v-21.2h2.5v25.5h-2.2
	L212.2,327.6z M244.8,348.8c-1.4,0-2.6-0.3-3.8-0.8c-1.1-0.5-2.1-1.2-3-2.1c-0.8-0.9-1.5-1.9-2-3.1c-0.5-1.2-0.7-2.4-0.7-3.8
	c0-1.3,0.2-2.6,0.7-3.7c0.5-1.2,1.1-2.2,1.9-3.1s1.8-1.6,3-2.1c1.2-0.5,2.4-0.8,3.7-0.8c1.4,0,2.6,0.3,3.8,0.8
	c1.1,0.5,2.1,1.2,2.9,2.1c0.8,0.9,1.5,1.9,1.9,3.1c0.5,1.2,0.7,2.4,0.7,3.7c0,0.2,0,0.4,0,0.6c0,0.2,0,0.3,0,0.4H238
	c0.1,1,0.3,1.9,0.7,2.8c0.4,0.9,0.9,1.6,1.5,2.2c0.6,0.6,1.3,1.1,2.1,1.5c0.8,0.3,1.7,0.5,2.6,0.5c0.6,0,1.2-0.1,1.8-0.3
	c0.6-0.2,1.2-0.4,1.7-0.7c0.5-0.3,1-0.6,1.4-1.1c0.4-0.4,0.7-0.9,0.9-1.4l2.1,0.6c-0.3,0.7-0.7,1.3-1.2,1.9
	c-0.5,0.6-1.1,1.1-1.8,1.5c-0.7,0.4-1.5,0.7-2.3,1C246.6,348.7,245.7,348.8,244.8,348.8z M251.7,338.1c-0.1-1-0.3-1.9-0.7-2.8
	c-0.4-0.8-0.9-1.5-1.5-2.1c-0.6-0.6-1.3-1.1-2.1-1.4c-0.8-0.3-1.7-0.5-2.6-0.5s-1.8,0.2-2.6,0.5c-0.8,0.3-1.5,0.8-2.1,1.4
	c-0.6,0.6-1.1,1.3-1.5,2.2c-0.4,0.8-0.6,1.8-0.7,2.7H251.7z M280.9,329.7h2.4l-8.1,18.8h-2l-4-9.6l-4,9.6h-2l-8.1-18.8h2.4l6.8,16.2
	l3.6-8.6l-3.2-7.6h2.1l2.4,6.1l2.4-6.1h2.1l-3.2,7.6l3.6,8.6L280.9,329.7z M286.2,333.3v-3.5h2.1v3.5H286.2z M286.2,348.4v-3.5h2.1
	v3.5H286.2z M303.1,348.4v-25.6h10.8c1.1,0,2.1,0.2,3,0.7c0.9,0.5,1.7,1.1,2.4,1.8c0.7,0.8,1.2,1.6,1.6,2.6c0.4,1,0.6,1.9,0.6,2.9
	c0,0.9-0.1,1.8-0.4,2.7c-0.3,0.9-0.7,1.6-1.2,2.3c-0.5,0.7-1.1,1.3-1.8,1.7c-0.7,0.5-1.5,0.8-2.3,1l6.3,9.9h-2.8l-6-9.4h-7.6v9.4
	H303.1z M305.6,336.8h8.4c0.7,0,1.4-0.2,2-0.5c0.6-0.3,1.1-0.8,1.6-1.3c0.4-0.6,0.8-1.2,1-1.9c0.2-0.7,0.4-1.4,0.4-2.2
	c0-0.8-0.1-1.5-0.4-2.2c-0.3-0.7-0.6-1.3-1.1-1.9c-0.5-0.5-1-0.9-1.7-1.3c-0.6-0.3-1.3-0.5-2-0.5h-8.1V336.8z M330.5,348.8
	c-0.9,0-1.7-0.1-2.5-0.4s-1.4-0.7-2-1.2c-0.6-0.5-1-1.1-1.3-1.9c-0.3-0.7-0.5-1.5-0.5-2.3c0-0.8,0.2-1.6,0.6-2.3
	c0.4-0.7,0.9-1.3,1.6-1.8s1.5-0.9,2.5-1.2c1-0.3,2-0.4,3.2-0.4c1,0,1.9,0.1,2.9,0.3c1,0.2,1.9,0.4,2.6,0.7v-1.7c0-1.7-0.5-3-1.4-3.9
	c-0.9-1-2.2-1.5-3.9-1.5c-1,0-1.9,0.2-3,0.6c-1,0.4-2,0.9-3.1,1.7l-0.9-1.6c2.4-1.6,4.8-2.4,7.1-2.4c2.4,0,4.2,0.7,5.5,2
	c1.3,1.3,2,3.1,2,5.5v8.5c0,0.7,0.3,1,0.9,1v2.2c-0.4,0.1-0.7,0.1-0.9,0.1c-0.6,0-1.1-0.2-1.5-0.5c-0.3-0.3-0.5-0.7-0.6-1.3
	l-0.1-1.5c-0.9,1.1-2,2-3.3,2.6C333.4,348.5,332,348.8,330.5,348.8z M331.1,346.9c1.3,0,2.4-0.2,3.5-0.7c1.1-0.5,1.9-1.1,2.4-1.9
	c0.2-0.2,0.4-0.4,0.5-0.7c0.1-0.3,0.2-0.5,0.2-0.7v-3.1c-0.8-0.3-1.7-0.6-2.5-0.7c-0.9-0.2-1.8-0.3-2.7-0.3c-1.7,0-3.1,0.4-4.2,1.1
	c-1.1,0.7-1.6,1.7-1.6,2.8c0,0.6,0.1,1.1,0.3,1.6c0.2,0.5,0.5,0.9,0.9,1.3c0.4,0.4,0.9,0.7,1.4,0.9
	C329.9,346.8,330.5,346.9,331.1,346.9z M345.5,322.2h2.4v22c0,0.7,0.2,1.2,0.6,1.6s0.9,0.6,1.6,0.6c0.3,0,0.6,0,0.9-0.1
	c0.4-0.1,0.7-0.2,1-0.3l0.4,2c-0.5,0.2-1,0.3-1.7,0.5c-0.7,0.1-1.2,0.2-1.7,0.2c-1.1,0-2-0.3-2.7-1c-0.6-0.6-1-1.5-1-2.7V322.2z
	 M363.3,348.8c-1.4,0-2.6-0.3-3.8-0.8c-1.1-0.5-2.1-1.2-3-2.1c-0.8-0.9-1.5-1.9-2-3.1c-0.5-1.2-0.7-2.4-0.7-3.8
	c0-1.3,0.2-2.6,0.7-3.7c0.5-1.2,1.1-2.2,1.9-3.1s1.8-1.6,3-2.1c1.2-0.5,2.4-0.8,3.7-0.8c1.4,0,2.6,0.3,3.8,0.8
	c1.1,0.5,2.1,1.2,2.9,2.1c0.8,0.9,1.5,1.9,1.9,3.1c0.5,1.2,0.7,2.4,0.7,3.7c0,0.2,0,0.4,0,0.6c0,0.2,0,0.3,0,0.4h-16.1
	c0.1,1,0.3,1.9,0.7,2.8c0.4,0.9,0.9,1.6,1.5,2.2c0.6,0.6,1.3,1.1,2.1,1.5c0.8,0.3,1.7,0.5,2.6,0.5c0.6,0,1.2-0.1,1.8-0.3
	c0.6-0.2,1.2-0.4,1.7-0.7c0.5-0.3,1-0.6,1.4-1.1c0.4-0.4,0.7-0.9,0.9-1.4l2.1,0.6c-0.3,0.7-0.7,1.3-1.2,1.9
	c-0.5,0.6-1.1,1.1-1.8,1.5c-0.7,0.4-1.5,0.7-2.3,1C365.1,348.7,364.2,348.8,363.3,348.8z M370.2,338.1c-0.1-1-0.3-1.9-0.7-2.8
	c-0.4-0.8-0.9-1.5-1.5-2.1c-0.6-0.6-1.3-1.1-2.1-1.4c-0.8-0.3-1.7-0.5-2.6-0.5s-1.8,0.2-2.6,0.5c-0.8,0.3-1.5,0.8-2.1,1.4
	c-0.6,0.6-1.1,1.3-1.5,2.2c-0.4,0.8-0.6,1.8-0.7,2.7H370.2z M399.5,329.7h2.4l-8.1,18.8h-2l-4-9.6l-4,9.6h-2l-8.1-18.8h2.4l6.8,16.2
	l3.6-8.6l-3.2-7.6h2.1l2.4,6.1l2.4-6.1h2.1l-3.2,7.6l3.6,8.6L399.5,329.7z M409.4,348.8c-0.9,0-1.7-0.1-2.5-0.4s-1.4-0.7-2-1.2
	c-0.6-0.5-1-1.1-1.3-1.9c-0.3-0.7-0.5-1.5-0.5-2.3c0-0.8,0.2-1.6,0.6-2.3c0.4-0.7,0.9-1.3,1.6-1.8s1.5-0.9,2.5-1.2
	c1-0.3,2-0.4,3.2-0.4c1,0,1.9,0.1,2.9,0.3c1,0.2,1.9,0.4,2.6,0.7v-1.7c0-1.7-0.5-3-1.4-3.9c-0.9-1-2.2-1.5-3.9-1.5
	c-1,0-1.9,0.2-3,0.6c-1,0.4-2,0.9-3.1,1.7l-0.9-1.6c2.4-1.6,4.8-2.4,7.1-2.4c2.4,0,4.2,0.7,5.5,2c1.3,1.3,2,3.1,2,5.5v8.5
	c0,0.7,0.3,1,0.9,1v2.2c-0.4,0.1-0.7,0.1-0.9,0.1c-0.6,0-1.1-0.2-1.5-0.5c-0.3-0.3-0.5-0.7-0.6-1.3l-0.1-1.5c-0.9,1.1-2,2-3.3,2.6
	C412.3,348.5,410.9,348.8,409.4,348.8z M409.9,346.9c1.3,0,2.4-0.2,3.5-0.7c1.1-0.5,1.9-1.1,2.4-1.9c0.2-0.2,0.4-0.4,0.5-0.7
	c0.1-0.3,0.2-0.5,0.2-0.7v-3.1c-0.8-0.3-1.7-0.6-2.5-0.7c-0.9-0.2-1.8-0.3-2.7-0.3c-1.7,0-3.1,0.4-4.2,1.1c-1.1,0.7-1.6,1.7-1.6,2.8
	c0,0.6,0.1,1.1,0.3,1.6c0.2,0.5,0.5,0.9,0.9,1.3c0.4,0.4,0.9,0.7,1.4,0.9C408.7,346.8,409.3,346.9,409.9,346.9z M424.9,354.2
	c0.2,0,0.4,0,0.6,0.1c0.2,0,0.4,0,0.5,0c0.4,0,0.8-0.1,1-0.2s0.5-0.4,0.7-0.8c0.2-0.4,0.5-1,0.8-1.8c0.3-0.8,0.7-1.8,1.3-3.1
	l-8.2-18.8h2.5l6.9,16.5l6.4-16.5h2.3l-9.7,24.2c-0.3,0.7-0.7,1.3-1.3,1.8c-0.6,0.5-1.4,0.8-2.5,0.8c-0.2,0-0.5,0-0.7,0
	s-0.5,0-0.8-0.1V354.2z"/>
</svg>
