<?xml version="1.0" encoding="utf-8"?>
<!-- Generator: Adobe Illustrator 26.2.1, SVG Export Plug-In . SVG Version: 6.00 Build 0)  -->
<svg version="1.1" id="Layer_1" xmlns="http://www.w3.org/2000/svg" xmlns:xlink="http://www.w3.org/1999/xlink" x="0px" y="0px"
	 viewBox="0 0 500 132.3" style="enable-background:new 0 0 500 132.3;" xml:space="preserve">
<style type="text/css">
	.st0{fill:#040433;}
</style>
<g>
	<path class="st0" d="M69.7,53.7c-2.6-2.1-5.7-3.9-9.4-5.3c-3.7-1.4-7.8-2.7-12.4-3.9c-3.5-0.9-6.5-1.7-9.2-2.5
		c-2.7-0.8-4.9-1.7-6.6-2.6c-1.7-1-3.1-2.1-4-3.3c-0.9-1.3-1.3-2.9-1.3-4.8c0-3.3,1.2-5.9,3.7-7.8s6.2-2.8,11.2-2.8
		c2.8,0,5.5,0.3,8.3,1c2.7,0.7,5.2,1.5,7.5,2.6c2.3,1,4.3,2.1,5.9,3.1c1.6,1,2.8,1.9,3.3,2.5l8-14.7c-4.1-2.8-8.9-5.2-14.4-7.3
		c-5.5-2.1-11.6-3.1-18.1-3.1c-4.7,0-9.1,0.6-13.2,1.9c-4.1,1.3-7.7,3.1-10.8,5.6c-3.1,2.4-5.5,5.5-7.3,9.2
		C9,25.2,8.1,29.4,8.1,34.1c0,3.6,0.5,6.7,1.7,9.2c1.1,2.6,2.8,4.9,4.9,6.8c2.2,2,4.9,3.7,8.2,5.1c3.3,1.4,7.1,2.8,11.6,4
		c3.7,1,7,2,9.9,2.9c3,0.9,5.5,1.9,7.6,2.9c2.1,1,3.7,2.2,4.9,3.7c1.2,1.4,1.7,3.1,1.7,5.1c0,6.4-5,9.6-15,9.6
		c-3.6,0-7.1-0.4-10.5-1.3c-3.4-0.9-6.5-1.9-9.3-3.2c-2.8-1.3-5.2-2.5-7.3-3.8c-2.1-1.3-3.5-2.3-4.2-3.1L4.3,87.6
		c5.4,3.9,11.6,6.8,18.4,8.9c6.8,2.1,13.7,3.1,20.7,3.1c4.6,0,8.9-0.5,13-1.5c4.2-1,7.8-2.6,11-4.8c3.2-2.2,5.7-5.1,7.6-8.6
		c1.9-3.5,2.8-7.8,2.8-12.8c0-4.3-0.7-7.9-2.1-10.8C74.3,58.3,72.3,55.8,69.7,53.7z"/>
	<path class="st0" d="M152.4,37.4c-3-3.3-6.4-5.9-10.5-7.8c-4-1.9-8.5-2.9-13.2-2.9c-5.4,0-10.2,1.2-14.3,3.6
		c-4.2,2.4-7.5,5.6-10.1,9.8V28H88.5v81.4c0,10,8.1,18.1,18.1,18.1V86.3c2.3,4.2,5.6,7.6,9.7,10.1c4.1,2.5,9,3.7,14.6,3.7
		c4.5,0,8.7-1,12.5-2.8c3.8-1.9,7.1-4.5,9.8-7.8c2.8-3.3,4.9-7.3,6.4-11.7s2.3-9.3,2.3-14.4c0-4.9-0.8-9.6-2.5-14.1
		C157.6,44.6,155.4,40.7,152.4,37.4z M142,71.2c-0.9,2.6-2.2,4.9-3.8,6.9c-1.6,2-3.6,3.5-5.9,4.7c-2.3,1.2-4.8,1.7-7.5,1.7
		c-3.9,0-7.4-1.3-10.8-4c-3.3-2.6-5.8-6-7.4-10.1V53.9c0.6-1.7,1.5-3.3,2.8-4.7c1.2-1.4,2.6-2.7,4.1-3.8c1.5-1.1,3.2-1.9,5-2.5
		c1.8-0.6,3.5-0.9,5.3-0.9c2.8,0,5.4,0.5,7.8,1.6c2.4,1.1,4.4,2.6,6.2,4.4c1.7,1.9,3.1,4.1,4.1,6.7c1,2.6,1.5,5.3,1.5,8.3
		C143.3,65.9,142.9,68.6,142,71.2z"/>
	<path class="st0" d="M233.9,37.6c-3.2-3.4-7.1-6-11.6-8c-4.6-2-9.7-3-15.5-3c-5.8,0-10.9,1-15.5,3c-4.6,2-8.5,4.7-11.7,8
		c-3.2,3.4-5.6,7.3-7.4,11.7c-1.7,4.4-2.6,9.1-2.6,14.1c0,4.9,0.8,9.5,2.6,13.9c1.7,4.4,4.2,8.3,7.4,11.7c3.2,3.4,7.1,6,11.7,8
		c4.6,2,9.8,3,15.5,3c5.8,0,10.9-1,15.5-3c4.6-2,8.5-4.7,11.6-8c3.1-3.4,5.6-7.3,7.3-11.7c1.7-4.4,2.6-9,2.6-13.9
		c0-4.9-0.8-9.6-2.6-14.1C239.5,45,237.1,41,233.9,37.6z M223.9,71.9c-1,2.6-2.2,4.9-3.9,6.7c-1.7,1.9-3.6,3.3-5.9,4.4
		c-2.2,1-4.7,1.5-7.3,1.5c-2.6,0-5.1-0.5-7.3-1.5c-2.2-1-4.2-2.5-5.9-4.4c-1.7-1.9-3-4.1-3.9-6.7c-1-2.6-1.4-5.4-1.4-8.6
		c0-3.1,0.4-5.9,1.4-8.5c1-2.6,2.2-4.9,3.9-6.7c1.7-1.9,3.6-3.4,5.9-4.4c2.2-1.1,4.7-1.6,7.3-1.6c2.6,0,5.1,0.5,7.3,1.5
		c2.2,1,4.2,2.5,5.9,4.4c1.7,1.9,3,4.2,3.9,6.7c1,2.6,1.4,5.5,1.4,8.5C225.3,66.4,224.8,69.3,223.9,71.9z"/>
	<path class="st0" d="M354.2,49.3c4.7-5.6,7.3-12.8,7.3-20.1v-1.3h-58.5V43h35.6l-29.8,35.6c-4.7,5.6-7.3,12.8-7.3,20.1v1.3h60.8
		V84.9h-37.6L354.2,49.3z"/>
	<path class="st0" d="M432.8,37.2c-3.2-3.3-7.1-6-11.7-8c-4.6-2-9.8-3-15.5-3s-11,1-15.7,3c-4.6,2-8.7,4.7-11.9,8.1
		c-3.3,3.4-5.8,7.4-7.5,11.8c-1.7,4.4-2.6,9.3-2.6,14.3c0,4.9,0.9,9.6,2.6,14c1.7,4.4,4.3,8.3,7.6,11.7c3.3,3.3,7.3,6,11.8,8
		c4.6,1.9,9.8,3,15.5,3c7.9,0,14.8-1.7,20.6-5.3c5.7-3.5,9.9-8,12.6-13.4l0.3-0.5l-16.4-4.6l-0.1,0.4c-1.1,2.8-3.2,5-6.3,6.7
		c-3.1,1.7-6.4,2.6-9.9,2.6c-2.2,0-4.5-0.4-6.5-1.2c-2.1-0.8-4-1.9-5.6-3.4c-1.7-1.5-3-3.3-4-5.4c-1-2-1.6-4.2-1.9-6.7h54.2l0.1-0.3
		c0.2-0.7,0.3-1.7,0.3-2.8c0.1-1.1,0.1-2.2,0.1-3.4c0-4.7-0.8-9.4-2.5-13.9C438.4,44.5,436,40.5,432.8,37.2z M387.6,56.7
		c0.2-2.3,0.8-4.5,1.7-6.5c1-2.1,2.3-3.9,3.9-5.4c1.5-1.5,3.4-2.6,5.5-3.5c2.1-0.8,4.2-1.2,6.6-1.2c4.7,0,8.9,1.5,12.3,4.6
		c3.2,3,5.1,7,5.6,11.9L387.6,56.7L387.6,56.7z"/>
	<path class="st0" d="M494.3,26.5c-0.5,0-1.2,0-2.2,0c-1.9,0-3.9,0.4-5.9,1.2c-2.1,0.8-4,1.9-6,3.3c-2,1.5-3.8,3.1-5.6,5.1
		c-1.7,1.9-3.2,4.2-4.5,6.6V27.8h-16.7v54c0,10.1,8.2,18.2,18.2,18.2V55.5c1.9-4,5-7.1,9.4-9.2c4.4-2.1,9.3-3.1,14.8-3.2V26.6
		C495.2,26.5,494.8,26.5,494.3,26.5z"/>
	<path class="st0" d="M277.1,4.9H259v23h-9.3v13.9h9.3v40.6c0,3.1,0.5,5.8,1.5,8c1,2.2,2.3,4,4,5.4c1.7,1.4,3.6,2.4,5.8,3
		c2.1,0.6,4.4,0.9,6.8,1V41.8h14.8V27.8h-14.8L277.1,4.9L277.1,4.9z"/>
</g>
</svg>
